<?xml version="1.0" encoding="utf-8"?>
<!-- Generator: Adobe Illustrator 18.0.0, SVG Export Plug-In . SVG Version: 6.00 Build 0)  -->
<!DOCTYPE svg PUBLIC "-//W3C//DTD SVG 1.1//EN" "http://www.w3.org/Graphics/SVG/1.1/DTD/svg11.dtd">
<svg version="1.1" xmlns="http://www.w3.org/2000/svg" xmlns:xlink="http://www.w3.org/1999/xlink" x="0px" y="0px"
	 viewBox="0 0 1200 300" enable-background="new 0 0 1200 300" xml:space="preserve">
<g id="Sfondo">
	<rect y="-0.5" fill="#4B9853" width="1200" height="300"/>
	<linearGradient id="SVGID_1_" gradientUnits="userSpaceOnUse" x1="918.499" y1="348.1362" x2="846.5949" y2="-59.6522">
		<stop  offset="0" style="stop-color:#231F20;stop-opacity:0"/>
		<stop  offset="1" style="stop-color:#231F20"/>
		<stop  offset="1" style="stop-color:#231F20;stop-opacity:0"/>
	</linearGradient>
	<polyline opacity="0.1" fill="url(#SVGID_1_)" points="1197,0.1 1200,-0.5 1200,298.5 696,300 514,-1 	"/>
</g>
<g id="Content" display="none">
	
		<text transform="matrix(1 0 0 1 719.478 263.0771)" display="inline" fill="#FFFFFF" font-family="'OpenSans-Semibold'" font-size="42">09 Luglio 2015</text>
	<text transform="matrix(1 0 0 1 30.0127 148.4556)" display="inline" fill="#FFFFFF" font-family="'OpenSans'" font-size="44">Introducing the Support Library</text>
	
		<text transform="matrix(1 0 0 1 31.0127 99.9023)" display="inline" fill="#FFFFFF" font-family="'OpenSans-Extrabold'" font-size="64">Android Design</text>
	<text transform="matrix(1 0 0 1 31.9648 42.4717)" display="inline" fill="#FFFFFF" font-family="'OpenSans'" font-size="21">GDG Milano presents:</text>
	<g>
		<g display="inline">
			<defs>
				<rect id="SVGID_2_" x="-53.5" y="-48.9" width="234" height="402.1"/>
			</defs>
			<clipPath id="SVGID_3_">
				<use xlink:href="#SVGID_2_"  overflow="visible"/>
			</clipPath>
			<g clip-path="url(#SVGID_3_)">
				<defs>
					<rect id="SVGID_4_" x="-53.5" y="-48.9" width="234" height="402.1"/>
				</defs>
				<clipPath id="SVGID_5_">
					<use xlink:href="#SVGID_4_"  overflow="visible"/>
				</clipPath>
				<g clip-path="url(#SVGID_5_)">
					<defs>
						<rect id="SVGID_6_" x="-53.5" y="-48.9" width="234" height="402.1"/>
					</defs>
					<clipPath id="SVGID_7_">
						<use xlink:href="#SVGID_6_"  overflow="visible"/>
					</clipPath>
					<path clip-path="url(#SVGID_7_)" fill="#FFFFFF" d="M90.7,203.5L0.6,353.2h45.5c10.8,0,24.1-7.6,29.7-16.8l38.3-63.8
						c4.5-9.4,4.4-23-0.8-31.6L90.7,203.5z"/>
				</g>
				<g clip-path="url(#SVGID_5_)">
					<defs>
						<path id="SVGID_8_" d="M49.5,169L-51.7,338.2c-3.9,8.4,0.2,15,10.2,15H0.6l90.1-149.7l-41.2-68.2
							C55.1,144.6,55.1,159.7,49.5,169"/>
					</defs>
					<clipPath id="SVGID_9_">
						<use xlink:href="#SVGID_8_"  overflow="visible"/>
					</clipPath>
					
						<radialGradient id="SVGID_10_" cx="128.2618" cy="29.4969" r="0.7947" gradientTransform="matrix(116.1371 0 0 -116.1371 -14877.1309 3669.9714)" gradientUnits="userSpaceOnUse">
						<stop  offset="0" style="stop-color:#E0E1E2"/>
						<stop  offset="1" style="stop-color:#D5D7D8"/>
					</radialGradient>
					<rect x="-55.6" y="135.3" clip-path="url(#SVGID_9_)" fill="url(#SVGID_10_)" width="146.3" height="217.9"/>
				</g>
				<g clip-path="url(#SVGID_5_)">
					<defs>
						<rect id="SVGID_11_" x="-53.5" y="-48.9" width="234" height="402.1"/>
					</defs>
					<clipPath id="SVGID_12_">
						<use xlink:href="#SVGID_11_"  overflow="visible"/>
					</clipPath>
					<path clip-path="url(#SVGID_12_)" fill="#FFFFFF" d="M-41.5-48.9c-10.8,0-15.1,7.6-9.5,16.8L113.4,241
						c5.2,8.6,5.3,22.2,0.8,31.6l40-66.5L0.6-48.9H-41.5z"/>
				</g>
				<g clip-path="url(#SVGID_5_)">
					<defs>
						<path id="SVGID_13_" d="M0.6-48.9l153.5,255l22.3-37.1c5.6-9.3,5.6-24.4,0-33.7L75.8-32.1c-5.6-9.2-18.9-16.8-29.7-16.8H0.6z"
							/>
					</defs>
					<clipPath id="SVGID_14_">
						<use xlink:href="#SVGID_13_"  overflow="visible"/>
					</clipPath>
					
						<radialGradient id="SVGID_15_" cx="128.4113" cy="29.6794" r="0.7949" gradientTransform="matrix(138.8162 0 0 -138.8162 -17735.0371 4198.5635)" gradientUnits="userSpaceOnUse">
						<stop  offset="0" style="stop-color:#E0E1E2"/>
						<stop  offset="1" style="stop-color:#D5D7D8"/>
					</radialGradient>
					<rect x="0.6" y="-48.9" clip-path="url(#SVGID_14_)" fill="url(#SVGID_15_)" width="181.3" height="255"/>
				</g>
				<g clip-path="url(#SVGID_5_)">
					<defs>
						<rect id="SVGID_16_" x="-53.5" y="-48.9" width="234" height="402.1"/>
					</defs>
					<clipPath id="SVGID_17_">
						<use xlink:href="#SVGID_16_"  overflow="visible"/>
					</clipPath>
					<g clip-path="url(#SVGID_17_)">
						<g>
							<defs>
								<rect id="SVGID_18_" x="27.1" y="135.3" width="90.4" height="137.2"/>
							</defs>
							<clipPath id="SVGID_19_">
								<use xlink:href="#SVGID_18_"  overflow="visible"/>
							</clipPath>
							<g clip-path="url(#SVGID_19_)">
								<defs>
									<path id="SVGID_20_" d="M113.4,241L49.5,135.3c5.6,9.2,5.6,24.4,0,33.7l-22.5,37.4l87.1,66.2
										C118.7,263.2,118.5,249.6,113.4,241"/>
								</defs>
								<clipPath id="SVGID_21_">
									<use xlink:href="#SVGID_20_"  overflow="visible"/>
								</clipPath>
								<defs>
									<filter id="Adobe_OpacityMaskFilter" filterUnits="userSpaceOnUse" x="27.1" y="135.3" width="91.6" height="137.2">
										<feColorMatrix  type="matrix" values="1 0 0 0 0  0 1 0 0 0  0 0 1 0 0  0 0 0 1 0"/>
									</filter>
								</defs>
								<mask maskUnits="userSpaceOnUse" x="27.1" y="135.3" width="91.6" height="137.2" id="SVGID_22_">
									<g filter="url(#Adobe_OpacityMaskFilter)">
										
											<linearGradient id="SVGID_23_" gradientUnits="userSpaceOnUse" x1="131.6341" y1="35.024" x2="132.4287" y2="35.024" gradientTransform="matrix(-142.3638 0 0 142.3638 18877.6797 -4782.1831)">
											<stop  offset="0" style="stop-color:#333333"/>
											<stop  offset="1" style="stop-color:#404040"/>
										</linearGradient>
										<rect x="27.1" y="135.3" clip-path="url(#SVGID_21_)" fill="url(#SVGID_23_)" width="91.6" height="137.2"/>
									</g>
								</mask>
								
									<linearGradient id="SVGID_24_" gradientUnits="userSpaceOnUse" x1="131.6341" y1="35.024" x2="132.4287" y2="35.024" gradientTransform="matrix(-142.3638 0 0 142.3638 18877.6797 -4782.1831)">
									<stop  offset="0" style="stop-color:#231F20"/>
									<stop  offset="1" style="stop-color:#F1F2F2"/>
								</linearGradient>
								
									<rect x="27.1" y="135.3" clip-path="url(#SVGID_21_)" mask="url(#SVGID_22_)" fill="url(#SVGID_24_)" width="91.6" height="137.2"/>
							</g>
						</g>
					</g>
					<g clip-path="url(#SVGID_17_)">
						<g>
							<defs>
								<rect id="SVGID_25_" x="-53.5" y="-48.9" width="234" height="402.1"/>
							</defs>
							<clipPath id="SVGID_26_">
								<use xlink:href="#SVGID_25_"  overflow="visible"/>
							</clipPath>
							<g clip-path="url(#SVGID_26_)">
								<defs>
									<path id="SVGID_27_" d="M176.4,135.3L75.8-32.1c-5.6-9.2-18.9-16.8-29.7-16.8H0.6h-42.1c-10.8,0-15.1,7.6-9.5,16.8
										L49.5,135.3c5.6,9.2,5.6,24.4,0,33.7L-51.7,338.2c-3.9,8.4,0.2,15,10.2,15H0.6h45.5c10.8,0,24.1-7.6,29.7-16.8l78.3-130.3
										l22.3-37.1C181.9,159.7,181.9,144.6,176.4,135.3"/>
								</defs>
								<clipPath id="SVGID_28_">
									<use xlink:href="#SVGID_27_"  overflow="visible"/>
								</clipPath>
								<defs>
									<filter id="Adobe_OpacityMaskFilter_1_" filterUnits="userSpaceOnUse" x="-56.6" y="-48.9" width="238.5" height="402.1">
										<feColorMatrix  type="matrix" values="1 0 0 0 0  0 1 0 0 0  0 0 1 0 0  0 0 0 1 0"/>
									</filter>
								</defs>
								<mask maskUnits="userSpaceOnUse" x="-56.6" y="-48.9" width="238.5" height="402.1" id="SVGID_29_">
									<g filter="url(#Adobe_OpacityMaskFilter_1_)">
										
											<radialGradient id="SVGID_30_" cx="128.9672" cy="30.699" r="0.7947" gradientTransform="matrix(206.9571 0 0 -206.9571 -26627.1211 6505.5352)" gradientUnits="userSpaceOnUse">
											<stop  offset="0" style="stop-color:#1A1A1A"/>
											<stop  offset="0.2395" style="stop-color:#0D0D0D"/>
											<stop  offset="0.5779" style="stop-color:#030303"/>
											<stop  offset="1" style="stop-color:#000000"/>
										</radialGradient>
										<rect x="-56.6" y="-48.9" clip-path="url(#SVGID_28_)" fill="url(#SVGID_30_)" width="238.5" height="402.1"/>
									</g>
								</mask>
								
									<radialGradient id="SVGID_31_" cx="128.9699" cy="30.7017" r="0.7949" gradientTransform="matrix(206.957 0 0 -206.957 -26627.5918 6506.0894)" gradientUnits="userSpaceOnUse">
									<stop  offset="0" style="stop-color:#FFFFFF"/>
									<stop  offset="8.962709e-02" style="stop-color:#FFFFFF"/>
									<stop  offset="1" style="stop-color:#FFFFFF"/>
								</radialGradient>
								
									<rect x="-56.6" y="-48.9" clip-path="url(#SVGID_28_)" mask="url(#SVGID_29_)" fill="url(#SVGID_31_)" width="238.5" height="402.1"/>
							</g>
						</g>
					</g>
				</g>
			</g>
		</g>
	</g>
	<g display="inline">
		<g>
			<defs>
				<rect id="SVGID_32_" x="35" y="222.5" width="239.9" height="55.2"/>
			</defs>
			<clipPath id="SVGID_33_">
				<use xlink:href="#SVGID_32_"  overflow="visible"/>
			</clipPath>
			<g clip-path="url(#SVGID_33_)">
				<defs>
					<rect id="SVGID_34_" x="35" y="222.5" width="239.9" height="55.2"/>
				</defs>
				<clipPath id="SVGID_35_">
					<use xlink:href="#SVGID_34_"  overflow="visible"/>
				</clipPath>
				<g clip-path="url(#SVGID_35_)">
					<text transform="matrix(1 0 0 1 165.6643 262.9536)"><tspan x="0" y="0" fill="#231F20" font-family="'OpenSans-Semibold'" font-size="36.7552" letter-spacing="-2">Mil</tspan><tspan x="47.9" y="0" fill="#231F20" font-family="'OpenSans-Semibold'" font-size="36.7552" letter-spacing="-2">a</tspan><tspan x="67" y="0" fill="#231F20" font-family="'OpenSans-Semibold'" font-size="36.7552" letter-spacing="-2">n</tspan><tspan x="88.2" y="0" fill="#231F20" font-family="'OpenSans-Semibold'" font-size="36.7552">o</tspan></text>
				</g>
				<g clip-path="url(#SVGID_35_)">
					<defs>
						<rect id="SVGID_36_" x="35" y="222.5" width="239.9" height="55.2"/>
					</defs>
					<clipPath id="SVGID_37_">
						<use xlink:href="#SVGID_36_"  overflow="visible"/>
					</clipPath>
					<path clip-path="url(#SVGID_37_)" fill="#231F20" d="M92.2,247.8h11.3V262c-3.1,1.1-6.4,1.6-10.1,1.6c-4,0-7.1-1.2-9.3-3.5
						c-2.2-2.3-3.3-5.7-3.3-10c0-4.2,1.2-7.5,3.6-9.9c2.4-2.4,5.8-3.5,10.1-3.5c1.6,0,3.2,0.1,4.7,0.5c1.5,0.3,2.7,0.7,3.8,1.2
						l-2.2,5.5c-1.9-0.9-4-1.4-6.2-1.4c-2.1,0-3.7,0.7-4.8,2c-1.1,1.3-1.7,3.3-1.7,5.8c0,2.4,0.5,4.3,1.5,5.6c1,1.3,2.5,1.9,4.4,1.9
						c1.1,0,2-0.1,2.9-0.3v-4.1h-4.7V247.8z"/>
					<path clip-path="url(#SVGID_37_)" fill="#231F20" d="M122.3,249.8c0-2.4-0.5-4.2-1.4-5.3c-0.9-1.2-2.4-1.7-4.3-1.7h-2.1v14.7
						h1.6c2.2,0,3.7-0.6,4.7-1.9C121.8,254.3,122.3,252.3,122.3,249.8 M129.6,249.5c0,4.4-1.2,7.7-3.6,10.1
						c-2.4,2.4-5.8,3.5-10.1,3.5h-8.5V237h9.1c4.2,0,7.4,1.1,9.7,3.2C128.5,242.4,129.6,245.5,129.6,249.5"/>
					<path clip-path="url(#SVGID_37_)" fill="#231F20" d="M143.3,247.8h11.3V262c-3.1,1.1-6.4,1.6-10.1,1.6c-4,0-7.1-1.2-9.4-3.5
						c-2.2-2.3-3.3-5.7-3.3-10c0-4.2,1.2-7.5,3.6-9.9c2.4-2.4,5.8-3.5,10.1-3.5c1.6,0,3.2,0.1,4.7,0.5c1.5,0.3,2.7,0.7,3.8,1.2
						l-2.2,5.5c-1.9-0.9-4-1.4-6.2-1.4c-2.1,0-3.7,0.7-4.8,2c-1.1,1.3-1.7,3.3-1.7,5.8c0,2.4,0.5,4.3,1.5,5.6c1,1.3,2.5,1.9,4.4,1.9
						c1.1,0,2-0.1,2.9-0.3v-4.1h-4.7V247.8z"/>
				</g>
				<g clip-path="url(#SVGID_35_)">
					<defs>
						<path id="SVGID_38_" d="M42.4,277.7h6.2c1.5,0,3.3-1,4.1-2.3l5.3-8.8c0.6-1.3,0.6-3.2-0.1-4.3l-3.1-5.1L42.4,277.7z"/>
					</defs>
					<clipPath id="SVGID_39_">
						<use xlink:href="#SVGID_38_"  overflow="visible"/>
					</clipPath>
					
						<radialGradient id="SVGID_40_" cx="131.3043" cy="31.3347" r="0.2827" gradientTransform="matrix(108.6747 200.4074 200.4074 -108.6747 -20515.4102 -22687.707)" gradientUnits="userSpaceOnUse">
						<stop  offset="0" style="stop-color:#FFCD4D"/>
						<stop  offset="1" style="stop-color:#F6C338"/>
					</radialGradient>
					<polygon clip-path="url(#SVGID_39_)" fill="url(#SVGID_40_)" points="55,250.3 67.2,273 46.1,284.5 33.8,261.8 					"/>
				</g>
				<g clip-path="url(#SVGID_35_)">
					<defs>
						<path id="SVGID_41_" d="M49.1,252.4l-13.9,23.2c-0.5,1.1,0,2.1,1.4,2.1h5.8l12.4-20.5l-5.7-9.4
							C49.9,249,49.9,251.1,49.1,252.4"/>
					</defs>
					<clipPath id="SVGID_42_">
						<use xlink:href="#SVGID_41_"  overflow="visible"/>
					</clipPath>
					
						<radialGradient id="SVGID_43_" cx="131.3043" cy="31.3347" r="0.2827" gradientTransform="matrix(108.674 200.4061 200.4061 -108.674 -20515.2637 -22687.5527)" gradientUnits="userSpaceOnUse">
						<stop  offset="0" style="stop-color:#0DA960"/>
						<stop  offset="1" style="stop-color:#03914B"/>
					</radialGradient>
					<polygon clip-path="url(#SVGID_42_)" fill="url(#SVGID_43_)" points="50.2,239.4 67.3,270.9 39.3,286.1 22.2,254.6 					"/>
				</g>
				<g clip-path="url(#SVGID_35_)">
					<defs>
						<path id="SVGID_44_" d="M36.7,222.5c-1,0-1.6,0.5-1.6,1.3v0c0,0.3,0.1,0.7,0.3,1l22.6,37.5c0.7,1.2,0.7,3.1,0.1,4.3l5.5-9.1
							l-21.1-35H36.7z"/>
					</defs>
					<clipPath id="SVGID_45_">
						<use xlink:href="#SVGID_44_"  overflow="visible"/>
					</clipPath>
					
						<radialGradient id="SVGID_46_" cx="131.3043" cy="31.3347" r="0.2827" gradientTransform="matrix(108.6723 200.403 200.403 -108.6723 -20514.9531 -22687.2051)" gradientUnits="userSpaceOnUse">
						<stop  offset="0" style="stop-color:#4387FD"/>
						<stop  offset="1" style="stop-color:#4683EA"/>
					</radialGradient>
					<polygon clip-path="url(#SVGID_45_)" fill="url(#SVGID_46_)" points="57,210.6 82,256.6 41.5,278.5 16.5,232.5 					"/>
				</g>
				<g clip-path="url(#SVGID_35_)">
					<defs>
						<path id="SVGID_47_" d="M42.4,222.5l21.1,35l3.1-5.1c0.8-1.3,0.8-3.4,0-4.6l-13.8-23c-0.8-1.3-2.6-2.3-4.1-2.3H42.4z"/>
					</defs>
					<clipPath id="SVGID_48_">
						<use xlink:href="#SVGID_47_"  overflow="visible"/>
					</clipPath>
					
						<radialGradient id="SVGID_49_" cx="131.3044" cy="31.3346" r="0.2827" gradientTransform="matrix(108.6655 200.3905 200.3905 -108.6655 -20513.6543 -22685.7949)" gradientUnits="userSpaceOnUse">
						<stop  offset="0" style="stop-color:#E04A3F"/>
						<stop  offset="1" style="stop-color:#CD372D"/>
					</radialGradient>
					<polygon clip-path="url(#SVGID_48_)" fill="url(#SVGID_49_)" points="61.7,212.1 82,249.5 48.1,267.9 27.8,230.4 					"/>
				</g>
				<g clip-path="url(#SVGID_35_)">
					<defs>
						<rect id="SVGID_50_" x="35" y="222.5" width="239.9" height="55.2"/>
					</defs>
					<clipPath id="SVGID_51_">
						<use xlink:href="#SVGID_50_"  overflow="visible"/>
					</clipPath>
					<g clip-path="url(#SVGID_51_)">
						<g>
							<defs>
								<rect id="SVGID_52_" x="46.1" y="247.8" width="12.4" height="18.8"/>
							</defs>
							<clipPath id="SVGID_53_">
								<use xlink:href="#SVGID_52_"  overflow="visible"/>
							</clipPath>
							<g clip-path="url(#SVGID_53_)">
								<defs>
									<path id="SVGID_54_" d="M57.9,262.3l-8.8-14.5c0.8,1.3,0.8,3.3,0,4.6l-3.1,5.1l12,9.1C58.6,265.3,58.6,263.5,57.9,262.3"/>
								</defs>
								<clipPath id="SVGID_55_">
									<use xlink:href="#SVGID_54_"  overflow="visible"/>
								</clipPath>
								<defs>
									<filter id="Adobe_OpacityMaskFilter_2_" filterUnits="userSpaceOnUse" x="46.1" y="247.8" width="12.6" height="18.8">
										<feColorMatrix  type="matrix" values="1 0 0 0 0  0 1 0 0 0  0 0 1 0 0  0 0 0 1 0"/>
									</filter>
								</defs>
								<mask maskUnits="userSpaceOnUse" x="46.1" y="247.8" width="12.6" height="18.8" id="SVGID_56_">
									<g filter="url(#Adobe_OpacityMaskFilter_2_)">
										
											<linearGradient id="SVGID_57_" gradientUnits="userSpaceOnUse" x1="132.9418" y1="37.9101" x2="133.2245" y2="37.9101" gradientTransform="matrix(-54.9201 0 0 54.9201 7362.4346 -1824.8412)">
											<stop  offset="0" style="stop-color:#333333"/>
											<stop  offset="1" style="stop-color:#404040"/>
										</linearGradient>
										<rect x="46.1" y="247.8" clip-path="url(#SVGID_55_)" fill="url(#SVGID_57_)" width="12.6" height="18.8"/>
									</g>
								</mask>
								
									<linearGradient id="SVGID_58_" gradientUnits="userSpaceOnUse" x1="132.9418" y1="37.9101" x2="133.2245" y2="37.9101" gradientTransform="matrix(-54.9201 0 0 54.9201 7362.4336 -1824.8409)">
									<stop  offset="0" style="stop-color:#231F20"/>
									<stop  offset="1" style="stop-color:#F1F2F2"/>
								</linearGradient>
								
									<rect x="46.1" y="247.8" clip-path="url(#SVGID_55_)" mask="url(#SVGID_56_)" fill="url(#SVGID_58_)" width="12.6" height="18.8"/>
							</g>
						</g>
					</g>
					<g clip-path="url(#SVGID_51_)">
						<g>
							<defs>
								<rect id="SVGID_59_" x="35" y="222.5" width="32.1" height="55.2"/>
							</defs>
							<clipPath id="SVGID_60_">
								<use xlink:href="#SVGID_59_"  overflow="visible"/>
							</clipPath>
							<g clip-path="url(#SVGID_60_)">
								<defs>
									<path id="SVGID_61_" d="M66.5,247.8l-13.8-23c-0.8-1.3-2.6-2.3-4.1-2.3h-6.2h-5.8c-1.5,0-2.1,1-1.3,2.3l13.8,23
										c0.8,1.3,0.8,3.3,0,4.6l-13.9,23.2c-0.5,1.1,0,2.1,1.4,2.1h5.8h6.2c1.5,0,3.3-1,4.1-2.3l10.7-17.9l3.1-5.1
										C67.3,251.1,67.3,249,66.5,247.8"/>
								</defs>
								<clipPath id="SVGID_62_">
									<use xlink:href="#SVGID_61_"  overflow="visible"/>
								</clipPath>
								<defs>
									<filter id="Adobe_OpacityMaskFilter_3_" filterUnits="userSpaceOnUse" x="34.6" y="222.5" width="32.7" height="55.2">
										<feColorMatrix  type="matrix" values="1 0 0 0 0  0 1 0 0 0  0 0 1 0 0  0 0 0 1 0"/>
									</filter>
								</defs>
								<mask maskUnits="userSpaceOnUse" x="34.6" y="222.5" width="32.7" height="55.2" id="SVGID_63_">
									<g filter="url(#Adobe_OpacityMaskFilter_3_)">
										
											<radialGradient id="SVGID_64_" cx="128.3" cy="28.5524" r="0.2827" gradientTransform="matrix(79.8353 0 0 -79.8353 -10191.8047 2529.5662)" gradientUnits="userSpaceOnUse">
											<stop  offset="0" style="stop-color:#1A1A1A"/>
											<stop  offset="0.2395" style="stop-color:#0D0D0D"/>
											<stop  offset="0.5779" style="stop-color:#030303"/>
											<stop  offset="1" style="stop-color:#000000"/>
										</radialGradient>
										<rect x="34.6" y="222.5" clip-path="url(#SVGID_62_)" fill="url(#SVGID_64_)" width="32.7" height="55.2"/>
									</g>
								</mask>
								
									<radialGradient id="SVGID_65_" cx="128.3" cy="28.5524" r="0.2827" gradientTransform="matrix(79.8353 0 0 -79.8353 -10191.8047 2529.5662)" gradientUnits="userSpaceOnUse">
									<stop  offset="0" style="stop-color:#FFFFFF"/>
									<stop  offset="1" style="stop-color:#FFFFFF"/>
								</radialGradient>
								
									<rect x="34.6" y="222.5" clip-path="url(#SVGID_62_)" mask="url(#SVGID_63_)" fill="url(#SVGID_65_)" width="32.7" height="55.2"/>
							</g>
						</g>
					</g>
				</g>
			</g>
		</g>
	</g>
</g>
<g id="Reticolo">
	<polygon fill="#0A9749" points="1132.8,158.2 1048.5,175.4 1060.6,143.2 	"/>
	<polygon fill="#6088CB" points="990.6,61.2 943.3,121.4 977.6,32.1 	"/>
	<polygon fill="#DD3629" points="943.2,121.4 990.6,61.2 1088.3,64.8 	"/>
	<polygon fill="#F8C728" points="1048.5,175.4 1186.1,300.6 1132.8,158.2 	"/>
	<polygon fill="#FFFFFF" points="1200.9,94.1 1163.3,72.7 1163,73.3 1200.9,94.9 	"/>
	<polyline fill="#FFFFFF" points="1163,72.7 1111.7,110.6 1112.1,111.2 1163.4,73.2 	"/>
	<polygon fill="#FFFFFF" points="1200.9,100.5 1200.9,99.8 1111.8,110.6 1111.9,111.2 	"/>
	<polygon fill="#FFFFFF" points="1200.9,160.1 1112.1,110.6 1111.7,111.2 1200.9,160.8 	"/>
	<polygon fill="#FFFFFF" points="1200.9,165.4 1132.9,157.9 1132.8,158.5 1200.9,166.1 	"/>
	<polyline fill="#FFFFFF" points="1111.6,111 1132.5,158.3 1133.1,158.1 1112.2,110.8 	"/>
	<polygon fill="#FFFFFF" points="1200.9,61 1200.9,60.3 1163.1,72.6 1163.3,73.3 	"/>
	<polyline fill="#FFFFFF" points="1163.2,72.6 1088.4,64.4 1088.3,65.1 1163.1,73.3 	"/>
	<polyline fill="#FFFFFF" points="1112.2,110.7 1088.6,64.6 1088,64.9 1111.6,111 	"/>
	<polyline fill="#FFFFFF" points="1111.7,110.6 1060.4,142.9 1060.8,143.5 1112.1,111.2 	"/>
	<polyline fill="#FFFFFF" points="1132.9,157.9 1060.7,142.9 1060.6,143.5 1132.8,158.5 	"/>
	<polyline fill="#FFFFFF" points="1060.3,143.1 1048.2,175.3 1048.8,175.5 1060.9,143.3 	"/>
	<polyline fill="#FFFFFF" points="1132.8,157.9 1048.4,175.1 1048.6,175.8 1132.9,158.5 	"/>
	<polygon fill="#FFFFFF" points="1200.9,228.3 1133.1,158 1132.6,158.4 1200.9,229.3 	"/>
	<polyline fill="#FFFFFF" points="1088.1,64.5 1018.2,119.2 1018.6,119.7 1088.5,65.1 	"/>
	<polyline fill="#FFFFFF" points="1018.2,119.7 1060.5,143.5 1060.8,142.9 1018.5,119.1 	"/>
	<polyline fill="#FFFFFF" points="1048.8,175.3 1018.7,119.3 1018.1,119.6 1048.2,175.6 	"/>
	<polyline fill="#FFFFFF" points="1088.2,64.5 943.1,121.1 943.4,121.7 1088.4,65.1 	"/>
	<polyline fill="#FFFFFF" points="1048.7,175.1 943.5,121.1 943.1,121.7 1048.4,175.7 	"/>
	<polygon fill="#FFFFFF" points="1018.4,119.8 1018.4,119.1 943.3,121 943.3,121.7 	"/>
	<polyline fill="#FFFFFF" points="1088.4,64.5 977.7,31.8 977.5,32.4 1088.2,65.1 	"/>
	<polyline fill="#FFFFFF" points="943.6,121.5 977.9,32.2 977.3,32 942.9,121.3 	"/>
	<polyline fill="#FFFFFF" points="943.6,121.3 902.4,-1.4 901.8,-1.2 942.9,121.5 	"/>
	<polyline fill="#FFFFFF" points="977.7,31.8 902.2,-1.6 901.9,-1 977.5,32.4 	"/>
	<polyline fill="#FFFFFF" points="1088.3,64.4 990.6,60.8 990.5,61.5 1088.3,65.1 	"/>
	<polyline fill="#FFFFFF" points="990.9,61 977.9,32 977.3,32.2 990.3,61.3 	"/>
	<polyline fill="#FFFFFF" points="943.5,121.6 990.8,61.4 990.3,61 943,121.2 	"/>
	<polyline fill="#FFFFFF" points="1088.5,65.1 1172.3,-0.4 1171.8,-0.9 1088.1,64.5 	"/>
	<polyline fill="#FFFFFF" points="1163.5,73 1172.4,-0.6 1171.7,-0.7 1162.8,72.9 	"/>
	<polyline fill="#FFFFFF" points="1048.3,175.7 1185.9,300.8 1186.3,300.3 1048.7,175.2 	"/>
	<polyline fill="#FFFFFF" points="977.8,32.4 1022.6,-0.6 1022.2,-1.1 977.4,31.8 	"/>
	<line fill="#FFFFFF" stroke="#FFFFFF" stroke-miterlimit="10" x1="1132.8" y1="158.2" x2="1186.1" y2="300.8"/>
</g>
</svg>
