<?xml version="1.0" encoding="utf-8"?>
<!-- Generator: Adobe Illustrator 15.1.0, SVG Export Plug-In . SVG Version: 6.00 Build 0)  -->
<!DOCTYPE svg PUBLIC "-//W3C//DTD SVG 1.1//EN" "http://www.w3.org/Graphics/SVG/1.1/DTD/svg11.dtd">
<svg version="1.1" xmlns="http://www.w3.org/2000/svg" xmlns:xlink="http://www.w3.org/1999/xlink" x="0px" y="0px" width="1200px"
	 height="300px" viewBox="0 0 1200 300" enable-background="new 0 0 1200 300" xml:space="preserve">
<g id="Livello_1">
	<rect y="-0.5" fill="#29ABE2" width="1200" height="300"/>
	<g display="none">
		<defs>
			<rect id="SVGID_1_" x="176" y="52.5" width="848.553" height="195.165"/>
		</defs>
		<clipPath id="SVGID_2_" display="inline">
			<use xlink:href="#SVGID_1_"  overflow="visible"/>
		</clipPath>
		<g clip-path="url(#SVGID_2_)">
			<text transform="matrix(1 0 0 1 638.1602 195.626)" display="inline"><tspan x="0" y="0" fill="#231F20" font-family="'OpenSans-Semibold'" font-size="130.0166" letter-spacing="-7">Mil</tspan><tspan x="169.474" y="0" fill="#231F20" font-family="'OpenSans-Semibold'" font-size="130.0166" letter-spacing="-7">a</tspan><tspan x="237.093" y="0" fill="#231F20" font-family="'OpenSans-Semibold'" font-size="130.0166" letter-spacing="-7">n</tspan><tspan x="311.951" y="0" fill="#231F20" font-family="'OpenSans-Semibold'" font-size="130.0166">o</tspan></text>
		</g>
		<g clip-path="url(#SVGID_2_)">
			<defs>
				<rect id="SVGID_3_" x="176" y="52.5" width="848.553" height="195.165"/>
			</defs>
			<clipPath id="SVGID_4_" display="inline">
				<use xlink:href="#SVGID_3_"  overflow="visible"/>
			</clipPath>
			<path display="inline" clip-path="url(#SVGID_4_)" fill="#231F20" d="M378.452,142.158h39.941v49.92
				c-10.851,3.723-22.759,5.566-35.781,5.566c-14.253,0-25.274-4.129-33.073-12.4c-7.801-8.27-11.677-20.09-11.677-35.426
				c0-14.928,4.25-26.542,12.789-34.866c8.53-8.328,20.468-12.434,35.836-12.434c5.832,0,11.317,0.526,16.476,1.639
				c5.196,1.087,9.711,2.467,13.556,4.138l-7.95,19.618c-6.66-3.289-13.986-4.93-21.968-4.93c-7.273,0-12.931,2.404-16.918,7.131
				c-4.019,4.751-5.982,11.519-5.982,20.353c0,8.651,1.787,15.248,5.426,19.789c3.575,4.549,8.765,6.781,15.571,6.781
				c3.725,0,7.152-0.329,10.261-1.066v-14.481h-16.507V142.158z"/>
			<path display="inline" clip-path="url(#SVGID_4_)" fill="#231F20" d="M484.667,149.026c0-8.507-1.67-14.782-5.012-18.887
				c-3.346-4.076-8.478-6.131-15.309-6.131h-7.274v51.854h5.575c7.622,0,13.192-2.205,16.713-6.63
				C482.909,164.862,484.667,158.086,484.667,149.026 M510.617,148.146c0,15.424-4.22,27.333-12.755,35.689
				c-8.474,8.357-20.433,12.524-35.832,12.524h-29.939v-92.557h32.02c14.837,0,26.307,3.818,34.396,11.408
				C506.602,122.786,510.617,133.778,510.617,148.146"/>
			<path display="inline" clip-path="url(#SVGID_4_)" fill="#231F20" d="M559.184,142.158h39.973v49.92
				c-10.854,3.723-22.786,5.566-35.777,5.566c-14.254,0-25.282-4.129-33.084-12.4c-7.771-8.27-11.667-20.09-11.667-35.426
				c0-14.928,4.248-26.542,12.782-34.866c8.506-8.328,20.467-12.434,35.836-12.434c5.808,0,11.321,0.526,16.51,1.639
				c5.133,1.087,9.654,2.467,13.489,4.138l-7.913,19.618c-6.658-3.289-13.993-4.93-21.967-4.93c-7.305,0-12.93,2.404-16.948,7.131
				c-3.963,4.751-5.957,11.519-5.957,20.353c0,8.651,1.789,15.248,5.394,19.789c3.609,4.549,8.798,6.781,15.6,6.781
				c3.725,0,7.163-0.329,10.27-1.066v-14.481h-16.541V142.158z"/>
		</g>
		<g display="inline" clip-path="url(#SVGID_2_)">
			<defs>
				<path id="SVGID_5_" d="M202.243,247.665h22.09c5.227,0,11.721-3.668,14.42-8.17l18.605-30.96
					c2.197-4.543,2.122-11.146-0.388-15.332l-10.99-18.188L202.243,247.665z"/>
			</defs>
			<clipPath id="SVGID_6_">
				<use xlink:href="#SVGID_5_"  overflow="visible"/>
			</clipPath>
			
				<radialGradient id="SVGID_7_" cx="130.9277" cy="32.2295" r="1" gradientTransform="matrix(108.6747 200.4074 200.4074 -108.6747 -20516.2012 -22687.9707)" gradientUnits="userSpaceOnUse">
				<stop  offset="0" style="stop-color:#FFCD4D"/>
				<stop  offset="1" style="stop-color:#F6C338"/>
			</radialGradient>
			<polygon clip-path="url(#SVGID_6_)" fill="url(#SVGID_7_)" points="246.532,150.998 289.999,231.156 215.266,271.682 
				171.799,191.523 			"/>
		</g>
		<g display="inline" clip-path="url(#SVGID_2_)">
			<defs>
				<path id="SVGID_8_" d="M225.987,158.26l-49.122,82.129c-1.896,4.059,0.076,7.276,4.95,7.276h20.428l43.737-72.649
					l-19.993-33.095C228.683,146.407,228.683,153.755,225.987,158.26"/>
			</defs>
			<clipPath id="SVGID_9_">
				<use xlink:href="#SVGID_8_"  overflow="visible"/>
			</clipPath>
			
				<radialGradient id="SVGID_10_" cx="130.9258" cy="32.2261" r="0.9989" gradientTransform="matrix(108.674 200.4061 200.4061 -108.674 -20514.5684 -22687.4512)" gradientUnits="userSpaceOnUse">
				<stop  offset="0" style="stop-color:#0DA960"/>
				<stop  offset="1" style="stop-color:#03914B"/>
			</radialGradient>
			<polygon clip-path="url(#SVGID_9_)" fill="url(#SVGID_10_)" points="229.844,112.164 290.292,223.637 191.105,277.422 
				130.657,165.949 			"/>
		</g>
		<g display="inline" clip-path="url(#SVGID_2_)">
			<defs>
				<path id="SVGID_11_" d="M181.815,52.5c-3.678,0-5.802,1.809-5.815,4.435v0.047c0.005,1.11,0.385,2.363,1.181,3.686
					l79.789,132.535c2.51,4.186,2.585,10.789,0.388,15.332l19.4-32.285L202.255,52.5H181.815z"/>
			</defs>
			<clipPath id="SVGID_12_">
				<use xlink:href="#SVGID_11_"  overflow="visible"/>
			</clipPath>
			
				<radialGradient id="SVGID_13_" cx="130.9248" cy="32.2271" r="1" gradientTransform="matrix(108.6723 200.403 200.403 -108.6723 -20514.9961 -22687.043)" gradientUnits="userSpaceOnUse">
				<stop  offset="0" style="stop-color:#4387FD"/>
				<stop  offset="1" style="stop-color:#4683EA"/>
			</radialGradient>
			<polygon clip-path="url(#SVGID_12_)" fill="url(#SVGID_13_)" points="253.862,10.278 342.144,173.078 198.896,250.758 
				110.614,87.957 			"/>
		</g>
		<g display="inline" clip-path="url(#SVGID_2_)">
			<defs>
				<path id="SVGID_14_" d="M202.255,52.5l74.503,123.75l10.797-17.99c2.7-4.505,2.7-11.853,0-16.339l-48.802-81.253
					c-2.699-4.486-9.193-8.168-14.42-8.168H202.255z"/>
			</defs>
			<clipPath id="SVGID_15_">
				<use xlink:href="#SVGID_14_"  overflow="visible"/>
			</clipPath>
			
				<radialGradient id="SVGID_16_" cx="130.9243" cy="32.2275" r="1.0003" gradientTransform="matrix(108.6655 200.3905 200.3905 -108.6655 -20513.9551 -22685.5723)" gradientUnits="userSpaceOnUse">
				<stop  offset="0" style="stop-color:#E04A3F"/>
				<stop  offset="1" style="stop-color:#CD372D"/>
			</radialGradient>
			<polygon clip-path="url(#SVGID_15_)" fill="url(#SVGID_16_)" points="270.258,15.624 342.112,148.13 222.252,213.126 
				150.398,80.621 			"/>
		</g>
		<g display="inline" clip-path="url(#SVGID_2_)">
			<defs>
				<rect id="SVGID_17_" x="176" y="52.5" width="848.553" height="195.165"/>
			</defs>
			<clipPath id="SVGID_18_">
				<use xlink:href="#SVGID_17_"  overflow="visible"/>
			</clipPath>
			<g clip-path="url(#SVGID_18_)">
				<g>
					<defs>
						<rect id="SVGID_19_" x="215.082" y="141.921" width="43.852" height="66.614"/>
					</defs>
					<clipPath id="SVGID_20_">
						<use xlink:href="#SVGID_19_"  overflow="visible"/>
					</clipPath>
					<g clip-path="url(#SVGID_20_)">
						<defs>
							<path id="SVGID_21_" d="M256.971,193.203l-30.984-51.282c2.697,4.486,2.697,11.835,0,16.339l-10.905,18.16l42.276,32.115
								C259.555,203.992,259.479,197.391,256.971,193.203"/>
						</defs>
						<clipPath id="SVGID_22_">
							<use xlink:href="#SVGID_21_"  overflow="visible"/>
						</clipPath>
						<defs>
							<filter id="Adobe_OpacityMaskFilter" filterUnits="userSpaceOnUse" x="215.082" y="141.921" width="44.473" height="66.614">
								<feColorMatrix  type="matrix" values="1 0 0 0 0  0 1 0 0 0  0 0 1 0 0  0 0 0 1 0"/>
							</filter>
						</defs>
						<mask maskUnits="userSpaceOnUse" x="215.082" y="141.921" width="44.473" height="66.614" id="SVGID_23_">
							<g filter="url(#Adobe_OpacityMaskFilter)">
								
									<linearGradient id="SVGID_24_" gradientUnits="userSpaceOnUse" x1="129.1694" y1="36.4248" x2="130.1688" y2="36.4248" gradientTransform="matrix(-54.9201 0 0 54.9201 7362.8315 -1825.2157)">
									<stop  offset="0" style="stop-color:#333333"/>
									<stop  offset="1" style="stop-color:#404040"/>
								</linearGradient>
								<rect x="215.082" y="141.921" clip-path="url(#SVGID_22_)" fill="url(#SVGID_24_)" width="44.473" height="66.614"/>
							</g>
						</mask>
						
							<linearGradient id="SVGID_25_" gradientUnits="userSpaceOnUse" x1="129.1685" y1="36.4238" x2="130.1679" y2="36.4238" gradientTransform="matrix(-54.9201 0 0 54.9201 7362.7378 -1825.1532)">
							<stop  offset="0" style="stop-color:#231F20"/>
							<stop  offset="1" style="stop-color:#F1F2F2"/>
						</linearGradient>
						
							<rect x="215.082" y="141.921" clip-path="url(#SVGID_22_)" mask="url(#SVGID_23_)" fill="url(#SVGID_25_)" width="44.473" height="66.614"/>
					</g>
				</g>
			</g>
			<g clip-path="url(#SVGID_18_)">
				<g>
					<defs>
						<rect id="SVGID_26_" x="176" y="52.5" width="113.58" height="195.165"/>
					</defs>
					<clipPath id="SVGID_27_">
						<use xlink:href="#SVGID_26_"  overflow="visible"/>
					</clipPath>
					<g clip-path="url(#SVGID_27_)">
						<defs>
							<path id="SVGID_28_" d="M287.555,141.921l-48.803-81.253c-2.697-4.486-9.192-8.168-14.419-8.168h-22.078h-20.44
								c-5.248,0-7.332,3.682-4.634,8.168l48.806,81.253c2.697,4.486,2.697,11.835,0,16.339l-49.122,82.129
								c-1.896,4.057,0.076,7.276,4.95,7.276h20.428h22.09c5.227,0,11.722-3.668,14.419-8.17l38.005-63.245l10.798-17.99
								C290.255,153.756,290.255,146.407,287.555,141.921"/>
						</defs>
						<clipPath id="SVGID_29_">
							<use xlink:href="#SVGID_28_"  overflow="visible"/>
						</clipPath>
						<defs>
							
								<filter id="Adobe_OpacityMaskFilter_1_" filterUnits="userSpaceOnUse" x="174.483" y="52.5" width="115.772" height="195.165">
								<feColorMatrix  type="matrix" values="1 0 0 0 0  0 1 0 0 0  0 0 1 0 0  0 0 0 1 0"/>
							</filter>
						</defs>
						<mask maskUnits="userSpaceOnUse" x="174.483" y="52.5" width="115.772" height="195.165" id="SVGID_30_">
							<g filter="url(#Adobe_OpacityMaskFilter_1_)">
								
									<radialGradient id="SVGID_31_" cx="130.5815" cy="29.8096" r="0.9997" gradientTransform="matrix(79.8353 0 0 -79.8353 -10192.2764 2529.9597)" gradientUnits="userSpaceOnUse">
									<stop  offset="0" style="stop-color:#1A1A1A"/>
									<stop  offset="0.2395" style="stop-color:#0D0D0D"/>
									<stop  offset="0.5779" style="stop-color:#030303"/>
									<stop  offset="1" style="stop-color:#000000"/>
								</radialGradient>
								<rect x="174.483" y="52.5" clip-path="url(#SVGID_29_)" fill="url(#SVGID_31_)" width="115.772" height="195.165"/>
							</g>
						</mask>
						
							<radialGradient id="SVGID_32_" cx="130.5815" cy="29.8096" r="0.9997" gradientTransform="matrix(79.8353 0 0 -79.8353 -10192.2764 2529.9597)" gradientUnits="userSpaceOnUse">
							<stop  offset="0" style="stop-color:#FFFFFF"/>
							<stop  offset="1" style="stop-color:#FFFFFF"/>
						</radialGradient>
						
							<rect x="174.483" y="52.5" clip-path="url(#SVGID_29_)" mask="url(#SVGID_30_)" fill="url(#SVGID_32_)" width="115.772" height="195.165"/>
					</g>
				</g>
			</g>
		</g>
	</g>
	<rect x="176" y="52.5" fill="none" width="848.553" height="195.165"/>
</g>
<g id="Livello_2">
	<path fill="#0071BC" d="M767.928,140.984l98.626,3.389l92.832,71.837L767.928,140.984z"/>
	<path fill="#009245" d="M1199.085,90.186l-79.994,80.651l-128.58-15.444l133.216-73.859L1199.085,90.186z"/>
	<path fill="#FCEE21" d="M959.386,215.357l31.125-59.965l67.02,50.493L959.386,215.357z"/>
	<path fill="#ED1C24" d="M922.854,112.718l95.064-19.338l-27.408,62.013L922.854,112.718z"/>
	
		<line fill="none" stroke="#FFFFFF" stroke-width="1.4" stroke-miterlimit="10" x1="1200.361" y1="204.501" x2="1119.091" y2="170.837"/>
	
		<line fill="none" stroke="#FFFFFF" stroke-width="1.4" stroke-miterlimit="10" x1="1118.783" y1="171.143" x2="1057.53" y2="205.427"/>
	
		<line fill="none" stroke="#FFFFFF" stroke-width="1.4" stroke-miterlimit="10" x1="1200.361" y1="253.037" x2="1118.464" y2="170.837"/>
	
		<line fill="none" stroke="#FFFFFF" stroke-width="1.4" stroke-miterlimit="10" x1="1058.132" y1="205.886" x2="990.47" y2="155.393"/>
	<g>
		<g>
			
				<line fill="none" stroke="#FFFFFF" stroke-width="1.4" stroke-miterlimit="10" x1="1200.361" y1="90.186" x2="1119.541" y2="170.391"/>
			<g>
				<circle fill="#FFFFFF" cx="1119.69" cy="170.242" r="4.211"/>
			</g>
		</g>
	</g>
	
		<line fill="none" stroke="#FFFFFF" stroke-width="1.4" stroke-miterlimit="10" x1="1200.361" y1="90.186" x2="1121.171" y2="81.245"/>
	
		<line fill="none" stroke="#FFFFFF" stroke-width="1.4" stroke-miterlimit="10" x1="1200.361" y1="38.457" x2="1121.171" y2="81.245"/>
	
		<line fill="none" stroke="#FFFFFF" stroke-width="1.4" stroke-miterlimit="10" x1="990.47" y1="155.393" x2="1118.783" y2="171.143"/>
	<g>
		<g>
			
				<line fill="none" stroke="#FFFFFF" stroke-width="1.4" stroke-miterlimit="10" x1="1123.727" y1="81.245" x2="991.83" y2="154.659"/>
			<g>
				<circle fill="#FFFFFF" cx="992.015" cy="154.557" r="4.211"/>
			</g>
		</g>
	</g>
	<g>
		<g>
			
				<line fill="none" stroke="#FFFFFF" stroke-width="1.4" stroke-miterlimit="10" x1="1014.52" y1="93.379" x2="1119.751" y2="81.687"/>
			<g>
				<circle fill="#FFFFFF" cx="1119.542" cy="81.71" r="4.211"/>
			</g>
		</g>
	</g>
	
		<line fill="none" stroke="#FFFFFF" stroke-width="1.4" stroke-miterlimit="10" x1="990.511" y1="155.393" x2="1018.095" y2="92.982"/>
	<g>
		<g>
			
				<line fill="none" stroke="#FFFFFF" stroke-width="1.4" stroke-miterlimit="10" x1="1200.361" y1="253.037" x2="1058.549" y2="205.766"/>
			<g>
				<circle fill="#FFFFFF" cx="1058.749" cy="205.833" r="4.211"/>
			</g>
		</g>
	</g>
	<g>
		<g>
			
				<line fill="none" stroke="#FFFFFF" stroke-width="1.4" stroke-miterlimit="10" x1="1057.53" y1="205.427" x2="961.021" y2="215.578"/>
			<g>
				<circle fill="#FFFFFF" cx="961.229" cy="215.556" r="4.211"/>
			</g>
		</g>
	</g>
	
		<line fill="none" stroke="#FFFFFF" stroke-width="1.4" stroke-miterlimit="10" x1="990.47" y1="155.393" x2="959.916" y2="215.996"/>
	
		<line fill="none" stroke="#FFFFFF" stroke-width="1.4" stroke-miterlimit="10" x1="990.47" y1="155.393" x2="922.854" y2="112.779"/>
	<g>
		<g>
			
				<line fill="none" stroke="#FFFFFF" stroke-width="1.4" stroke-miterlimit="10" x1="1018.095" y1="92.982" x2="924.557" y2="112.366"/>
			<g>
				<circle fill="#FFFFFF" cx="924.763" cy="112.323" r="4.211"/>
			</g>
		</g>
	</g>
	
		<line fill="none" stroke="#FFFFFF" stroke-width="1.4" stroke-miterlimit="10" x1="922.854" y1="112.779" x2="906.87" y2="70.264"/>
	<g>
		<g>
			
				<line fill="none" stroke="#FFFFFF" stroke-width="1.4" stroke-miterlimit="10" x1="1018.095" y1="92.982" x2="908.275" y2="70.551"/>
			<g>
				<circle fill="#FFFFFF" cx="908.481" cy="70.593" r="4.211"/>
			</g>
		</g>
	</g>
	<g>
		<g>
			
				<line fill="none" stroke="#FFFFFF" stroke-width="1.4" stroke-miterlimit="10" x1="1167.792" y1="-0.5" x2="1015.439" y2="94.877"/>
			<g>
				<circle fill="#FFFFFF" cx="1015.618" cy="94.766" r="4.211"/>
			</g>
		</g>
	</g>
	<g>
		<g>
			
				<line fill="none" stroke="#FFFFFF" stroke-width="1.4" stroke-miterlimit="10" x1="959.916" y1="215.996" x2="868.242" y2="145.003"/>
			<g>
				<circle fill="#FFFFFF" cx="868.408" cy="145.132" r="4.211"/>
			</g>
		</g>
	</g>
	
		<line fill="none" stroke="#FFFFFF" stroke-width="1.4" stroke-miterlimit="10" x1="922.854" y1="112.779" x2="867.095" y2="144.115"/>
	
		<line fill="none" stroke="#FFFFFF" stroke-width="1.4" stroke-miterlimit="10" x1="906.87" y1="70.264" x2="867.095" y2="144.115"/>
	
		<line fill="none" stroke="#FFFFFF" stroke-width="1.4" stroke-miterlimit="10" x1="959.916" y1="215.996" x2="767.999" y2="141.549"/>
	<g>
		<g>
			
				<line fill="none" stroke="#FFFFFF" stroke-width="1.4" stroke-miterlimit="10" x1="906.87" y1="70.264" x2="769.649" y2="140.727"/>
			<g>
				<circle fill="#FFFFFF" cx="769.837" cy="140.63" r="4.211"/>
			</g>
		</g>
	</g>
	<line fill="none" stroke="#FFFFFF" stroke-width="1.4" stroke-miterlimit="10" x1="867.095" y1="144.35" x2="769.041" y2="141"/>
	<g>
		<g>
			
				<line fill="none" stroke="#FFFFFF" stroke-width="1.4" stroke-miterlimit="10" x1="959.916" y1="215.996" x2="814.631" y2="258.929"/>
			<g>
				<circle fill="#FFFFFF" cx="814.833" cy="258.869" r="4.211"/>
			</g>
		</g>
	</g>
	
		<line fill="none" stroke="#FFFFFF" stroke-width="1.4" stroke-miterlimit="10" x1="767.999" y1="141.549" x2="813.318" y2="259.316"/>
	<line fill="none" stroke="#FFFFFF" stroke-width="1.4" stroke-miterlimit="10" x1="767.999" y1="141.549" x2="715" y2="299.658"/>
	<line fill="none" stroke="#FFFFFF" stroke-width="1.4" stroke-miterlimit="10" x1="810.795" y1="260.062" x2="715" y2="299.658"/>
	<g>
		<g>
			
				<line fill="none" stroke="#FFFFFF" stroke-width="1.4" stroke-miterlimit="10" x1="957.042" y1="215.996" x2="831.396" y2="220.949"/>
			<g>
				<circle fill="#FFFFFF" cx="831.607" cy="220.94" r="4.211"/>
			</g>
		</g>
	</g>
	
		<line fill="none" stroke="#FFFFFF" stroke-width="1.4" stroke-miterlimit="10" x1="830.417" y1="220.987" x2="813.318" y2="259.316"/>
	
		<line fill="none" stroke="#FFFFFF" stroke-width="1.4" stroke-miterlimit="10" x1="767.999" y1="141.549" x2="830.417" y2="220.987"/>
	
		<line fill="none" stroke="#FFFFFF" stroke-width="1.4" stroke-miterlimit="10" x1="959.386" y1="216.21" x2="1069.122" y2="299.658"/>
	
		<line fill="none" stroke="#FFFFFF" stroke-width="1.4" stroke-miterlimit="10" x1="1057.53" y1="205.427" x2="1069.122" y2="299.658"/>
	<line fill="none" stroke="#FFFFFF" stroke-width="1.4" stroke-miterlimit="10" x1="906.87" y1="70.264" x2="994.722" y2="-0.5"/>
	<line fill="none" stroke="#FFFFFF" stroke-width="1.4" stroke-miterlimit="10" x1="1016.178" y1="93.379" x2="994.722" y2="-0.5"/>
	
		<line fill="none" stroke="#FFFFFF" stroke-width="1.4" stroke-miterlimit="10" x1="813.318" y1="259.316" x2="885.355" y2="299.658"/>
</g>
<g id="Livello_3">
</g>
</svg>
