<?xml version="1.0" encoding="utf-8"?>
<!-- Generator: Adobe Illustrator 18.0.0, SVG Export Plug-In . SVG Version: 6.00 Build 0)  -->
<!DOCTYPE svg PUBLIC "-//W3C//DTD SVG 1.1//EN" "http://www.w3.org/Graphics/SVG/1.1/DTD/svg11.dtd">
<svg version="1.1" xmlns="http://www.w3.org/2000/svg" xmlns:xlink="http://www.w3.org/1999/xlink" x="0px" y="0px"
	 viewBox="0 0 1200 300" enable-background="new 0 0 1200 300" xml:space="preserve">
<g id="Sfondo">
	<rect y="-0.5" fill="#FBB03B" width="1200" height="300"/>
	<linearGradient id="SVGID_1_" gradientUnits="userSpaceOnUse" x1="918.499" y1="348.1362" x2="846.5949" y2="-59.6522">
		<stop  offset="0" style="stop-color:#231F20;stop-opacity:0"/>
		<stop  offset="1" style="stop-color:#231F20"/>
		<stop  offset="1" style="stop-color:#231F20;stop-opacity:0"/>
	</linearGradient>
	<polyline opacity="0.1" fill="url(#SVGID_1_)" points="1197.041,0.147 1200,-0.5 1200,298.5 696,300 513.9619,-1 	"/>
	<polyline display="none" opacity="0.05" points="1197.041,0.147 1200,-0.5 1200,298.5 696,300 513.9619,-1 	"/>
</g>
<g id="Content" display="none">
	
		<text transform="matrix(1 0 0 1 719.478 263.0771)" display="inline" fill="#FFFFFF" font-family="'OpenSans-Semibold'" font-size="42">19 Marzo 2015</text>
	<text transform="matrix(1 0 0 1 30.0127 148.4556)" display="inline" fill="#FFFFFF" font-family="'OpenSans'" font-size="44">Improves battery life</text>
	
		<text transform="matrix(1 0 0 1 31.0127 99.9023)" display="inline" fill="#FFFFFF" font-family="'OpenSans-Extrabold'" font-size="64">MPower</text>
	<text transform="matrix(1 0 0 1 31.9648 42.4717)" display="inline" fill="#FFFFFF" font-family="'OpenSans'" font-size="21">GDG Milano presents:</text>
	<g>
		<g display="inline">
			<defs>
				<rect id="SVGID_2_" x="-53.4673" y="-48.9082" width="234.0249" height="402.1309"/>
			</defs>
			<clipPath id="SVGID_3_">
				<use xlink:href="#SVGID_2_"  overflow="visible"/>
			</clipPath>
			<g clip-path="url(#SVGID_3_)">
				<defs>
					<rect id="SVGID_4_" x="-53.4673" y="-48.9082" width="234.0249" height="402.1309"/>
				</defs>
				<clipPath id="SVGID_5_">
					<use xlink:href="#SVGID_4_"  overflow="visible"/>
				</clipPath>
				<g clip-path="url(#SVGID_5_)">
					<defs>
						<rect id="SVGID_6_" x="-53.4673" y="-48.9082" width="234.0249" height="402.1309"/>
					</defs>
					<clipPath id="SVGID_7_">
						<use xlink:href="#SVGID_6_"  overflow="visible"/>
					</clipPath>
					<path clip-path="url(#SVGID_7_)" fill="#FFFFFF" d="M90.7163,203.5293L0.6074,353.2227h45.5113
						c10.7719,0,24.1484-7.5557,29.7055-16.8321l38.3433-63.7949c4.5215-9.3516,4.373-22.9609-0.8101-31.5898L90.7163,203.5293z"/>
				</g>
				<g clip-path="url(#SVGID_5_)">
					<defs>
						<path id="SVGID_8_" d="M49.5312,169.0078L-51.6851,338.2344c-3.9135,8.3594,0.1504,14.9883,10.1929,14.9883H0.606
							l90.1103-149.6934l-41.1851-68.1816C55.0869,144.584,55.0869,159.7295,49.5312,169.0078"/>
					</defs>
					<clipPath id="SVGID_9_">
						<use xlink:href="#SVGID_8_"  overflow="visible"/>
					</clipPath>
					
						<radialGradient id="SVGID_10_" cx="128.2618" cy="29.4969" r="0.7947" gradientTransform="matrix(116.1371 0 0 -116.1371 -14877.1309 3669.9714)" gradientUnits="userSpaceOnUse">
						<stop  offset="0" style="stop-color:#E0E1E2"/>
						<stop  offset="1" style="stop-color:#D5D7D8"/>
					</radialGradient>
					<rect x="-55.5986" y="135.3477" clip-path="url(#SVGID_9_)" fill="url(#SVGID_10_)" width="146.3149" height="217.875"/>
				</g>
				<g clip-path="url(#SVGID_5_)">
					<defs>
						<rect id="SVGID_11_" x="-53.4673" y="-48.9082" width="234.0249" height="402.1309"/>
					</defs>
					<clipPath id="SVGID_12_">
						<use xlink:href="#SVGID_11_"  overflow="visible"/>
					</clipPath>
					<path clip-path="url(#SVGID_12_)" fill="#FFFFFF" d="M-41.4922-48.9082c-10.8071,0-15.1001,7.5903-9.5425,16.832
						l164.3921,273.0821c5.1831,8.6289,5.3316,22.2382,0.8101,31.5898l39.9682-66.5156L0.6289-48.9082H-41.4922z"/>
				</g>
				<g clip-path="url(#SVGID_5_)">
					<defs>
						<path id="SVGID_13_" d="M0.6289-48.9082l153.5068,254.9883l22.2525-37.0723c5.5566-9.2783,5.5566-24.4238,0-33.6601
							L75.8242-32.0762c-5.5576-9.2417-18.9326-16.832-29.7055-16.832H0.6289z"/>
					</defs>
					<clipPath id="SVGID_14_">
						<use xlink:href="#SVGID_13_"  overflow="visible"/>
					</clipPath>
					
						<radialGradient id="SVGID_15_" cx="128.4113" cy="29.6794" r="0.7949" gradientTransform="matrix(138.8162 0 0 -138.8162 -17735.0371 4198.5635)" gradientUnits="userSpaceOnUse">
						<stop  offset="0" style="stop-color:#E0E1E2"/>
						<stop  offset="1" style="stop-color:#D5D7D8"/>
					</radialGradient>
					<rect x="0.6289" y="-48.9082" clip-path="url(#SVGID_14_)" fill="url(#SVGID_15_)" width="181.3159" height="254.9883"/>
				</g>
				<g clip-path="url(#SVGID_5_)">
					<defs>
						<rect id="SVGID_16_" x="-53.4673" y="-48.9082" width="234.0249" height="402.1309"/>
					</defs>
					<clipPath id="SVGID_17_">
						<use xlink:href="#SVGID_16_"  overflow="visible"/>
					</clipPath>
					<g clip-path="url(#SVGID_17_)">
						<g>
							<defs>
								<rect id="SVGID_18_" x="27.0605" y="135.3477" width="90.3506" height="137.248"/>
							</defs>
							<clipPath id="SVGID_19_">
								<use xlink:href="#SVGID_18_"  overflow="visible"/>
							</clipPath>
							<g clip-path="url(#SVGID_19_)">
								<defs>
									<path id="SVGID_20_" d="M113.3574,241.0059L49.5312,135.3477c5.5557,9.2363,5.5557,24.3798,0,33.6601l-22.4707,37.419
										l87.107,66.1689C118.689,263.2441,118.5405,249.6348,113.3574,241.0059"/>
								</defs>
								<clipPath id="SVGID_21_">
									<use xlink:href="#SVGID_20_"  overflow="visible"/>
								</clipPath>
								<defs>
									
										<filter id="Adobe_OpacityMaskFilter" filterUnits="userSpaceOnUse" x="27.0605" y="135.3477" width="91.6285" height="137.248">
										<feColorMatrix  type="matrix" values="1 0 0 0 0  0 1 0 0 0  0 0 1 0 0  0 0 0 1 0"/>
									</filter>
								</defs>
								<mask maskUnits="userSpaceOnUse" x="27.0605" y="135.3477" width="91.6285" height="137.248" id="SVGID_22_">
									<g filter="url(#Adobe_OpacityMaskFilter)">
										
											<linearGradient id="SVGID_23_" gradientUnits="userSpaceOnUse" x1="131.6341" y1="35.024" x2="132.4287" y2="35.024" gradientTransform="matrix(-142.3638 0 0 142.3638 18877.6797 -4782.1831)">
											<stop  offset="0" style="stop-color:#333333"/>
											<stop  offset="1" style="stop-color:#404040"/>
										</linearGradient>
										<rect x="27.0605" y="135.3477" clip-path="url(#SVGID_21_)" fill="url(#SVGID_23_)" width="91.6285" height="137.248"/>
									</g>
								</mask>
								
									<linearGradient id="SVGID_24_" gradientUnits="userSpaceOnUse" x1="131.6341" y1="35.024" x2="132.4287" y2="35.024" gradientTransform="matrix(-142.3638 0 0 142.3638 18877.6797 -4782.1831)">
									<stop  offset="0" style="stop-color:#231F20"/>
									<stop  offset="1" style="stop-color:#F1F2F2"/>
								</linearGradient>
								
									<rect x="27.0605" y="135.3477" clip-path="url(#SVGID_21_)" mask="url(#SVGID_22_)" fill="url(#SVGID_24_)" width="91.6285" height="137.248"/>
							</g>
						</g>
					</g>
					<g clip-path="url(#SVGID_17_)">
						<g>
							<defs>
								<rect id="SVGID_25_" x="-53.4673" y="-48.9082" width="234.0249" height="402.1309"/>
							</defs>
							<clipPath id="SVGID_26_">
								<use xlink:href="#SVGID_25_"  overflow="visible"/>
							</clipPath>
							<g clip-path="url(#SVGID_26_)">
								<defs>
									<path id="SVGID_27_" d="M176.3882,135.3477L75.8242-32.0762c-5.5576-9.2417-18.9326-16.832-29.7055-16.832H0.6289h-42.1211
										c-10.8071,0-15.1016,7.5903-9.5425,16.832L49.5312,135.3477c5.5557,9.2363,5.5557,24.3798,0,33.6601L-51.6851,338.2344
										c-3.9135,8.3594,0.1504,14.9883,10.1929,14.9883H0.606h45.5127c10.7729,0,24.1479-7.5557,29.7055-16.8321l78.3115-130.3105
										l22.2525-37.0723C181.9458,159.7275,181.9458,144.584,176.3882,135.3477"/>
								</defs>
								<clipPath id="SVGID_28_">
									<use xlink:href="#SVGID_27_"  overflow="visible"/>
								</clipPath>
								<defs>
									
										<filter id="Adobe_OpacityMaskFilter_1_" filterUnits="userSpaceOnUse" x="-56.5938" y="-48.9082" width="238.5396" height="402.1309">
										<feColorMatrix  type="matrix" values="1 0 0 0 0  0 1 0 0 0  0 0 1 0 0  0 0 0 1 0"/>
									</filter>
								</defs>
								<mask maskUnits="userSpaceOnUse" x="-56.5938" y="-48.9082" width="238.5396" height="402.1309" id="SVGID_29_">
									<g filter="url(#Adobe_OpacityMaskFilter_1_)">
										
											<radialGradient id="SVGID_30_" cx="128.9672" cy="30.699" r="0.7947" gradientTransform="matrix(206.9571 0 0 -206.9571 -26627.1211 6505.5352)" gradientUnits="userSpaceOnUse">
											<stop  offset="0" style="stop-color:#1A1A1A"/>
											<stop  offset="0.2395" style="stop-color:#0D0D0D"/>
											<stop  offset="0.5779" style="stop-color:#030303"/>
											<stop  offset="1" style="stop-color:#000000"/>
										</radialGradient>
										
											<rect x="-56.5938" y="-48.9082" clip-path="url(#SVGID_28_)" fill="url(#SVGID_30_)" width="238.5411" height="402.1309"/>
									</g>
								</mask>
								
									<radialGradient id="SVGID_31_" cx="128.9699" cy="30.7017" r="0.7949" gradientTransform="matrix(206.957 0 0 -206.957 -26627.5918 6506.0894)" gradientUnits="userSpaceOnUse">
									<stop  offset="0" style="stop-color:#FFFFFF"/>
									<stop  offset="0.0896" style="stop-color:#FFFFFF"/>
									<stop  offset="1" style="stop-color:#FFFFFF"/>
								</radialGradient>
								
									<rect x="-56.5938" y="-48.9082" clip-path="url(#SVGID_28_)" mask="url(#SVGID_29_)" fill="url(#SVGID_31_)" width="238.5396" height="402.1309"/>
							</g>
						</g>
					</g>
				</g>
			</g>
		</g>
	</g>
	<g display="inline">
		<g>
			<defs>
				<rect id="SVGID_32_" x="35.0132" y="222.4928" width="239.8825" height="55.1724"/>
			</defs>
			<clipPath id="SVGID_33_">
				<use xlink:href="#SVGID_32_"  overflow="visible"/>
			</clipPath>
			<g clip-path="url(#SVGID_33_)">
				<defs>
					<rect id="SVGID_34_" x="35.0132" y="222.4928" width="239.8825" height="55.1724"/>
				</defs>
				<clipPath id="SVGID_35_">
					<use xlink:href="#SVGID_34_"  overflow="visible"/>
				</clipPath>
				<g clip-path="url(#SVGID_35_)">
					<text transform="matrix(1 0 0 1 165.6643 262.9536)"><tspan x="0" y="0" fill="#231F20" font-family="'OpenSans-Semibold'" font-size="36.7552" letter-spacing="-2">Mil</tspan><tspan x="47.9092" y="0" fill="#231F20" font-family="'OpenSans-Semibold'" font-size="36.7552" letter-spacing="-2">a</tspan><tspan x="67.0249" y="0" fill="#231F20" font-family="'OpenSans-Semibold'" font-size="36.7552" letter-spacing="-2">n</tspan><tspan x="88.187" y="0" fill="#231F20" font-family="'OpenSans-Semibold'" font-size="36.7552">o</tspan></text>
				</g>
				<g clip-path="url(#SVGID_35_)">
					<defs>
						<rect id="SVGID_36_" x="35.0132" y="222.4928" width="239.8825" height="55.1724"/>
					</defs>
					<clipPath id="SVGID_37_">
						<use xlink:href="#SVGID_36_"  overflow="visible"/>
					</clipPath>
					<path clip-path="url(#SVGID_37_)" fill="#231F20" d="M92.2456,247.8389h11.2912v14.1122
						c-3.0675,1.0525-6.4339,1.5738-10.1152,1.5738c-4.0293,0-7.1449-1.1675-9.3496-3.5057
						c-2.2053-2.3379-3.301-5.6794-3.301-10.0148c0-4.2201,1.2015-7.5033,3.6154-9.8565c2.4114-2.3543,5.7862-3.515,10.1307-3.515
						c1.6487,0,3.1993,0.1487,4.6577,0.4633c1.4689,0.3073,2.7453,0.6974,3.8322,1.1698l-2.2474,5.5459
						c-1.8828-0.9298-3.9538-1.3937-6.2103-1.3937c-2.056,0-3.6555,0.6796-4.7826,2.0159
						c-1.1362,1.3431-1.6911,3.2564-1.6911,5.7537c0,2.4456,0.5052,4.3105,1.5339,5.5943c1.0106,1.2857,2.4778,1.917,4.4019,1.917
						c1.053,0,2.0218-0.093,2.9007-0.3014v-4.094h-4.6665V247.8389z"/>
					<path clip-path="url(#SVGID_37_)" fill="#231F20" d="M122.2722,249.7805c0-2.4049-0.4721-4.1788-1.4169-5.3393
						c-0.9459-1.1523-2.3967-1.7332-4.3278-1.7332h-2.0563v14.6589h1.576c2.1547,0,3.7293-0.6233,4.7247-1.8743
						C121.7752,254.2572,122.2722,252.3417,122.2722,249.7805 M129.6082,249.5317c0,4.3603-1.193,7.7269-3.6058,10.0891
						c-2.3956,2.3628-5.7763,3.5408-10.1296,3.5408h-8.4636v-26.1655h9.0519c4.1944,0,7.4369,1.0793,9.7236,3.225
						C128.4731,242.3622,129.6082,245.4699,129.6082,249.5317"/>
					<path clip-path="url(#SVGID_37_)" fill="#231F20" d="M143.3377,247.8389h11.3002v14.1122
						c-3.0684,1.0525-6.4415,1.5738-10.114,1.5738c-4.0296,0-7.1471-1.1675-9.3527-3.5057
						c-2.1968-2.3379-3.2982-5.6794-3.2982-10.0148c0-4.2201,1.2009-7.5033,3.6134-9.8565c2.4046-2.3543,5.7859-3.515,10.1307-3.515
						c1.6419,0,3.2004,0.1487,4.6673,0.4633c1.4511,0.3073,2.7291,0.6974,3.8133,1.1698l-2.237,5.5459
						c-1.8822-0.9298-3.9558-1.3937-6.21-1.3937c-2.0651,0-3.6553,0.6796-4.7911,2.0159c-1.1203,1.3431-1.684,3.2564-1.684,5.7537
						c0,2.4456,0.5057,4.3105,1.5249,5.5943c1.0203,1.2857,2.4872,1.917,4.4101,1.917c1.053,0,2.0249-0.093,2.9033-0.3014v-4.094
						h-4.6761V247.8389z"/>
				</g>
				<g clip-path="url(#SVGID_35_)">
					<defs>
						<path id="SVGID_38_" d="M42.432,277.6652h6.2448c1.4777,0,3.3135-1.0369,4.0765-2.3096l5.2596-8.7523
							c0.6211-1.2843,0.5999-3.1509-0.1097-4.3343l-3.1068-5.1417L42.432,277.6652z"/>
					</defs>
					<clipPath id="SVGID_39_">
						<use xlink:href="#SVGID_38_"  overflow="visible"/>
					</clipPath>
					
						<radialGradient id="SVGID_40_" cx="131.3043" cy="31.3347" r="0.2827" gradientTransform="matrix(108.6747 200.4074 200.4074 -108.6747 -20515.4102 -22687.707)" gradientUnits="userSpaceOnUse">
						<stop  offset="0" style="stop-color:#FFCD4D"/>
						<stop  offset="1" style="stop-color:#F6C338"/>
					</radialGradient>
					<polygon clip-path="url(#SVGID_39_)" fill="url(#SVGID_40_)" points="54.9522,250.338 67.2402,272.9983 46.1136,284.4545 
						33.8257,261.7943 					"/>
				</g>
				<g clip-path="url(#SVGID_35_)">
					<defs>
						<path id="SVGID_41_" d="M49.1443,252.3908L35.2578,275.608c-0.536,1.1475,0.0215,2.0572,1.3993,2.0572h5.7749l12.3643-20.5378
							l-5.6519-9.3556C49.9065,249.04,49.9065,251.1172,49.1443,252.3908"/>
					</defs>
					<clipPath id="SVGID_42_">
						<use xlink:href="#SVGID_41_"  overflow="visible"/>
					</clipPath>
					
						<radialGradient id="SVGID_43_" cx="131.3043" cy="31.3347" r="0.2827" gradientTransform="matrix(108.674 200.4061 200.4061 -108.674 -20515.2637 -22687.5527)" gradientUnits="userSpaceOnUse">
						<stop  offset="0" style="stop-color:#0DA960"/>
						<stop  offset="1" style="stop-color:#03914B"/>
					</radialGradient>
					<polygon clip-path="url(#SVGID_42_)" fill="url(#SVGID_43_)" points="50.2346,239.3596 67.323,270.8724 39.2834,286.0774 
						22.195,254.5647 					"/>
				</g>
				<g clip-path="url(#SVGID_35_)">
					<defs>
						<path id="SVGID_44_" d="M36.6571,222.4928c-1.0398,0-1.6402,0.5114-1.6439,1.2538v0.0133
							c0.0014,0.3138,0.1088,0.668,0.3339,1.042l22.556,37.4671c0.7096,1.1834,0.7308,3.05,0.1097,4.3343l5.4843-9.1268
							l-21.0617-34.9836H36.6571z"/>
					</defs>
					<clipPath id="SVGID_45_">
						<use xlink:href="#SVGID_44_"  overflow="visible"/>
					</clipPath>
					
						<radialGradient id="SVGID_46_" cx="131.3043" cy="31.3347" r="0.2827" gradientTransform="matrix(108.6723 200.403 200.403 -108.6723 -20514.9531 -22687.2051)" gradientUnits="userSpaceOnUse">
						<stop  offset="0" style="stop-color:#4387FD"/>
						<stop  offset="1" style="stop-color:#4683EA"/>
					</radialGradient>
					<polygon clip-path="url(#SVGID_45_)" fill="url(#SVGID_46_)" points="57.0245,210.5568 81.9814,256.5798 41.4858,278.5394 
						16.5289,232.5163 					"/>
				</g>
				<g clip-path="url(#SVGID_35_)">
					<defs>
						<path id="SVGID_47_" d="M42.4354,222.4928l21.0617,34.9836l3.0523-5.0857c0.7633-1.2735,0.7633-3.3508,0-4.619
							l-13.7961-22.9699c-0.763-1.2682-2.5988-2.3091-4.0765-2.3091H42.4354z"/>
					</defs>
					<clipPath id="SVGID_48_">
						<use xlink:href="#SVGID_47_"  overflow="visible"/>
					</clipPath>
					
						<radialGradient id="SVGID_49_" cx="131.3044" cy="31.3346" r="0.2827" gradientTransform="matrix(108.6655 200.3905 200.3905 -108.6655 -20513.6543 -22685.7949)" gradientUnits="userSpaceOnUse">
						<stop  offset="0" style="stop-color:#E04A3F"/>
						<stop  offset="1" style="stop-color:#CD372D"/>
					</radialGradient>
					<polygon clip-path="url(#SVGID_48_)" fill="url(#SVGID_49_)" points="61.6596,212.0681 81.9724,249.5269 48.0884,267.9012 
						27.7757,230.4424 					"/>
				</g>
				<g clip-path="url(#SVGID_35_)">
					<defs>
						<rect id="SVGID_50_" x="35.0132" y="222.4928" width="239.8825" height="55.1724"/>
					</defs>
					<clipPath id="SVGID_51_">
						<use xlink:href="#SVGID_50_"  overflow="visible"/>
					</clipPath>
					<g clip-path="url(#SVGID_51_)">
						<g>
							<defs>
								<rect id="SVGID_52_" x="46.0615" y="247.7718" width="12.3967" height="18.8315"/>
							</defs>
							<clipPath id="SVGID_53_">
								<use xlink:href="#SVGID_52_"  overflow="visible"/>
							</clipPath>
							<g clip-path="url(#SVGID_53_)">
								<defs>
									<path id="SVGID_54_" d="M57.9034,262.269l-8.7591-14.4972c0.7624,1.2682,0.7624,3.3457,0,4.619l-3.0828,5.1338
										l11.9513,9.0788C58.6339,265.319,58.6124,263.4527,57.9034,262.269"/>
								</defs>
								<clipPath id="SVGID_55_">
									<use xlink:href="#SVGID_54_"  overflow="visible"/>
								</clipPath>
								<defs>
									
										<filter id="Adobe_OpacityMaskFilter_2_" filterUnits="userSpaceOnUse" x="46.0615" y="247.7718" width="12.5723" height="18.8315">
										<feColorMatrix  type="matrix" values="1 0 0 0 0  0 1 0 0 0  0 0 1 0 0  0 0 0 1 0"/>
									</filter>
								</defs>
								<mask maskUnits="userSpaceOnUse" x="46.0615" y="247.7718" width="12.5723" height="18.8315" id="SVGID_56_">
									<g filter="url(#Adobe_OpacityMaskFilter_2_)">
										
											<linearGradient id="SVGID_57_" gradientUnits="userSpaceOnUse" x1="132.9418" y1="37.9101" x2="133.2245" y2="37.9101" gradientTransform="matrix(-54.9201 0 0 54.9201 7362.4346 -1824.8412)">
											<stop  offset="0" style="stop-color:#333333"/>
											<stop  offset="1" style="stop-color:#404040"/>
										</linearGradient>
										<rect x="46.0615" y="247.7718" clip-path="url(#SVGID_55_)" fill="url(#SVGID_57_)" width="12.5723" height="18.8315"/>
									</g>
								</mask>
								
									<linearGradient id="SVGID_58_" gradientUnits="userSpaceOnUse" x1="132.9418" y1="37.9101" x2="133.2245" y2="37.9101" gradientTransform="matrix(-54.9201 0 0 54.9201 7362.4336 -1824.8409)">
									<stop  offset="0" style="stop-color:#231F20"/>
									<stop  offset="1" style="stop-color:#F1F2F2"/>
								</linearGradient>
								
									<rect x="46.0615" y="247.7718" clip-path="url(#SVGID_55_)" mask="url(#SVGID_56_)" fill="url(#SVGID_58_)" width="12.5723" height="18.8315"/>
							</g>
						</g>
					</g>
					<g clip-path="url(#SVGID_51_)">
						<g>
							<defs>
								<rect id="SVGID_59_" x="35.0132" y="222.4928" width="32.1086" height="55.1724"/>
							</defs>
							<clipPath id="SVGID_60_">
								<use xlink:href="#SVGID_59_"  overflow="visible"/>
							</clipPath>
							<g clip-path="url(#SVGID_60_)">
								<defs>
									<path id="SVGID_61_" d="M66.5494,247.7718L52.753,224.8019c-0.7624-1.2682-2.5985-2.3091-4.0762-2.3091h-6.2414h-5.7783
										c-1.4836,0-2.0727,1.0409-1.31,2.3091l13.7973,22.9699c0.7624,1.2682,0.7624,3.3457,0,4.619l-13.8866,23.2175
										c-0.536,1.1469,0.0215,2.0569,1.3993,2.0569h5.7749h6.2448c1.4777,0,3.3138-1.0369,4.0762-2.3096l10.7439-17.8791
										l3.0525-5.0857C67.3127,251.1175,67.3127,249.04,66.5494,247.7718"/>
								</defs>
								<clipPath id="SVGID_62_">
									<use xlink:href="#SVGID_61_"  overflow="visible"/>
								</clipPath>
								<defs>
									
										<filter id="Adobe_OpacityMaskFilter_3_" filterUnits="userSpaceOnUse" x="34.5844" y="222.4928" width="32.7283" height="55.1724">
										<feColorMatrix  type="matrix" values="1 0 0 0 0  0 1 0 0 0  0 0 1 0 0  0 0 0 1 0"/>
									</filter>
								</defs>
								<mask maskUnits="userSpaceOnUse" x="34.5844" y="222.4928" width="32.7283" height="55.1724" id="SVGID_63_">
									<g filter="url(#Adobe_OpacityMaskFilter_3_)">
										
											<radialGradient id="SVGID_64_" cx="128.3" cy="28.5524" r="0.2827" gradientTransform="matrix(79.8353 0 0 -79.8353 -10191.8047 2529.5662)" gradientUnits="userSpaceOnUse">
											<stop  offset="0" style="stop-color:#1A1A1A"/>
											<stop  offset="0.2395" style="stop-color:#0D0D0D"/>
											<stop  offset="0.5779" style="stop-color:#030303"/>
											<stop  offset="1" style="stop-color:#000000"/>
										</radialGradient>
										<rect x="34.5844" y="222.4928" clip-path="url(#SVGID_62_)" fill="url(#SVGID_64_)" width="32.7283" height="55.1724"/>
									</g>
								</mask>
								
									<radialGradient id="SVGID_65_" cx="128.3" cy="28.5524" r="0.2827" gradientTransform="matrix(79.8353 0 0 -79.8353 -10191.8047 2529.5662)" gradientUnits="userSpaceOnUse">
									<stop  offset="0" style="stop-color:#FFFFFF"/>
									<stop  offset="1" style="stop-color:#FFFFFF"/>
								</radialGradient>
								
									<rect x="34.5844" y="222.4928" clip-path="url(#SVGID_62_)" mask="url(#SVGID_63_)" fill="url(#SVGID_65_)" width="32.7283" height="55.1724"/>
							</g>
						</g>
					</g>
				</g>
			</g>
		</g>
	</g>
</g>
<g id="Reticolo">
	<polygon fill="#0A9749" points="1132.8271,158.2031 1048.5117,175.4238 1060.627,143.1924 	"/>
	<polygon fill="#6088CB" points="990.5664,61.1699 943.2959,121.373 977.5957,32.1182 	"/>
	<polygon fill="#DD3629" points="943.2432,121.3848 990.5664,61.1699 1088.3203,64.793 	"/>
	<polygon fill="#F8C728" points="1048.5117,175.4238 1186.1182,300.5723 1132.8271,158.2031 	"/>
	<polygon fill="#FFFFFF" points="1200.9375,94.1006 1163.3428,72.6709 1163.0068,73.2588 1200.9375,94.8926 	"/>
	<polyline fill="#FFFFFF" points="1162.9727,72.6953 1111.6815,110.6211 1112.0879,111.1719 1163.3789,73.2402 	"/>
	<polygon fill="#FFFFFF" points="1200.9375,100.5156 1200.9375,99.8301 1111.8447,110.5508 1111.9248,111.2285 	"/>
	<polygon fill="#FFFFFF" points="1200.9375,160.0596 1112.0547,110.6016 1111.7188,111.1875 1200.9375,160.8262 	"/>
	<polygon fill="#FFFFFF" points="1200.9375,165.4316 1132.8633,157.8643 1132.791,158.543 1200.9375,166.1094 	"/>
	<polyline fill="#FFFFFF" points="1111.6074,111.0293 1132.5098,158.3379 1133.1367,158.0645 1112.2285,110.7539 	"/>
	<polygon fill="#FFFFFF" points="1200.9375,60.9814 1200.9375,60.2607 1163.0684,72.6416 1163.2812,73.291 	"/>
	<polyline fill="#FFFFFF" points="1163.2168,72.6279 1088.3516,64.4482 1088.2881,65.1289 1163.1396,73.2979 	"/>
	<polyline fill="#FFFFFF" points="1112.1846,110.7402 1088.625,64.6406 1088.0215,64.9414 1111.5791,111.0439 	"/>
	<polyline fill="#FFFFFF" points="1111.7031,110.6055 1060.4492,142.9063 1060.8104,143.4805 1112.0664,111.1836 	"/>
	<polyline fill="#FFFFFF" points="1132.8936,157.8672 1060.7002,142.8574 1060.5604,143.5283 1132.7539,158.5391 	"/>
	<polyline fill="#FFFFFF" points="1060.3086,143.0674 1048.1914,175.3027 1048.8262,175.543 1060.9434,143.3115 	"/>
	<polyline fill="#FFFFFF" points="1132.7539,157.8672 1048.4492,175.0889 1048.5859,175.7559 1132.8936,158.5391 	"/>
	<polygon fill="#FFFFFF" points="1200.9375,228.3301 1133.0703,157.9688 1132.585,158.4395 1200.9375,229.3086 	"/>
	<polyline fill="#FFFFFF" points="1088.1104,64.5234 1018.1523,119.1748 1018.5732,119.709 1088.5283,65.0566 	"/>
	<polyline fill="#FFFFFF" points="1018.1992,119.7402 1060.4647,143.4932 1060.7969,142.8984 1018.5283,119.1494 	"/>
	<polyline fill="#FFFFFF" points="1048.8164,175.2617 1018.662,119.2734 1018.0635,119.6035 1048.21,175.5859 	"/>
	<polyline fill="#FFFFFF" points="1088.1992,64.4746 943.123,121.0703 943.3691,121.6982 1088.4434,65.1055 	"/>
	<polyline fill="#FFFFFF" points="1048.6709,175.1172 943.4512,121.0703 943.1406,121.6758 1048.3574,175.7266 	"/>
	<polygon fill="#FFFFFF" points="1018.374,119.7871 1018.3516,119.1084 943.2871,121.0371 943.3036,121.7168 	"/>
	<polyline fill="#FFFFFF" points="1088.418,64.4629 977.6904,31.79 977.5039,32.4395 1088.2236,65.1191 	"/>
	<polyline fill="#FFFFFF" points="943.5605,121.5078 977.9141,32.2373 977.2783,31.9902 942.9297,121.2676 	"/>
	<polyline fill="#FFFFFF" points="943.5684,121.2773 902.3994,-1.3809 901.7578,-1.1621 942.9238,121.4912 	"/>
	<polyline fill="#FFFFFF" points="977.7363,31.8027 902.2148,-1.584 901.9424,-0.9561 977.4629,32.4199 	"/>
	<polyline fill="#FFFFFF" points="1088.3389,64.4443 990.5762,60.8223 990.5469,61.501 1088.3086,65.1289 	"/>
	<polyline fill="#FFFFFF" points="990.877,61.0322 977.9102,31.9746 977.292,32.2471 990.252,61.3057 	"/>
	<polyline fill="#FFFFFF" points="943.5098,121.5928 990.832,61.376 990.293,60.9551 942.9766,121.1807 	"/>
	<polyline fill="#FFFFFF" points="1088.5283,65.0566 1172.2637,-0.3701 1171.8477,-0.9014 1088.1104,64.5234 	"/>
	<polyline fill="#FFFFFF" points="1163.5117,73.002 1172.3955,-0.5957 1171.7148,-0.6797 1162.8379,72.9229 	"/>
	<polyline fill="#FFFFFF" points="1048.2832,175.668 1185.8896,300.8223 1186.3428,300.3203 1048.7402,175.1738 	"/>
	<polyline fill="#FFFFFF" points="977.8027,32.3828 1022.5801,-0.5518 1022.1816,-1.0957 977.3965,31.8379 	"/>
	<line fill="#FFFFFF" stroke="#FFFFFF" stroke-miterlimit="10" x1="1132.8271" y1="158.2031" x2="1186.1484" y2="300.7998"/>
</g>
</svg>
