<?xml version="1.0" encoding="utf-8"?>
<!-- Generator: Adobe Illustrator 15.1.0, SVG Export Plug-In . SVG Version: 6.00 Build 0)  -->
<!DOCTYPE svg PUBLIC "-//W3C//DTD SVG 1.1//EN" "http://www.w3.org/Graphics/SVG/1.1/DTD/svg11.dtd">
<svg version="1.1" xmlns="http://www.w3.org/2000/svg" xmlns:xlink="http://www.w3.org/1999/xlink" x="0px" y="0px" width="1200px"
	 height="300px" viewBox="0 0 1200 300" enable-background="new 0 0 1200 300" xml:space="preserve">
<g id="Sfondo">
	<rect y="-0.5" fill="#9F499B" width="1200" height="300"/>
</g>
<g id="Content">
</g>
<g id="Reticolo">
	<polygon fill="#0A9749" points="1144.846,141.542 1061.768,124.574 1073.705,156.332 	"/>
	<polygon fill="#6088CB" points="1004.673,237.151 958.097,177.832 991.893,265.775 	"/>
	<polygon fill="#DD3629" points="958.044,177.82 1004.673,237.151 1100.991,233.581 	"/>
	<polygon fill="#F8C728" points="1061.768,124.574 1197.354,1.263 1144.846,141.542 	"/>
	<polygon fill="#FFFFFF" points="1211.955,204.704 1174.913,225.818 1174.582,225.239 1211.955,203.923 	"/>
	<polyline fill="#FFFFFF" points="1174.548,225.795 1124.01,188.426 1124.41,187.883 1174.948,225.258 	"/>
	<polygon fill="#FFFFFF" points="1211.955,198.383 1211.955,199.059 1124.171,188.495 1124.25,187.827 	"/>
	<polygon fill="#FFFFFF" points="1211.955,139.712 1124.377,188.445 1124.047,187.867 1211.955,138.958 	"/>
	<polygon fill="#FFFFFF" points="1211.955,134.42 1144.881,141.875 1144.81,141.207 1211.955,133.752 	"/>
	<polyline fill="#FFFFFF" points="1123.938,188.023 1144.532,141.41 1145.15,141.679 1124.549,188.295 	"/>
	<polygon fill="#FFFFFF" points="1211.955,237.337 1211.955,238.047 1174.643,225.848 1174.852,225.208 	"/>
	<polyline fill="#FFFFFF" points="1174.788,225.86 1101.022,233.921 1100.96,233.25 1174.713,225.201 	"/>
	<polyline fill="#FFFFFF" points="1124.506,188.308 1101.292,233.731 1100.697,233.435 1123.909,188.009 	"/>
	<polyline fill="#FFFFFF" points="1124.031,188.441 1073.529,156.614 1073.886,156.049 1124.389,187.871 	"/>
	<polyline fill="#FFFFFF" points="1144.91,141.873 1073.776,156.662 1073.64,156.001 1144.772,141.211 	"/>
	<polyline fill="#FFFFFF" points="1073.392,156.455 1061.452,124.694 1062.077,124.457 1074.017,156.215 	"/>
	<polyline fill="#FFFFFF" points="1144.772,141.873 1061.706,124.904 1061.841,124.247 1144.91,141.211 	"/>
	<polygon fill="#FFFFFF" points="1211.955,72.444 1145.085,141.773 1144.606,141.309 1211.955,71.48 	"/>
	<polyline fill="#FFFFFF" points="1100.785,233.847 1031.854,179.997 1032.269,179.471 1101.197,233.321 	"/>
	<polyline fill="#FFFFFF" points="1031.9,179.44 1073.545,156.036 1073.872,156.622 1032.225,180.022 	"/>
	<polyline fill="#FFFFFF" points="1062.067,124.734 1032.355,179.9 1031.767,179.575 1061.471,124.415 	"/>
	<polyline fill="#FFFFFF" points="1100.872,233.895 957.926,178.13 958.168,177.511 1101.113,233.273 	"/>
	<polyline fill="#FFFFFF" points="1061.924,124.876 958.249,178.13 957.943,177.533 1061.615,124.276 	"/>
	<polygon fill="#FFFFFF" points="1032.072,179.395 1032.05,180.062 958.088,178.162 958.104,177.493 	"/>
	<polyline fill="#FFFFFF" points="1101.088,233.906 991.986,266.1 991.802,265.46 1100.896,233.26 	"/>
	<polyline fill="#FFFFFF" points="958.357,177.698 992.206,265.659 991.58,265.902 957.735,177.936 	"/>
	<polyline fill="#FFFFFF" points="958.365,177.926 917.8,298.783 917.168,298.568 957.729,177.715 	"/>
	<polyline fill="#FFFFFF" points="992.031,266.087 917.618,298.983 917.35,298.365 991.762,265.479 	"/>
	<polyline fill="#FFFFFF" points="1101.01,233.925 1004.683,237.493 1004.653,236.824 1100.98,233.25 	"/>
	<polyline fill="#FFFFFF" points="1004.979,237.286 992.202,265.918 991.594,265.649 1004.363,237.017 	"/>
	<polyline fill="#FFFFFF" points="958.307,177.614 1004.935,236.948 1004.403,237.362 957.782,178.021 	"/>
	<polyline fill="#FFFFFF" points="1101.197,233.321 1183.702,297.787 1183.293,298.312 1100.785,233.847 	"/>
	<polyline fill="#FFFFFF" points="1175.079,225.492 1183.833,298.01 1183.162,298.093 1174.415,225.57 	"/>
	<polyline fill="#FFFFFF" points="1061.542,124.334 1197.129,1.016 1197.575,1.511 1061.993,124.821 	"/>
	<polyline fill="#FFFFFF" points="992.097,265.515 1036.216,297.966 1035.823,298.503 991.696,266.052 	"/>
</g>
</svg>
