<?xml version="1.0" encoding="utf-8"?>
<!-- Generator: Adobe Illustrator 18.0.0, SVG Export Plug-In . SVG Version: 6.00 Build 0)  -->
<!DOCTYPE svg PUBLIC "-//W3C//DTD SVG 1.1//EN" "http://www.w3.org/Graphics/SVG/1.1/DTD/svg11.dtd">
<svg version="1.1" xmlns="http://www.w3.org/2000/svg" xmlns:xlink="http://www.w3.org/1999/xlink" x="0px" y="0px"
	 viewBox="0 0 1200 300" enable-background="new 0 0 1200 300" xml:space="preserve">
<g id="Sfondo">
	<rect y="-0.5" fill="#54BDD5" width="1200" height="300"/>
	<polyline display="none" opacity="5.000000e-02" points="1197,0.1 1200,-0.5 1200,298.5 696,300 514,-1 	"/>
	
		<linearGradient id="SVGID_1_" gradientUnits="userSpaceOnUse" x1="1959.7516" y1="314.0128" x2="1900.0576" y2="-24.5288" gradientTransform="matrix(-1 0 0 1 2044.8936 0)">
		<stop  offset="0.2144" style="stop-color:#231F20;stop-opacity:0"/>
		<stop  offset="1" style="stop-color:#231F20"/>
	</linearGradient>
	<polyline opacity="0.16" fill="url(#SVGID_1_)" points="1.2,0.6 0,0 0,299 206.5,300.5 281.1,-0.5 	"/>
</g>
<g id="Content" display="none">
	<text transform="matrix(1 0 0 1 226.9648 34.4717)" fill="#FFFFFF" font-family="'Bitter-Regular'" font-size="21">GDG Milano / workshop</text>
	<g>
		<g display="inline">
			<defs>
				<rect id="SVGID_2_" x="306" y="251.6" width="136.5" height="31.4"/>
			</defs>
			<clipPath id="SVGID_3_">
				<use xlink:href="#SVGID_2_"  overflow="visible"/>
			</clipPath>
			<g clip-path="url(#SVGID_3_)">
				<defs>
					<rect id="SVGID_4_" x="306" y="251.6" width="136.5" height="31.4"/>
				</defs>
				<clipPath id="SVGID_5_">
					<use xlink:href="#SVGID_4_"  overflow="visible"/>
				</clipPath>
				<g clip-path="url(#SVGID_5_)">
					<text transform="matrix(1 0 0 1 380.318 274.6274)"><tspan x="0" y="0" fill="#231F20" font-family="'OpenSans-Semibold'" font-size="20.9176" letter-spacing="-1">Mil</tspan><tspan x="27.3" y="0" fill="#231F20" font-family="'OpenSans-Semibold'" font-size="20.9176" letter-spacing="-1">a</tspan><tspan x="38.1" y="0" fill="#231F20" font-family="'OpenSans-Semibold'" font-size="20.9176" letter-spacing="-1">n</tspan><tspan x="50.2" y="0" fill="#231F20" font-family="'OpenSans-Semibold'" font-size="20.9176">o</tspan></text>
				</g>
				<g clip-path="url(#SVGID_5_)">
					<defs>
						<rect id="SVGID_6_" x="306" y="251.6" width="136.5" height="31.4"/>
					</defs>
					<clipPath id="SVGID_7_">
						<use xlink:href="#SVGID_6_"  overflow="visible"/>
					</clipPath>
					<path clip-path="url(#SVGID_7_)" fill="#231F20" d="M338.5,266h6.4v8c-1.7,0.6-3.7,0.9-5.8,0.9c-2.3,0-4.1-0.7-5.3-2
						c-1.3-1.3-1.9-3.2-1.9-5.7c0-2.4,0.7-4.3,2.1-5.6c1.4-1.3,3.3-2,5.8-2c0.9,0,1.8,0.1,2.7,0.3c0.8,0.2,1.6,0.4,2.2,0.7l-1.3,3.2
						c-1.1-0.5-2.3-0.8-3.5-0.8c-1.2,0-2.1,0.4-2.7,1.1c-0.6,0.8-1,1.9-1,3.3c0,1.4,0.3,2.5,0.9,3.2c0.6,0.7,1.4,1.1,2.5,1.1
						c0.6,0,1.2-0.1,1.7-0.2v-2.3h-2.7V266z"/>
					<path clip-path="url(#SVGID_7_)" fill="#231F20" d="M355.6,267.1c0-1.4-0.3-2.4-0.8-3c-0.5-0.7-1.4-1-2.5-1h-1.2v8.3h0.9
						c1.2,0,2.1-0.4,2.7-1.1C355.3,269.7,355.6,268.6,355.6,267.1 M359.8,267c0,2.5-0.7,4.4-2.1,5.7c-1.4,1.3-3.3,2-5.8,2h-4.8
						v-14.9h5.2c2.4,0,4.2,0.6,5.5,1.8C359.2,262.9,359.8,264.7,359.8,267"/>
					<path clip-path="url(#SVGID_7_)" fill="#231F20" d="M367.6,266h6.4v8c-1.7,0.6-3.7,0.9-5.8,0.9c-2.3,0-4.1-0.7-5.3-2
						c-1.3-1.3-1.9-3.2-1.9-5.7c0-2.4,0.7-4.3,2.1-5.6c1.4-1.3,3.3-2,5.8-2c0.9,0,1.8,0.1,2.7,0.3c0.8,0.2,1.6,0.4,2.2,0.7l-1.3,3.2
						c-1.1-0.5-2.3-0.8-3.5-0.8c-1.2,0-2.1,0.4-2.7,1.1c-0.6,0.8-1,1.9-1,3.3c0,1.4,0.3,2.5,0.9,3.2c0.6,0.7,1.4,1.1,2.5,1.1
						c0.6,0,1.2-0.1,1.7-0.2v-2.3h-2.7V266z"/>
				</g>
				<g clip-path="url(#SVGID_5_)">
					<defs>
						<path id="SVGID_8_" d="M310.2,283h3.6c0.8,0,1.9-0.6,2.3-1.3l3-5c0.4-0.7,0.3-1.8-0.1-2.5l-1.8-2.9L310.2,283z"/>
					</defs>
					<clipPath id="SVGID_9_">
						<use xlink:href="#SVGID_8_"  overflow="visible"/>
					</clipPath>
					
						<radialGradient id="SVGID_10_" cx="131.9861" cy="32.3197" r="0.1609" gradientTransform="matrix(108.6747 200.4074 200.4074 -108.6747 -20515.4102 -22687.707)" gradientUnits="userSpaceOnUse">
						<stop  offset="0" style="stop-color:#FFCD4D"/>
						<stop  offset="1" style="stop-color:#F6C338"/>
					</radialGradient>
					<polygon clip-path="url(#SVGID_9_)" fill="url(#SVGID_10_)" points="317.3,267.4 324.3,280.3 312.3,286.9 305.3,274 					"/>
				</g>
				<g clip-path="url(#SVGID_5_)">
					<defs>
						<path id="SVGID_11_" d="M314,268.6l-7.9,13.2c-0.3,0.7,0,1.2,0.8,1.2h3.3l7-11.7L314,266C314.4,266.7,314.4,267.9,314,268.6"
							/>
					</defs>
					<clipPath id="SVGID_12_">
						<use xlink:href="#SVGID_11_"  overflow="visible"/>
					</clipPath>
					
						<radialGradient id="SVGID_13_" cx="131.9861" cy="32.3197" r="0.1609" gradientTransform="matrix(108.674 200.4061 200.4061 -108.674 -20515.2637 -22687.5527)" gradientUnits="userSpaceOnUse">
						<stop  offset="0" style="stop-color:#0DA960"/>
						<stop  offset="1" style="stop-color:#03914B"/>
					</radialGradient>
					<polygon clip-path="url(#SVGID_12_)" fill="url(#SVGID_13_)" points="314.6,261.2 324.4,279.1 308.4,287.8 298.7,269.9 					
						"/>
				</g>
				<g clip-path="url(#SVGID_5_)">
					<defs>
						<path id="SVGID_14_" d="M306.9,251.6c-0.6,0-0.9,0.3-0.9,0.7v0c0,0.2,0.1,0.4,0.2,0.6l12.8,21.3c0.4,0.7,0.4,1.7,0.1,2.5
							l3.1-5.2l-12-19.9H306.9z"/>
					</defs>
					<clipPath id="SVGID_15_">
						<use xlink:href="#SVGID_14_"  overflow="visible"/>
					</clipPath>
					
						<radialGradient id="SVGID_16_" cx="131.9861" cy="32.3197" r="0.1609" gradientTransform="matrix(108.6723 200.403 200.403 -108.6723 -20514.9531 -22687.2051)" gradientUnits="userSpaceOnUse">
						<stop  offset="0" style="stop-color:#4387FD"/>
						<stop  offset="1" style="stop-color:#4683EA"/>
					</radialGradient>
					<polygon clip-path="url(#SVGID_15_)" fill="url(#SVGID_16_)" points="318.5,244.8 332.7,271 309.6,283.5 295.4,257.3 					"/>
				</g>
				<g clip-path="url(#SVGID_5_)">
					<defs>
						<path id="SVGID_17_" d="M310.2,251.6l12,19.9l1.7-2.9c0.4-0.7,0.4-1.9,0-2.6l-7.9-13.1c-0.4-0.7-1.5-1.3-2.3-1.3H310.2z"/>
					</defs>
					<clipPath id="SVGID_18_">
						<use xlink:href="#SVGID_17_"  overflow="visible"/>
					</clipPath>
					
						<radialGradient id="SVGID_19_" cx="131.9863" cy="32.3197" r="0.1609" gradientTransform="matrix(108.6655 200.3905 200.3905 -108.6655 -20513.6543 -22685.7949)" gradientUnits="userSpaceOnUse">
						<stop  offset="0" style="stop-color:#E04A3F"/>
						<stop  offset="1" style="stop-color:#CD372D"/>
					</radialGradient>
					<polygon clip-path="url(#SVGID_18_)" fill="url(#SVGID_19_)" points="321.1,245.7 332.7,267 313.4,277.4 301.8,256.1 					"/>
				</g>
				<g clip-path="url(#SVGID_5_)">
					<defs>
						<rect id="SVGID_20_" x="306" y="251.6" width="136.5" height="31.4"/>
					</defs>
					<clipPath id="SVGID_21_">
						<use xlink:href="#SVGID_20_"  overflow="visible"/>
					</clipPath>
					<g clip-path="url(#SVGID_21_)">
						<g>
							<defs>
								<rect id="SVGID_22_" x="312.3" y="266" width="7.1" height="10.7"/>
							</defs>
							<clipPath id="SVGID_23_">
								<use xlink:href="#SVGID_22_"  overflow="visible"/>
							</clipPath>
							<g clip-path="url(#SVGID_23_)">
								<defs>
									<path id="SVGID_24_" d="M319,274.2l-5-8.3c0.4,0.7,0.4,1.9,0,2.6l-1.8,2.9l6.8,5.2C319.4,276,319.4,274.9,319,274.2"/>
								</defs>
								<clipPath id="SVGID_25_">
									<use xlink:href="#SVGID_24_"  overflow="visible"/>
								</clipPath>
								<defs>
									<filter id="Adobe_OpacityMaskFilter" filterUnits="userSpaceOnUse" x="312.3" y="266" width="7.2" height="10.7">
										<feColorMatrix  type="matrix" values="1 0 0 0 0  0 1 0 0 0  0 0 1 0 0  0 0 0 1 0"/>
									</filter>
								</defs>
								<mask maskUnits="userSpaceOnUse" x="312.3" y="266" width="7.2" height="10.7" id="SVGID_26_">
									<g filter="url(#Adobe_OpacityMaskFilter)">
										
											<linearGradient id="SVGID_27_" gradientUnits="userSpaceOnUse" x1="128.2141" y1="38.1679" x2="128.375" y2="38.1679" gradientTransform="matrix(-54.9201 0 0 54.9201 7362.4346 -1824.8412)">
											<stop  offset="0" style="stop-color:#333333"/>
											<stop  offset="1" style="stop-color:#404040"/>
										</linearGradient>
										<rect x="312.3" y="266" clip-path="url(#SVGID_25_)" fill="url(#SVGID_27_)" width="7.2" height="10.7"/>
									</g>
								</mask>
								
									<linearGradient id="SVGID_28_" gradientUnits="userSpaceOnUse" x1="128.2141" y1="38.1679" x2="128.375" y2="38.1679" gradientTransform="matrix(-54.9201 0 0 54.9201 7362.4336 -1824.8409)">
									<stop  offset="0" style="stop-color:#231F20"/>
									<stop  offset="1" style="stop-color:#F1F2F2"/>
								</linearGradient>
								
									<rect x="312.3" y="266" clip-path="url(#SVGID_25_)" mask="url(#SVGID_26_)" fill="url(#SVGID_28_)" width="7.2" height="10.7"/>
							</g>
						</g>
					</g>
					<g clip-path="url(#SVGID_21_)">
						<g>
							<defs>
								<rect id="SVGID_29_" x="306" y="251.6" width="18.3" height="31.4"/>
							</defs>
							<clipPath id="SVGID_30_">
								<use xlink:href="#SVGID_29_"  overflow="visible"/>
							</clipPath>
							<g clip-path="url(#SVGID_30_)">
								<defs>
									<path id="SVGID_31_" d="M323.9,266l-7.9-13.1c-0.4-0.7-1.5-1.3-2.3-1.3h-3.6h-3.3c-0.8,0-1.2,0.6-0.7,1.3L314,266
										c0.4,0.7,0.4,1.9,0,2.6l-7.9,13.2c-0.3,0.7,0,1.2,0.8,1.2h3.3h3.6c0.8,0,1.9-0.6,2.3-1.3l6.1-10.2l1.7-2.9
										C324.3,267.9,324.3,266.7,323.9,266"/>
								</defs>
								<clipPath id="SVGID_32_">
									<use xlink:href="#SVGID_31_"  overflow="visible"/>
								</clipPath>
								<defs>
									<filter id="Adobe_OpacityMaskFilter_1_" filterUnits="userSpaceOnUse" x="305.7" y="251.6" width="18.6" height="31.4">
										<feColorMatrix  type="matrix" values="1 0 0 0 0  0 1 0 0 0  0 0 1 0 0  0 0 0 1 0"/>
									</filter>
								</defs>
								<mask maskUnits="userSpaceOnUse" x="305.7" y="251.6" width="18.6" height="31.4" id="SVGID_33_">
									<g filter="url(#Adobe_OpacityMaskFilter_1_)">
										
											<radialGradient id="SVGID_34_" cx="131.6072" cy="28.3367" r="0.1609" gradientTransform="matrix(79.8353 0 0 -79.8353 -10191.8047 2529.5662)" gradientUnits="userSpaceOnUse">
											<stop  offset="0" style="stop-color:#1A1A1A"/>
											<stop  offset="0.2395" style="stop-color:#0D0D0D"/>
											<stop  offset="0.5779" style="stop-color:#030303"/>
											<stop  offset="1" style="stop-color:#000000"/>
										</radialGradient>
										<rect x="305.7" y="251.6" clip-path="url(#SVGID_32_)" fill="url(#SVGID_34_)" width="18.6" height="31.4"/>
									</g>
								</mask>
								
									<radialGradient id="SVGID_35_" cx="131.6072" cy="28.3367" r="0.1609" gradientTransform="matrix(79.8353 0 0 -79.8353 -10191.8047 2529.5662)" gradientUnits="userSpaceOnUse">
									<stop  offset="0" style="stop-color:#FFFFFF"/>
									<stop  offset="1" style="stop-color:#FFFFFF"/>
								</radialGradient>
								
									<rect x="305.7" y="251.6" clip-path="url(#SVGID_32_)" mask="url(#SVGID_33_)" fill="url(#SVGID_35_)" width="18.6" height="31.4"/>
							</g>
						</g>
					</g>
				</g>
			</g>
		</g>
	</g>
	<text transform="matrix(1 0 0 1 53.2568 50.1138)" display="inline"><tspan x="0" y="0" fill="#FFFFFF" font-family="'OpenSans-Extrabold'" font-size="29.713">GDG </tspan><tspan x="73.5" y="0" fill="#FFFFFF" font-family="'OpenSans-Semibold'" font-size="29.713" letter-spacing="-2">Milano</tspan></text>
	<g display="inline">
		<g>
			<defs>
				<rect id="SVGID_36_" x="19.3" y="17.2" width="26.1" height="44.9"/>
			</defs>
			<clipPath id="SVGID_37_">
				<use xlink:href="#SVGID_36_"  overflow="visible"/>
			</clipPath>
			<g clip-path="url(#SVGID_37_)">
				<defs>
					<rect id="SVGID_38_" x="19.3" y="17.2" width="26.1" height="44.9"/>
				</defs>
				<clipPath id="SVGID_39_">
					<use xlink:href="#SVGID_38_"  overflow="visible"/>
				</clipPath>
				<g clip-path="url(#SVGID_39_)">
					<defs>
						<rect id="SVGID_40_" x="19.3" y="17.2" width="26.1" height="44.9"/>
					</defs>
					<clipPath id="SVGID_41_">
						<use xlink:href="#SVGID_40_"  overflow="visible"/>
					</clipPath>
					<path clip-path="url(#SVGID_41_)" fill="#FFFFFF" d="M35.4,45.3L25.3,62.1h5.1c1.2,0,2.7-0.8,3.3-1.9l4.3-7.1
						c0.5-1,0.5-2.6-0.1-3.5L35.4,45.3z"/>
				</g>
				<g clip-path="url(#SVGID_39_)">
					<defs>
						<path id="SVGID_42_" d="M30.8,41.5L19.5,60.4c-0.4,0.9,0,1.7,1.1,1.7h4.7l10.1-16.7l-4.6-7.6C31.4,38.8,31.4,40.5,30.8,41.5"
							/>
					</defs>
					<clipPath id="SVGID_43_">
						<use xlink:href="#SVGID_42_"  overflow="visible"/>
					</clipPath>
					
						<radialGradient id="SVGID_44_" cx="128.3353" cy="31.1708" r="8.872171e-02" gradientTransform="matrix(116.1371 0 0 -116.1371 -14877.1309 3669.9714)" gradientUnits="userSpaceOnUse">
						<stop  offset="0" style="stop-color:#E0E1E2"/>
						<stop  offset="1" style="stop-color:#D5D7D8"/>
					</radialGradient>
					<rect x="19" y="37.7" clip-path="url(#SVGID_43_)" fill="url(#SVGID_44_)" width="16.3" height="24.3"/>
				</g>
				<g clip-path="url(#SVGID_39_)">
					<defs>
						<rect id="SVGID_45_" x="19.3" y="17.2" width="26.1" height="44.9"/>
					</defs>
					<clipPath id="SVGID_46_">
						<use xlink:href="#SVGID_45_"  overflow="visible"/>
					</clipPath>
					<path clip-path="url(#SVGID_46_)" fill="#FFFFFF" d="M20.6,17.2c-1.2,0-1.7,0.8-1.1,1.9l18.4,30.5c0.6,1,0.6,2.5,0.1,3.5
						l4.5-7.4L25.3,17.2H20.6z"/>
				</g>
				<g clip-path="url(#SVGID_39_)">
					<defs>
						<path id="SVGID_47_" d="M25.3,17.2l17.1,28.5l2.5-4.1c0.6-1,0.6-2.7,0-3.8L33.7,19c-0.6-1-2.1-1.9-3.3-1.9H25.3z"/>
					</defs>
					<clipPath id="SVGID_48_">
						<use xlink:href="#SVGID_47_"  overflow="visible"/>
					</clipPath>
					
						<radialGradient id="SVGID_49_" cx="128.0139" cy="30.0193" r="8.874393e-02" gradientTransform="matrix(138.8162 0 0 -138.8162 -17735.0371 4198.5635)" gradientUnits="userSpaceOnUse">
						<stop  offset="0" style="stop-color:#E0E1E2"/>
						<stop  offset="1" style="stop-color:#D5D7D8"/>
					</radialGradient>
					<rect x="25.3" y="17.2" clip-path="url(#SVGID_48_)" fill="url(#SVGID_49_)" width="20.2" height="28.5"/>
				</g>
				<g clip-path="url(#SVGID_39_)">
					<defs>
						<rect id="SVGID_50_" x="19.3" y="17.2" width="26.1" height="44.9"/>
					</defs>
					<clipPath id="SVGID_51_">
						<use xlink:href="#SVGID_50_"  overflow="visible"/>
					</clipPath>
					<g clip-path="url(#SVGID_51_)">
						<g>
							<defs>
								<rect id="SVGID_52_" x="28.3" y="37.7" width="10.1" height="15.3"/>
							</defs>
							<clipPath id="SVGID_53_">
								<use xlink:href="#SVGID_52_"  overflow="visible"/>
							</clipPath>
							<g clip-path="url(#SVGID_53_)">
								<defs>
									<path id="SVGID_54_" d="M37.9,49.5l-7.1-11.8c0.6,1,0.6,2.7,0,3.8l-2.5,4.2l9.7,7.4C38.5,52,38.5,50.5,37.9,49.5"/>
								</defs>
								<clipPath id="SVGID_55_">
									<use xlink:href="#SVGID_54_"  overflow="visible"/>
								</clipPath>
								<defs>
									<filter id="Adobe_OpacityMaskFilter_2_" filterUnits="userSpaceOnUse" x="28.3" y="37.7" width="10.2" height="15.3">
										<feColorMatrix  type="matrix" values="1 0 0 0 0  0 1 0 0 0  0 0 1 0 0  0 0 0 1 0"/>
									</filter>
								</defs>
								<mask maskUnits="userSpaceOnUse" x="28.3" y="37.7" width="10.2" height="15.3" id="SVGID_56_">
									<g filter="url(#Adobe_OpacityMaskFilter_2_)">
										
											<linearGradient id="SVGID_57_" gradientUnits="userSpaceOnUse" x1="132.3163" y1="33.9101" x2="132.405" y2="33.9101" gradientTransform="matrix(-142.3638 0 0 142.3638 18877.6797 -4782.1831)">
											<stop  offset="0" style="stop-color:#333333"/>
											<stop  offset="1" style="stop-color:#404040"/>
										</linearGradient>
										<rect x="28.3" y="37.7" clip-path="url(#SVGID_55_)" fill="url(#SVGID_57_)" width="10.2" height="15.3"/>
									</g>
								</mask>
								
									<linearGradient id="SVGID_58_" gradientUnits="userSpaceOnUse" x1="132.3163" y1="33.9101" x2="132.405" y2="33.9101" gradientTransform="matrix(-142.3638 0 0 142.3638 18877.6797 -4782.1831)">
									<stop  offset="0" style="stop-color:#231F20"/>
									<stop  offset="1" style="stop-color:#F1F2F2"/>
								</linearGradient>
								
									<rect x="28.3" y="37.7" clip-path="url(#SVGID_55_)" mask="url(#SVGID_56_)" fill="url(#SVGID_58_)" width="10.2" height="15.3"/>
							</g>
						</g>
					</g>
					<g clip-path="url(#SVGID_51_)">
						<g>
							<defs>
								<rect id="SVGID_59_" x="19.3" y="17.2" width="26.1" height="44.9"/>
							</defs>
							<clipPath id="SVGID_60_">
								<use xlink:href="#SVGID_59_"  overflow="visible"/>
							</clipPath>
							<g clip-path="url(#SVGID_60_)">
								<defs>
									<path id="SVGID_61_" d="M44.9,37.7L33.7,19c-0.6-1-2.1-1.9-3.3-1.9h-5.1h-4.7c-1.2,0-1.7,0.8-1.1,1.9l11.2,18.7
										c0.6,1,0.6,2.7,0,3.8L19.5,60.4c-0.4,0.9,0,1.7,1.1,1.7h4.7h5.1c1.2,0,2.7-0.8,3.3-1.9l8.7-14.5l2.5-4.1
										C45.6,40.5,45.6,38.8,44.9,37.7"/>
								</defs>
								<clipPath id="SVGID_62_">
									<use xlink:href="#SVGID_61_"  overflow="visible"/>
								</clipPath>
								<defs>
									<filter id="Adobe_OpacityMaskFilter_3_" filterUnits="userSpaceOnUse" x="18.9" y="17.2" width="26.6" height="44.9">
										<feColorMatrix  type="matrix" values="1 0 0 0 0  0 1 0 0 0  0 0 1 0 0  0 0 0 1 0"/>
									</filter>
								</defs>
								<mask maskUnits="userSpaceOnUse" x="18.9" y="17.2" width="26.6" height="44.9" id="SVGID_63_">
									<g filter="url(#Adobe_OpacityMaskFilter_3_)">
										
											<radialGradient id="SVGID_64_" cx="128.8164" cy="31.2429" r="8.871627e-02" gradientTransform="matrix(206.9571 0 0 -206.9571 -26627.1211 6505.5352)" gradientUnits="userSpaceOnUse">
											<stop  offset="0" style="stop-color:#1A1A1A"/>
											<stop  offset="0.2395" style="stop-color:#0D0D0D"/>
											<stop  offset="0.5779" style="stop-color:#030303"/>
											<stop  offset="1" style="stop-color:#000000"/>
										</radialGradient>
										<rect x="18.9" y="17.2" clip-path="url(#SVGID_62_)" fill="url(#SVGID_64_)" width="26.6" height="44.9"/>
									</g>
								</mask>
								
									<radialGradient id="SVGID_65_" cx="128.8188" cy="31.2455" r="8.874267e-02" gradientTransform="matrix(206.957 0 0 -206.957 -26627.5918 6506.0894)" gradientUnits="userSpaceOnUse">
									<stop  offset="0" style="stop-color:#FFFFFF"/>
									<stop  offset="8.962709e-02" style="stop-color:#FFFFFF"/>
									<stop  offset="1" style="stop-color:#FFFFFF"/>
								</radialGradient>
								
									<rect x="18.9" y="17.2" clip-path="url(#SVGID_62_)" mask="url(#SVGID_63_)" fill="url(#SVGID_65_)" width="26.6" height="44.9"/>
							</g>
						</g>
					</g>
				</g>
			</g>
		</g>
	</g>
	
		<text transform="matrix(1 0 0 1 1016.5198 214.5713)" display="inline" fill="#FFFFFF" font-family="'MyriadPro-Regular'" font-size="65">28/05</text>
	<text transform="matrix(1 0 0 1 22.286 277.584)" display="inline" fill="#FFFFFF" font-family="'OpenSans'" font-size="28">#io15</text>
	<text transform="matrix(1 0 0 1 134.1138 71.5947)" fill="#FFFFFF" font-family="'OpenSans-Light'" font-size="22">presents:</text>
</g>
<g id="Reticolo" display="none">
	<polygon fill="#0A9749" points="1132.7,158.5 1048.7,175.6 1060.8,143.5 	"/>
	<polygon fill="#6088CB" points="991,61.9 944,121.8 978.1,33 	"/>
	<polygon fill="#DD3629" points="943.9,121.8 991,61.9 1088.3,65.5 	"/>
	<polygon fill="#F8C728" points="1048.7,175.6 1185.7,300.2 1132.7,158.5 	"/>
	<polygon display="inline" fill="#FFFFFF" points="1061.5,514.7 1024,493.3 1023.7,493.9 1061.5,515.5 	"/>
	<polyline display="inline" fill="#FFFFFF" points="1023.7,493.4 972.6,531.1 973,531.7 1024.1,493.9 	"/>
	<polygon display="inline" fill="#FFFFFF" points="1061.5,521.1 1061.5,520.4 972.8,531 972.8,531.7 	"/>
	<polygon display="inline" fill="#FFFFFF" points="1061.5,580.3 973,531.1 972.6,531.7 1061.5,581.1 	"/>
	<polygon display="inline" fill="#FFFFFF" points="1061.5,585.7 993.7,578.1 993.6,578.8 1061.5,586.4 	"/>
	<polyline display="inline" fill="#FFFFFF" points="972.5,531.5 993.3,578.6 994,578.3 973.1,531.2 	"/>
	<polygon display="inline" fill="#FFFFFF" points="1061.5,481.7 1061.5,481 1023.8,493.3 1024,494 	"/>
	<polyline display="inline" fill="#FFFFFF" points="1023.9,493.3 949.4,485.2 949.3,485.8 1023.8,494 	"/>
	<polyline display="inline" fill="#FFFFFF" points="973.1,531.2 949.6,485.3 949,485.6 972.5,531.5 	"/>
	<polyline display="inline" fill="#FFFFFF" points="972.6,531.1 921.6,563.3 922,563.8 973,531.7 	"/>
	<polyline display="inline" fill="#FFFFFF" points="993.7,578.2 921.8,563.2 921.7,563.9 993.6,578.8 	"/>
	<polyline display="inline" fill="#FFFFFF" points="921.5,563.4 909.4,595.5 910,595.7 922.1,563.7 	"/>
	<polyline display="inline" fill="#FFFFFF" points="993.6,578.2 909.7,595.3 909.8,596 993.7,578.8 	"/>
	<polygon display="inline" fill="#FFFFFF" points="1061.5,648.3 993.9,578.3 993.4,578.7 1061.5,649.3 	"/>
	<polyline display="inline" fill="#FFFFFF" points="949.1,485.2 879.5,539.6 879.9,540.2 949.6,485.8 	"/>
	<polyline display="inline" fill="#FFFFFF" points="879.5,540.2 921.6,563.8 921.9,563.2 879.9,539.6 	"/>
	<polyline display="inline" fill="#FFFFFF" points="910,595.5 880,539.7 879.4,540.1 909.4,595.8 	"/>
	<polyline display="inline" fill="#FFFFFF" points="949.2,485.2 804.8,541.5 805,542.1 949.5,485.8 	"/>
	<polyline display="inline" fill="#FFFFFF" points="909.9,595.3 805.1,541.5 804.8,542.1 909.6,595.9 	"/>
	<polygon display="inline" fill="#FFFFFF" points="879.7,540.2 879.7,539.6 805,541.5 805,542.2 	"/>
	<polyline display="inline" fill="#FFFFFF" points="949.4,485.2 839.2,452.6 839,453.3 949.2,485.8 	"/>
	<polyline display="inline" fill="#FFFFFF" points="805.2,542 839.4,453.1 838.8,452.8 804.6,541.7 	"/>
	<polyline display="inline" fill="#FFFFFF" points="805.2,541.7 764.3,419.6 763.6,419.8 804.6,541.9 	"/>
	<polyline display="inline" fill="#FFFFFF" points="839.3,452.7 764.1,419.4 763.8,420 839,453.3 	"/>
	<polyline display="inline" fill="#FFFFFF" points="949.4,485.1 852,481.5 852,482.2 949.3,485.8 	"/>
	<polyline display="inline" fill="#FFFFFF" points="852.3,481.8 839.4,452.8 838.8,453.1 851.7,482 	"/>
	<polyline display="inline" fill="#FFFFFF" points="805.2,542 852.3,482.1 851.8,481.7 804.7,541.6 	"/>
	<polyline display="inline" fill="#FFFFFF" points="949.6,485.8 1032.9,420.6 1032.5,420.1 949.1,485.2 	"/>
	<polyline display="inline" fill="#FFFFFF" points="1024.2,493.7 1033,420.4 1032.4,420.3 1023.5,493.6 	"/>
	<polyline display="inline" fill="#FFFFFF" points="909.5,595.9 1046.5,720.5 1046.9,720 909.9,595.4 	"/>
	<polyline display="inline" fill="#FFFFFF" points="839.3,453.2 883.9,420.4 883.5,419.9 838.9,452.7 	"/>
	<line display="inline" fill="#FFFFFF" stroke="#FFFFFF" stroke-miterlimit="10" x1="993.7" y1="578.5" x2="1046.7" y2="720.4"/>
	<polygon fill="#0A9749" points="647.7,154.4 563.7,137.3 575.8,169.3 	"/>
	<polygon fill="#6088CB" points="506,251 459,191.1 493.1,279.9 	"/>
	<polygon fill="#DD3629" points="458.9,191 506,251 603.3,247.4 	"/>
	<polygon fill="#F8C728" points="563.7,137.3 700.7,12.7 647.7,154.4 	"/>
	<polygon display="inline" fill="#4D4D4D" points="-7.7,205.3 29.8,226.6 30.1,226 -7.7,204.5 	"/>
	<polyline display="inline" fill="#4D4D4D" points="30.1,226.6 81.2,188.8 80.8,188.3 29.7,226 	"/>
	<polygon display="inline" fill="#4D4D4D" points="-7.7,198.9 -7.7,199.6 81,188.9 81,188.2 	"/>
	<polygon display="inline" fill="#4D4D4D" points="-7.7,139.6 80.8,188.8 81.2,188.3 -7.7,138.8 	"/>
	<polygon display="inline" fill="#4D4D4D" points="-7.7,134.3 60.1,141.8 60.2,141.1 -7.7,133.6 	"/>
	<polyline display="inline" fill="#4D4D4D" points="81.3,188.4 60.5,141.3 59.8,141.6 80.7,188.7 	"/>
	<polygon display="inline" fill="#4D4D4D" points="-7.7,238.2 -7.7,239 30,226.6 29.8,226 	"/>
	<polyline display="inline" fill="#4D4D4D" points="29.9,226.6 104.4,234.8 104.5,234.1 30,226 	"/>
	<polyline display="inline" fill="#4D4D4D" points="80.7,188.7 104.2,234.6 104.8,234.3 81.3,188.4 	"/>
	<polyline display="inline" fill="#4D4D4D" points="81.2,188.8 132.2,156.7 131.8,156.1 80.8,188.3 	"/>
	<polyline display="inline" fill="#4D4D4D" points="60.1,141.8 132,156.7 132.1,156.1 60.2,141.1 	"/>
	<polyline display="inline" fill="#4D4D4D" points="132.3,156.5 144.4,124.4 143.8,124.2 131.7,156.3 	"/>
	<polyline display="inline" fill="#4D4D4D" points="60.2,141.8 144.1,124.6 144,124 60.1,141.1 	"/>
	<polygon display="inline" fill="#4D4D4D" points="-7.7,71.6 59.9,141.7 60.4,141.2 -7.7,70.7 	"/>
	<polyline display="inline" fill="#4D4D4D" points="104.7,234.7 174.3,180.3 173.9,179.8 104.3,234.2 	"/>
	<polyline display="inline" fill="#4D4D4D" points="174.3,179.7 132.2,156.1 131.9,156.7 173.9,180.3 	"/>
	<polyline display="inline" fill="#4D4D4D" points="143.8,124.5 173.8,180.2 174.4,179.9 144.4,124.2 	"/>
	<polyline display="inline" fill="#4D4D4D" points="104.6,234.8 249,178.4 248.8,177.8 104.3,234.1 	"/>
	<polyline display="inline" fill="#4D4D4D" points="143.9,124.6 248.7,178.4 249,177.8 144.2,124 	"/>
	<polygon display="inline" fill="#4D4D4D" points="174.1,179.7 174.1,180.4 248.8,178.5 248.8,177.8 	"/>
	<polyline display="inline" fill="#4D4D4D" points="104.4,234.8 214.6,267.3 214.8,266.7 104.6,234.1 	"/>
	<polyline display="inline" fill="#4D4D4D" points="248.6,178 214.4,266.9 215,267.1 249.2,178.2 	"/>
	<polyline display="inline" fill="#4D4D4D" points="248.6,178.2 289.5,300.3 290.2,300.1 249.2,178 	"/>
	<polyline display="inline" fill="#4D4D4D" points="214.5,267.3 289.7,300.5 290,299.9 214.8,266.7 	"/>
	<polyline display="inline" fill="#4D4D4D" points="104.4,234.8 201.8,238.4 201.8,237.7 104.5,234.1 	"/>
	<polyline display="inline" fill="#4D4D4D" points="201.5,238.2 214.4,267.1 215,266.8 202.1,237.9 	"/>
	<polyline display="inline" fill="#4D4D4D" points="248.6,177.9 201.5,237.8 202,238.3 249.1,178.3 	"/>
	<polyline display="inline" fill="#4D4D4D" points="104.3,234.2 20.9,299.3 21.3,299.8 104.7,234.7 	"/>
	<polyline display="inline" fill="#4D4D4D" points="29.6,226.3 20.8,299.5 21.4,299.6 30.3,226.4 	"/>
	<polyline display="inline" fill="#4D4D4D" points="144.3,124.1 7.3,-0.5 6.9,0 143.9,124.6 	"/>
	<polyline display="inline" fill="#4D4D4D" points="214.5,266.7 169.9,299.5 170.3,300 214.9,267.3 	"/>
	<line display="inline" fill="#4D4D4D" stroke="#4D4D4D" stroke-miterlimit="10" x1="60.2" y1="141.5" x2="7.1" y2="-0.5"/>
</g>
<g id="IO15">
	<g>
		<g>
			<defs>
				<rect id="SVGID_66_" x="604.3" y="121.8" width="978" height="263.4"/>
			</defs>
			<clipPath id="SVGID_67_">
				<use xlink:href="#SVGID_66_"  overflow="visible"/>
			</clipPath>
			<g clip-path="url(#SVGID_67_)">
				<defs>
					<rect id="SVGID_68_" x="604.3" y="121.8" width="978" height="263.4"/>
				</defs>
				<clipPath id="SVGID_69_">
					<use xlink:href="#SVGID_68_"  overflow="visible"/>
				</clipPath>
				<path clip-path="url(#SVGID_69_)" fill-rule="evenodd" clip-rule="evenodd" fill="#646464" d="M818.3,268.6
					c-0.7,0.4-1.4,0.8-2,1.1c-2,0.9-4.1,1.2-6,1.2c-2,0-5.1-0.1-8.2-2.4c-4.4-3.1-6.3-8.4-6.3-13c0-9.6,7.8-14.3,14.2-14.3
					c2.2,0,4.5,0.6,6.4,1.7c3.1,2,3.9,4.7,4.3,6.1l-14.5,5.9l-4.8,0.4c1.5,7.8,6.9,12.4,12.7,12.4c3.2,0,5.4-1.1,7.5-2.2
					L818.3,268.6z M812.5,250.2c1.2-0.4,1.8-0.8,1.8-1.7c0-2.5-2.8-5.3-6.1-5.3c-2.5,0-7.1,1.9-7.1,8.6c0,1.1,0.1,2.2,0.2,3.3
					L812.5,250.2z"/>
				<path clip-path="url(#SVGID_69_)" fill-rule="evenodd" clip-rule="evenodd" fill="#646464" d="M794.3,270h-10.9
					c1.4-1.9,1.7-2,1.7-3.3v-10.1c0-4.8,0.1-11.7,0.2-18.1c0.1-3.2,0.3-7.1,0.4-10h-4.8l4.6-2.2h8.8c-1.9,1.1-2.5,1.5-2.8,3.6
					c-0.5,4.8-0.6,12.3-0.6,21.1v14.3c0,2.4,0.4,2.8,2.5,3c1,0.1,2.1,0.2,3.2,0.3L794.3,270z"/>
				<path clip-path="url(#SVGID_69_)" fill-rule="evenodd" clip-rule="evenodd" fill="#646464" d="M774,244.2
					c1.4,1.2,4.4,3.6,4.4,8.3c0,4.6-2.6,6.7-5.2,8.8c-0.8,0.8-1.7,1.7-1.7,3c0,1.4,0.9,2.1,1.6,2.7l2.2,1.7c2.7,2.3,5.2,4.4,5.2,8.7
					c0,5.8-5.6,11.7-16.3,11.7c-9,0-13.3-4.3-13.3-8.8c0-2.2,1.1-5.4,4.8-7.5c3.8-2.3,9-2.7,11.8-2.8c-0.9-1.1-1.9-2.3-1.9-4.2
					c0-1,0.3-1.7,0.6-2.4c-0.7,0.1-1.4,0.1-2,0.1c-6.6,0-10.3-4.9-10.3-9.7c0-2.8,1.3-6,4-8.3c3.5-2.9,7.7-3.4,11.1-3.4h12.7l-4,2.2
					H774z M769.6,271.7c-0.5-0.1-0.8-0.1-1.4-0.1c-0.6,0-3.9,0.1-6.5,1c-1.4,0.5-5.3,2-5.3,6.4s4.3,7.5,10.9,7.5
					c5.9,0,9.1-2.8,9.1-6.7C776.3,276.7,774.3,275,769.6,271.7 M771.4,259.9c1.4-1.4,1.5-3.4,1.5-4.5c0-4.5-2.7-11.4-7.8-11.4
					c-1.6,0-3.3,0.8-4.3,2c-1.1,1.3-1.4,3-1.4,4.6c0,4.1,2.4,11,7.7,11C768.7,261.7,770.4,260.9,771.4,259.9"/>
				<path clip-path="url(#SVGID_69_)" fill-rule="evenodd" clip-rule="evenodd" fill="#646464" d="M735.7,270.8
					c-9.8,0-15.1-7.7-15.1-14.6c0-8.1,6.6-15,16-15c9.1,0,14.8,7.1,14.8,14.6C751.4,263.1,745.7,270.8,735.7,270.8 M743.4,265.8
					c1.5-2,1.9-4.5,1.9-6.9c0-5.4-2.6-15.8-10.3-15.8c-2,0-4.1,0.8-5.6,2.1c-2.4,2.2-2.8,4.9-2.8,7.5c0,6.1,3,16.2,10.5,16.2
					C739.5,269,742,267.8,743.4,265.8"/>
				<path clip-path="url(#SVGID_69_)" fill-rule="evenodd" clip-rule="evenodd" fill="#646464" d="M702.8,270.8
					c-9.8,0-15.1-7.7-15.1-14.6c0-8.1,6.6-15,16-15c9.1,0,14.8,7.1,14.8,14.6C718.5,263.1,712.8,270.8,702.8,270.8 M710.5,265.8
					c1.5-2,1.9-4.5,1.9-6.9c0-5.4-2.6-15.8-10.3-15.8c-2,0-4.1,0.8-5.6,2.1c-2.4,2.2-2.8,4.9-2.8,7.5c0,6.1,3,16.2,10.5,16.2
					C706.6,269,709.1,267.8,710.5,265.8"/>
				<path clip-path="url(#SVGID_69_)" fill-rule="evenodd" clip-rule="evenodd" fill="#646464" d="M683.7,268.6l-8.3,1.9
					c-3.4,0.5-6.4,1-9.6,1c-16,0-22.1-11.8-22.1-21c0-11.2,8.6-21.7,23.4-21.7c3.1,0,6.1,0.5,8.9,1.2c4.3,1.2,6.4,2.7,7.7,3.6
					l-4.8,4.6l-2,0.5l1.4-2.3c-2-1.9-5.6-5.4-12.4-5.4c-9.2,0-16.1,7-16.1,17.1c0,10.9,7.9,21.2,20.5,21.2c3.7,0,5.6-0.8,7.4-1.4
					v-9.3l-8.8,0.5l4.6-2.5h12.3l-1.5,1.4c-0.4,0.3-0.5,0.5-0.6,0.9c-0.1,0.5-0.1,2.2-0.1,2.8V268.6z"/>
				
					<rect x="959.8" y="146.7" transform="matrix(0.9744 0.2247 -0.2247 0.9744 80.1812 -210.4987)" clip-path="url(#SVGID_69_)" fill-rule="evenodd" clip-rule="evenodd" fill="#FFFFFF" width="9.9" height="200.5"/>
				
					<rect x="860.8" y="177.8" clip-path="url(#SVGID_69_)" fill-rule="evenodd" clip-rule="evenodd" fill="#FFFFFF" width="69.2" height="138.3"/>
				<path clip-path="url(#SVGID_69_)" fill="#FFFFFF" d="M1058.4,182.7c35.4,0,64.2,28.8,64.2,64.2s-28.8,64.2-64.2,64.2
					c-35.4,0-64.2-28.8-64.2-64.2S1023,182.7,1058.4,182.7 M1058.4,172.9c-40.9,0-74.1,33.2-74.1,74.1s33.2,74.1,74.1,74.1
					c40.9,0,74.1-33.2,74.1-74.1S1099.3,172.9,1058.4,172.9"/>
				<polygon clip-path="url(#SVGID_69_)" fill="#FFFFFF" points="1052.4,258.5 1047.8,258.5 1047.8,240.6 1042.2,242.3 
					1042.2,238.5 1051.9,235.1 1052.4,235.1 				"/>
				<path clip-path="url(#SVGID_69_)" fill="#FFFFFF" d="M1057.6,247l1.4-11.9h13.1v3.9h-9.3l-0.6,5c0.2-0.1,0.4-0.2,0.6-0.3
					c0.2-0.1,0.5-0.2,0.8-0.3c0.3-0.1,0.6-0.2,1-0.2c0.4-0.1,0.7-0.1,1.1-0.1c1.1,0,2.1,0.2,3,0.5c0.9,0.4,1.6,0.9,2.2,1.6
					c0.6,0.7,1.1,1.5,1.4,2.5c0.3,1,0.5,2.1,0.5,3.3c0,1-0.2,2-0.5,3c-0.3,0.9-0.8,1.8-1.5,2.5c-0.7,0.7-1.5,1.3-2.5,1.7
					c-1,0.4-2.2,0.6-3.5,0.6c-1,0-2-0.2-2.9-0.5c-0.9-0.3-1.8-0.7-2.5-1.3c-0.7-0.6-1.3-1.3-1.8-2.1c-0.5-0.8-0.7-1.8-0.7-2.9h4.6
					c0.1,1,0.4,1.7,1,2.3c0.6,0.5,1.3,0.8,2.3,0.8c0.6,0,1.1-0.1,1.5-0.3c0.4-0.2,0.8-0.5,1-0.9c0.3-0.4,0.5-0.8,0.6-1.4
					c0.1-0.5,0.2-1.1,0.2-1.7s-0.1-1.2-0.2-1.7c-0.1-0.5-0.4-0.9-0.7-1.3c-0.3-0.4-0.7-0.6-1.2-0.8c-0.5-0.2-1-0.3-1.7-0.3
					c-0.4,0-0.8,0-1.1,0.1c-0.3,0.1-0.6,0.2-0.8,0.3c-0.2,0.1-0.5,0.3-0.7,0.4c-0.2,0.2-0.4,0.3-0.5,0.5L1057.6,247z"/>
			</g>
		</g>
	</g>
</g>
<g id="IO15_No_city" display="none">
	<g display="inline">
		<g>
			<defs>
				<rect id="SVGID_70_" x="267.1" y="11" width="922.2" height="248.4"/>
			</defs>
			<clipPath id="SVGID_71_">
				<use xlink:href="#SVGID_70_"  overflow="visible"/>
			</clipPath>
			<polygon clip-path="url(#SVGID_71_)" fill="#646464" points="843.2,133.1 812.7,133.1 812.7,160.2 847.8,160.2 847.8,164.7 
				807.4,164.7 807.4,99.5 847.6,99.5 847.6,104.1 812.7,104.1 812.7,128.6 843.2,128.6 			"/>
			<polygon clip-path="url(#SVGID_71_)" fill="#646464" points="873.8,135.9 886.9,116.2 893.3,116.2 876.8,140 894,164.7 
				887.7,164.7 873.9,144.2 860.1,164.7 853.8,164.7 870.9,140 854.4,116.2 860.8,116.2 			"/>
			<g clip-path="url(#SVGID_71_)">
				<defs>
					<rect id="SVGID_72_" x="267.1" y="11" width="922.2" height="248.4"/>
				</defs>
				<clipPath id="SVGID_73_">
					<use xlink:href="#SVGID_72_"  overflow="visible"/>
				</clipPath>
				<path clip-path="url(#SVGID_73_)" fill="#646464" d="M912,103.8v12.4h10v4.4h-10v31.2c0,1.8,0.2,3.2,0.5,4.4
					c0.3,1.2,0.8,2.1,1.4,2.8c0.6,0.7,1.3,1.2,2,1.5c0.8,0.3,1.6,0.4,2.4,0.4c0.8,0,1.6-0.1,2.3-0.2c0.7-0.1,1.4-0.2,2-0.3l0.2,4.4
					c-1.5,0.5-3.4,0.8-5.7,0.8c-1.6,0-3-0.3-4.3-0.8c-1.3-0.5-2.4-1.3-3.3-2.4c-0.9-1.1-1.7-2.5-2.2-4.3c-0.5-1.7-0.8-3.9-0.8-6.4
					v-31.2h-8.9v-4.4h8.9v-12.4H912z"/>
				<path clip-path="url(#SVGID_73_)" fill="#646464" d="M947,165.6c-3.2,0-6.1-0.6-8.7-1.8c-2.7-1.2-4.9-2.8-6.9-4.9
					c-1.9-2.1-3.4-4.6-4.5-7.5c-1.1-2.9-1.6-6.1-1.6-9.5v-1.9c0-3.7,0.6-7.1,1.7-10.1c1.1-3,2.6-5.6,4.5-7.7
					c1.9-2.1,4.1-3.8,6.6-4.9c2.5-1.2,5.1-1.7,7.9-1.7c3.1,0,5.8,0.6,8.2,1.7c2.4,1.1,4.4,2.6,6,4.6c1.6,2,2.9,4.3,3.7,7
					c0.8,2.7,1.3,5.7,1.3,8.9v3.3h-34.6v1c0,2.7,0.4,5.2,1.2,7.5c0.8,2.3,1.9,4.4,3.4,6.1c1.5,1.7,3.2,3.1,5.2,4.1
					c2,1,4.3,1.5,6.8,1.5c2.9,0,5.4-0.5,7.6-1.6c2.2-1.1,4.2-2.7,6-5l3.4,2.6c-0.8,1.2-1.7,2.3-2.8,3.3c-1.1,1-2.3,2-3.7,2.7
					c-1.4,0.8-3,1.4-4.7,1.8C951.2,165.4,949.2,165.6,947,165.6 M946.1,119.9c-2,0-3.9,0.4-5.6,1.2c-1.7,0.8-3.3,1.9-4.6,3.3
					c-1.3,1.4-2.4,3.2-3.3,5.2c-0.8,2-1.4,4.2-1.7,6.7h29.1v-0.6c-0.1-2-0.4-4-1-5.9c-0.6-1.9-1.5-3.6-2.6-5
					c-1.1-1.5-2.6-2.6-4.3-3.5C950.3,120.4,948.3,119.9,946.1,119.9"/>
				<path clip-path="url(#SVGID_73_)" fill="#646464" d="M978.7,116.2l0.2,8.3c0.8-1.4,1.8-2.6,2.9-3.8c1.1-1.1,2.3-2.1,3.6-2.9
					c1.3-0.8,2.8-1.4,4.3-1.9c1.6-0.4,3.2-0.7,4.9-0.7c2.4,0,4.6,0.3,6.5,1c1.9,0.7,3.5,1.7,4.9,3.1c1.3,1.4,2.3,3.3,3,5.5
					c0.7,2.3,1.1,5,1.1,8.2v31.5h-5.3v-31.6c0-2.5-0.3-4.6-0.8-6.3c-0.5-1.7-1.3-3-2.3-4c-1-1-2.2-1.7-3.6-2.2
					c-1.4-0.4-3-0.7-4.7-0.7c-1.9,0-3.6,0.3-5.2,1c-1.6,0.6-2.9,1.5-4.1,2.6c-1.2,1.1-2.2,2.3-3.1,3.7c-0.9,1.4-1.6,2.8-2.1,4.3
					v33.2h-5.3v-48.5H978.7z"/>
				<path clip-path="url(#SVGID_73_)" fill="#646464" d="M1019.4,140c0-3.8,0.4-7.2,1.3-10.2c0.9-3,2.1-5.6,3.7-7.8
					c1.6-2.1,3.6-3.8,5.9-5c2.3-1.2,4.9-1.7,7.8-1.7c3.4,0,6.4,0.7,8.8,2.1c2.5,1.4,4.5,3.3,6.1,5.7V95.9h5.3v68.8h-5l-0.2-6.4
					c-1.6,2.3-3.7,4.1-6.2,5.4c-2.5,1.3-5.5,1.9-9,1.9c-2.9,0-5.4-0.6-7.7-1.8c-2.3-1.2-4.3-2.9-5.9-5.1c-1.6-2.2-2.9-4.8-3.7-7.8
					c-0.9-3-1.3-6.3-1.3-10V140z M1024.9,141c0,2.8,0.3,5.5,0.9,7.9c0.6,2.4,1.4,4.5,2.6,6.3c1.2,1.8,2.6,3.2,4.4,4.2
					c1.8,1,3.9,1.5,6.3,1.5c1.8,0,3.5-0.2,4.9-0.6c1.5-0.4,2.8-1,3.9-1.8c1.1-0.8,2.2-1.7,3-2.8c0.9-1.1,1.6-2.2,2.2-3.5v-22.8
					c-0.5-1.2-1.2-2.4-2-3.5c-0.8-1.1-1.7-2.1-2.9-3c-1.1-0.9-2.4-1.6-3.9-2.1c-1.5-0.5-3.2-0.8-5.2-0.8c-2.5,0-4.6,0.5-6.4,1.5
					c-1.8,1-3.3,2.4-4.4,4.2c-1.2,1.8-2,3.9-2.6,6.4c-0.6,2.4-0.9,5.1-0.9,7.9V141z"/>
				<path clip-path="url(#SVGID_73_)" fill="#646464" d="M1089.1,165.6c-3.2,0-6.1-0.6-8.7-1.8c-2.7-1.2-4.9-2.8-6.9-4.9
					c-1.9-2.1-3.4-4.6-4.5-7.5c-1.1-2.9-1.6-6.1-1.6-9.5v-1.9c0-3.7,0.6-7.1,1.7-10.1c1.1-3,2.6-5.6,4.5-7.7
					c1.9-2.1,4.1-3.8,6.6-4.9c2.5-1.2,5.1-1.7,7.9-1.7c3.1,0,5.8,0.6,8.2,1.7c2.4,1.1,4.4,2.6,6,4.6c1.6,2,2.9,4.3,3.7,7
					c0.8,2.7,1.3,5.7,1.3,8.9v3.3h-34.6v1c0,2.7,0.4,5.2,1.2,7.5c0.8,2.3,1.9,4.4,3.4,6.1c1.5,1.7,3.2,3.1,5.2,4.1
					c2,1,4.3,1.5,6.8,1.5c2.9,0,5.4-0.5,7.6-1.6c2.2-1.1,4.2-2.7,6-5l3.4,2.6c-0.8,1.2-1.7,2.3-2.8,3.3c-1.1,1-2.3,2-3.7,2.7
					c-1.4,0.8-3,1.4-4.7,1.8C1093.2,165.4,1091.3,165.6,1089.1,165.6 M1088.1,119.9c-2,0-3.9,0.4-5.6,1.2c-1.7,0.8-3.3,1.9-4.6,3.3
					c-1.3,1.4-2.4,3.2-3.3,5.2c-0.9,2-1.4,4.2-1.7,6.7h29.1v-0.6c-0.1-2-0.4-4-1-5.9c-0.6-1.9-1.5-3.6-2.6-5
					c-1.1-1.5-2.6-2.6-4.3-3.5C1092.4,120.4,1090.4,119.9,1088.1,119.9"/>
				<path clip-path="url(#SVGID_73_)" fill="#646464" d="M1113.7,140c0-3.8,0.4-7.2,1.3-10.2c0.9-3,2.1-5.6,3.7-7.8
					c1.6-2.1,3.6-3.8,5.9-5c2.3-1.2,4.9-1.7,7.8-1.7c3.4,0,6.4,0.7,8.8,2.1c2.5,1.4,4.5,3.3,6.1,5.7V95.9h5.3v68.8h-5l-0.2-6.4
					c-1.6,2.3-3.7,4.1-6.2,5.4c-2.5,1.3-5.5,1.9-9,1.9c-2.9,0-5.4-0.6-7.7-1.8c-2.3-1.2-4.3-2.9-5.9-5.1c-1.6-2.2-2.9-4.8-3.7-7.8
					c-0.9-3-1.3-6.3-1.3-10V140z M1119.2,141c0,2.8,0.3,5.5,0.9,7.9c0.6,2.4,1.4,4.5,2.6,6.3c1.2,1.8,2.6,3.2,4.4,4.2
					c1.8,1,3.9,1.5,6.3,1.5c1.8,0,3.5-0.2,4.9-0.6s2.8-1,3.9-1.8c1.1-0.8,2.2-1.7,3-2.8c0.9-1.1,1.6-2.2,2.2-3.5v-22.8
					c-0.5-1.2-1.2-2.4-2-3.5c-0.8-1.1-1.7-2.1-2.9-3c-1.1-0.9-2.4-1.6-3.9-2.1c-1.5-0.5-3.2-0.8-5.2-0.8c-2.5,0-4.6,0.5-6.4,1.5
					c-1.8,1-3.3,2.4-4.4,4.2c-1.2,1.8-2,3.9-2.6,6.4c-0.6,2.4-0.9,5.1-0.9,7.9V141z"/>
				<path clip-path="url(#SVGID_73_)" fill-rule="evenodd" clip-rule="evenodd" fill="#646464" d="M468.9,149.5
					c-0.6,0.4-1.3,0.8-1.9,1.1c-1.9,0.9-3.9,1.1-5.7,1.1c-1.9,0-4.8-0.1-7.8-2.3c-4.1-2.9-5.9-7.9-5.9-12.3c0-9,7.3-13.5,13.4-13.5
					c2.1,0,4.3,0.5,6,1.6c2.9,1.9,3.7,4.4,4.1,5.8l-13.7,5.5l-4.5,0.4c1.5,7.4,6.5,11.7,12,11.7c3,0,5.1-1,7.1-2L468.9,149.5z
					 M463.5,132.1c1.1-0.4,1.7-0.8,1.7-1.6c0-2.3-2.6-5-5.8-5c-2.3,0-6.7,1.8-6.7,8.1c0,1,0.1,2,0.2,3.1L463.5,132.1z"/>
				<path clip-path="url(#SVGID_73_)" fill-rule="evenodd" clip-rule="evenodd" fill="#646464" d="M446.3,150.8h-10.3
					c1.3-1.7,1.6-1.9,1.6-3.1v-9.5c0-4.5,0.1-11,0.2-17.1c0.1-3,0.3-6.7,0.3-9.4h-4.5l4.4-2.1h8.3c-1.8,1.1-2.4,1.4-2.6,3.4
					c-0.5,4.5-0.5,11.6-0.5,19.9v13.5c0,2.3,0.4,2.6,2.3,2.8c1,0.1,2,0.2,3,0.3L446.3,150.8z"/>
				<path clip-path="url(#SVGID_73_)" fill-rule="evenodd" clip-rule="evenodd" fill="#646464" d="M427.1,126.4
					c1.3,1.1,4.1,3.4,4.1,7.9c0,4.3-2.4,6.4-4.9,8.3c-0.8,0.8-1.6,1.6-1.6,2.9c0,1.3,0.9,2,1.5,2.5l2.1,1.6c2.6,2.2,4.9,4.1,4.9,8.2
					c0,5.5-5.3,11-15.3,11c-8.5,0-12.5-4-12.5-8.3c0-2.1,1.1-5.1,4.5-7.1c3.6-2.2,8.5-2.5,11.1-2.7c-0.8-1.1-1.7-2.2-1.7-4
					c0-1,0.3-1.6,0.6-2.3c-0.6,0.1-1.3,0.1-1.9,0.1c-6.2,0-9.7-4.6-9.7-9.2c0-2.7,1.2-5.7,3.7-7.8c3.3-2.7,7.3-3.2,10.4-3.2h12
					l-3.7,2.1H427.1z M423,152.3c-0.5-0.1-0.8-0.1-1.3-0.1c-0.5,0-3.7,0.1-6.1,0.9c-1.3,0.5-5,1.9-5,6c0,4.1,4,7.1,10.3,7.1
					c5.6,0,8.6-2.7,8.6-6.3C429.4,157.1,427.4,155.5,423,152.3 M424.7,141.3c1.3-1.3,1.5-3.2,1.5-4.3c0-4.2-2.5-10.7-7.3-10.7
					c-1.5,0-3.1,0.8-4.1,1.9c-1,1.2-1.3,2.8-1.3,4.3c0,3.9,2.3,10.4,7.3,10.4C422.2,142.9,423.8,142.2,424.7,141.3"/>
				<path clip-path="url(#SVGID_73_)" fill-rule="evenodd" clip-rule="evenodd" fill="#646464" d="M391,151.5
					c-9.3,0-14.2-7.2-14.2-13.8c0-7.6,6.2-14.2,15.1-14.2c8.6,0,13.9,6.7,13.9,13.8C405.8,144.2,400.5,151.5,391,151.5 M398.3,146.8
					c1.4-1.9,1.8-4.2,1.8-6.5c0-5.1-2.4-14.9-9.7-14.9c-1.9,0-3.8,0.8-5.2,2c-2.3,2-2.7,4.6-2.7,7.1c0,5.8,2.9,15.3,9.9,15.3
					C394.6,149.8,396.9,148.7,398.3,146.8"/>
				<path clip-path="url(#SVGID_73_)" fill-rule="evenodd" clip-rule="evenodd" fill="#646464" d="M360,151.5
					c-9.3,0-14.2-7.2-14.2-13.8c0-7.6,6.2-14.2,15.1-14.2c8.6,0,13.9,6.7,13.9,13.8C374.8,144.2,369.5,151.5,360,151.5 M367.3,146.8
					c1.4-1.9,1.7-4.2,1.7-6.5c0-5.1-2.4-14.9-9.7-14.9c-1.9,0-3.8,0.8-5.2,2c-2.3,2-2.7,4.6-2.7,7.1c0,5.8,2.9,15.3,9.9,15.3
					C363.6,149.8,365.9,148.7,367.3,146.8"/>
				<path clip-path="url(#SVGID_73_)" fill-rule="evenodd" clip-rule="evenodd" fill="#646464" d="M342,149.5l-7.8,1.8
					c-3.2,0.5-6,0.9-9,0.9c-15.1,0-20.8-11.1-20.8-19.8c0-10.6,8.1-20.4,22.1-20.4c2.9,0,5.8,0.4,8.4,1.2c4.1,1.1,6,2.6,7.2,3.4
					l-4.5,4.3l-1.9,0.4l1.4-2.2c-1.9-1.8-5.2-5.1-11.7-5.1c-8.6,0-15.1,6.6-15.1,16.1c0,10.3,7.4,20,19.4,20c3.5,0,5.3-0.7,6.9-1.4
					v-8.8l-8.3,0.4l4.4-2.3h11.6l-1.4,1.4c-0.4,0.3-0.4,0.4-0.5,0.9c-0.1,0.5-0.1,2.1-0.1,2.6V149.5z"/>
				
					<rect x="602.8" y="34.5" transform="matrix(0.9744 0.2247 -0.2247 0.9744 44.5376 -133.2158)" clip-path="url(#SVGID_73_)" fill-rule="evenodd" clip-rule="evenodd" fill="#00BCD4" width="9.3" height="189"/>
				
					<rect x="509.4" y="63.8" clip-path="url(#SVGID_73_)" fill-rule="evenodd" clip-rule="evenodd" fill="#00BCD4" width="65.2" height="130.4"/>
				<path clip-path="url(#SVGID_73_)" fill="#00BCD4" d="M695.7,68.5c33.4,0,60.5,27.2,60.5,60.5s-27.2,60.5-60.5,60.5
					c-33.4,0-60.5-27.2-60.5-60.5S662.3,68.5,695.7,68.5 M695.7,59.2c-38.6,0-69.9,31.3-69.9,69.9s31.3,69.9,69.9,69.9
					c38.6,0,69.9-31.3,69.9-69.9S734.3,59.2,695.7,59.2"/>
				<polygon clip-path="url(#SVGID_73_)" fill="#00BCD4" points="690.1,139.9 685.7,139.9 685.7,123 680.5,124.7 680.5,121.1 
					689.6,117.8 690.1,117.8 				"/>
				<path clip-path="url(#SVGID_73_)" fill="#00BCD4" d="M695,129.1l1.3-11.2h12.4v3.7h-8.8l-0.5,4.7c0.2-0.1,0.3-0.2,0.6-0.3
					c0.2-0.1,0.5-0.2,0.8-0.3c0.3-0.1,0.6-0.2,0.9-0.2c0.3-0.1,0.7-0.1,1.1-0.1c1.1,0,2,0.2,2.8,0.5c0.8,0.3,1.5,0.8,2.1,1.5
					c0.6,0.6,1,1.4,1.3,2.3c0.3,0.9,0.5,2,0.5,3.1c0,1-0.2,1.9-0.5,2.8c-0.3,0.9-0.8,1.7-1.4,2.3c-0.6,0.7-1.4,1.2-2.3,1.6
					c-0.9,0.4-2,0.6-3.3,0.6c-1,0-1.9-0.1-2.8-0.4c-0.9-0.3-1.7-0.7-2.4-1.3c-0.7-0.6-1.2-1.2-1.7-2c-0.4-0.8-0.7-1.7-0.7-2.7h4.3
					c0.1,0.9,0.4,1.6,1,2.1c0.5,0.5,1.3,0.8,2.2,0.8c0.6,0,1-0.1,1.4-0.3c0.4-0.2,0.7-0.5,1-0.9c0.2-0.4,0.4-0.8,0.5-1.3
					c0.1-0.5,0.2-1,0.2-1.6s-0.1-1.1-0.2-1.6c-0.1-0.5-0.4-0.9-0.7-1.2c-0.3-0.3-0.7-0.6-1.1-0.8c-0.4-0.2-1-0.3-1.6-0.3
					c-0.4,0-0.8,0-1.1,0.1c-0.3,0.1-0.6,0.2-0.8,0.3c-0.2,0.1-0.4,0.2-0.6,0.4c-0.2,0.1-0.3,0.3-0.5,0.4L695,129.1z"/>
			</g>
		</g>
	</g>
</g>
<g id="IO15_vert" display="none">
	<g display="inline">
		<g>
			<defs>
				<rect id="SVGID_74_" x="936.1" y="-12.1" width="250.8" height="318.6"/>
			</defs>
			<clipPath id="SVGID_75_">
				<use xlink:href="#SVGID_74_"  overflow="visible"/>
			</clipPath>
			<polygon clip-path="url(#SVGID_75_)" fill="#646464" points="988.6,256.2 972.8,256.2 972.8,270.2 991,270.2 991,272.6 
				970,272.6 970,238.7 990.9,238.7 990.9,241 972.8,241 972.8,253.8 988.6,253.8 			"/>
			<polygon clip-path="url(#SVGID_75_)" fill="#646464" points="1005,257.6 1011.8,247.4 1015.1,247.4 1006.6,259.8 1015.5,272.6 
				1012.2,272.6 1005,261.9 997.9,272.6 994.6,272.6 1003.5,259.8 994.9,247.4 998.2,247.4 			"/>
			<g clip-path="url(#SVGID_75_)">
				<defs>
					<rect id="SVGID_76_" x="936.1" y="-12.1" width="250.8" height="318.6"/>
				</defs>
				<clipPath id="SVGID_77_">
					<use xlink:href="#SVGID_76_"  overflow="visible"/>
				</clipPath>
				<path clip-path="url(#SVGID_77_)" fill="#646464" d="M1025.4,240.9v6.5h5.2v2.3h-5.2v16.2c0,0.9,0.1,1.7,0.3,2.3
					c0.2,0.6,0.4,1.1,0.7,1.5c0.3,0.4,0.7,0.6,1,0.8c0.4,0.1,0.8,0.2,1.2,0.2c0.4,0,0.8,0,1.2-0.1c0.4-0.1,0.7-0.1,1-0.2l0.1,2.3
					c-0.8,0.3-1.8,0.4-3,0.4c-0.8,0-1.5-0.1-2.2-0.4c-0.7-0.3-1.2-0.7-1.7-1.2c-0.5-0.6-0.9-1.3-1.1-2.2c-0.3-0.9-0.4-2-0.4-3.3
					v-16.2h-4.6v-2.3h4.6v-6.5H1025.4z"/>
				<path clip-path="url(#SVGID_77_)" fill="#646464" d="M1044.1,273.1c-1.6,0-3.2-0.3-4.5-0.9c-1.4-0.6-2.6-1.5-3.6-2.6
					c-1-1.1-1.8-2.4-2.3-3.9c-0.6-1.5-0.8-3.2-0.8-5v-1c0-1.9,0.3-3.7,0.9-5.3c0.6-1.6,1.4-2.9,2.4-4c1-1.1,2.1-2,3.4-2.6
					c1.3-0.6,2.7-0.9,4.1-0.9c1.6,0,3,0.3,4.3,0.9c1.2,0.6,2.3,1.4,3.1,2.4c0.8,1,1.5,2.2,1.9,3.7c0.4,1.4,0.7,3,0.7,4.6v1.7h-18
					v0.5c0,1.4,0.2,2.7,0.6,3.9c0.4,1.2,1,2.3,1.8,3.2c0.8,0.9,1.7,1.6,2.7,2.1c1.1,0.5,2.2,0.8,3.5,0.8c1.5,0,2.8-0.3,3.9-0.8
					c1.1-0.6,2.2-1.4,3.1-2.6l1.7,1.3c-0.4,0.6-0.9,1.2-1.5,1.7c-0.6,0.5-1.2,1-1.9,1.4c-0.7,0.4-1.6,0.7-2.5,1
					C1046.2,273,1045.2,273.1,1044.1,273.1 M1043.6,249.3c-1.1,0-2,0.2-2.9,0.6c-0.9,0.4-1.7,1-2.4,1.7c-0.7,0.7-1.3,1.6-1.7,2.7
					c-0.4,1-0.7,2.2-0.9,3.5h15.1v-0.3c0-1.1-0.2-2.1-0.5-3.1c-0.3-1-0.8-1.9-1.4-2.6c-0.6-0.8-1.3-1.4-2.2-1.8
					C1045.8,249.5,1044.7,249.3,1043.6,249.3"/>
				<path clip-path="url(#SVGID_77_)" fill="#646464" d="M1061,247.4l0.1,4.3c0.4-0.7,0.9-1.4,1.5-2c0.6-0.6,1.2-1.1,1.9-1.5
					c0.7-0.4,1.5-0.7,2.3-1c0.8-0.2,1.7-0.3,2.6-0.3c1.3,0,2.4,0.2,3.4,0.5c1,0.3,1.8,0.9,2.5,1.6c0.7,0.7,1.2,1.7,1.6,2.9
					c0.4,1.2,0.5,2.6,0.5,4.3v16.4h-2.8v-16.4c0-1.3-0.1-2.4-0.4-3.3c-0.3-0.9-0.7-1.6-1.2-2.1c-0.5-0.5-1.1-0.9-1.9-1.1
					c-0.7-0.2-1.6-0.3-2.5-0.3c-1,0-1.9,0.2-2.7,0.5c-0.8,0.3-1.5,0.8-2.1,1.3c-0.6,0.6-1.2,1.2-1.6,1.9c-0.5,0.7-0.8,1.5-1.1,2.2
					v17.3h-2.8v-25.2H1061z"/>
				<path clip-path="url(#SVGID_77_)" fill="#646464" d="M1082.7,259.8c0-2,0.2-3.7,0.7-5.3c0.5-1.6,1.1-2.9,1.9-4
					c0.8-1.1,1.9-2,3.1-2.6c1.2-0.6,2.6-0.9,4.1-0.9c1.8,0,3.3,0.4,4.6,1.1c1.3,0.7,2.3,1.7,3.2,3v-14.1h2.8v35.8h-2.6l-0.1-3.4
					c-0.8,1.2-1.9,2.1-3.2,2.8c-1.3,0.7-2.9,1-4.7,1c-1.5,0-2.8-0.3-4-0.9c-1.2-0.6-2.2-1.5-3.1-2.6c-0.8-1.1-1.5-2.5-1.9-4
					c-0.5-1.6-0.7-3.3-0.7-5.2V259.8z M1085.5,260.3c0,1.5,0.1,2.8,0.4,4.1c0.3,1.3,0.7,2.4,1.4,3.3c0.6,0.9,1.4,1.7,2.3,2.2
					c0.9,0.5,2,0.8,3.3,0.8c0.9,0,1.8-0.1,2.6-0.3c0.8-0.2,1.5-0.5,2.1-1c0.6-0.4,1.1-0.9,1.6-1.5c0.4-0.6,0.8-1.2,1.1-1.8v-11.8
					c-0.3-0.6-0.6-1.3-1-1.8c-0.4-0.6-0.9-1.1-1.5-1.6c-0.6-0.5-1.3-0.8-2.1-1.1c-0.8-0.3-1.7-0.4-2.7-0.4c-1.3,0-2.4,0.3-3.3,0.8
					c-0.9,0.5-1.7,1.3-2.3,2.2c-0.6,0.9-1.1,2-1.4,3.3c-0.3,1.3-0.4,2.6-0.4,4.1V260.3z"/>
				<path clip-path="url(#SVGID_77_)" fill="#646464" d="M1119.4,273.1c-1.6,0-3.2-0.3-4.5-0.9c-1.4-0.6-2.6-1.5-3.6-2.6
					c-1-1.1-1.8-2.4-2.3-3.9c-0.6-1.5-0.8-3.2-0.8-5v-1c0-1.9,0.3-3.7,0.9-5.3c0.6-1.6,1.4-2.9,2.4-4c1-1.1,2.1-2,3.4-2.6
					c1.3-0.6,2.7-0.9,4.1-0.9c1.6,0,3,0.3,4.3,0.9c1.2,0.6,2.3,1.4,3.1,2.4c0.8,1,1.5,2.2,1.9,3.7c0.4,1.4,0.7,3,0.7,4.6v1.7h-18
					v0.5c0,1.4,0.2,2.7,0.6,3.9c0.4,1.2,1,2.3,1.8,3.2c0.8,0.9,1.7,1.6,2.7,2.1c1.1,0.5,2.2,0.8,3.5,0.8c1.5,0,2.8-0.3,3.9-0.8
					c1.1-0.6,2.2-1.4,3.1-2.6l1.7,1.3c-0.4,0.6-0.9,1.2-1.5,1.7c-0.6,0.5-1.2,1-1.9,1.4c-0.7,0.4-1.6,0.7-2.5,1
					C1121.6,273,1120.6,273.1,1119.4,273.1 M1118.9,249.3c-1.1,0-2,0.2-2.9,0.6c-0.9,0.4-1.7,1-2.4,1.7c-0.7,0.7-1.3,1.6-1.7,2.7
					c-0.4,1-0.7,2.2-0.9,3.5h15.1v-0.3c0-1.1-0.2-2.1-0.5-3.1c-0.3-1-0.8-1.9-1.4-2.6c-0.6-0.8-1.3-1.4-2.2-1.8
					C1121.1,249.5,1120.1,249.3,1118.9,249.3"/>
				<path clip-path="url(#SVGID_77_)" fill="#646464" d="M1132.7,259.8c0-2,0.2-3.7,0.7-5.3c0.5-1.6,1.1-2.9,1.9-4
					c0.8-1.1,1.9-2,3.1-2.6c1.2-0.6,2.6-0.9,4.1-0.9c1.8,0,3.3,0.4,4.6,1.1c1.3,0.7,2.3,1.7,3.2,3v-14.1h2.8v35.8h-2.6l-0.1-3.4
					c-0.8,1.2-1.9,2.1-3.2,2.8c-1.3,0.7-2.9,1-4.7,1c-1.5,0-2.8-0.3-4-0.9c-1.2-0.6-2.2-1.5-3.1-2.6c-0.8-1.1-1.5-2.5-1.9-4
					c-0.5-1.6-0.7-3.3-0.7-5.2V259.8z M1135.5,260.3c0,1.5,0.1,2.8,0.4,4.1c0.3,1.3,0.7,2.4,1.4,3.3c0.6,0.9,1.4,1.7,2.3,2.2
					c0.9,0.5,2,0.8,3.3,0.8c0.9,0,1.8-0.1,2.6-0.3c0.8-0.2,1.5-0.5,2.1-1c0.6-0.4,1.1-0.9,1.6-1.5c0.4-0.6,0.8-1.2,1.1-1.8v-11.8
					c-0.3-0.6-0.6-1.3-1-1.8c-0.4-0.6-0.9-1.1-1.5-1.6c-0.6-0.5-1.3-0.8-2.1-1.1c-0.8-0.3-1.7-0.4-2.7-0.4c-1.3,0-2.4,0.3-3.3,0.8
					c-0.9,0.5-1.7,1.3-2.3,2.2c-0.6,0.9-1.1,2-1.4,3.3c-0.3,1.3-0.4,2.6-0.4,4.1V260.3z"/>
				<path clip-path="url(#SVGID_77_)" fill-rule="evenodd" clip-rule="evenodd" fill="#646464" d="M1149.6,61.1
					c-0.7,0.4-1.4,0.8-2.1,1.1c-2.1,1-4.3,1.2-6.2,1.2c-2,0-5.2-0.1-8.5-2.5c-4.5-3.2-6.5-8.7-6.5-13.4c0-9.9,8-14.7,14.6-14.7
					c2.3,0,4.6,0.6,6.6,1.8c3.2,2.1,4,4.8,4.5,6.3l-15,6l-4.9,0.4c1.6,8.1,7.1,12.8,13.1,12.8c3.2,0,5.6-1.1,7.8-2.2L1149.6,61.1z
					 M1143.6,42.1c1.2-0.4,1.8-0.8,1.8-1.7c0-2.5-2.9-5.5-6.3-5.5c-2.5,0-7.3,2-7.3,8.8c0,1.1,0.1,2.2,0.2,3.4L1143.6,42.1z"/>
				<path clip-path="url(#SVGID_77_)" fill-rule="evenodd" clip-rule="evenodd" fill="#646464" d="M1124.8,62.5h-11.3
					c1.5-1.9,1.7-2.1,1.7-3.4V48.8c0-5,0.1-12,0.3-18.6c0.1-3.2,0.3-7.3,0.4-10.2h-5l4.8-2.3h9.1c-2,1.1-2.6,1.5-2.9,3.8
					c-0.5,4.9-0.6,12.7-0.6,21.7v14.7c0,2.5,0.4,2.9,2.5,3.1c1.1,0.1,2.2,0.2,3.2,0.3L1124.8,62.5z"/>
				<path clip-path="url(#SVGID_77_)" fill-rule="evenodd" clip-rule="evenodd" fill="#646464" d="M1104,36c1.5,1.2,4.5,3.8,4.5,8.6
					c0,4.7-2.7,6.9-5.3,9c-0.8,0.8-1.8,1.7-1.8,3.1c0,1.4,1,2.2,1.7,2.7l2.3,1.8c2.8,2.4,5.3,4.5,5.3,8.9c0,6-5.8,12-16.7,12
					c-9.2,0-13.7-4.4-13.7-9.1c0-2.3,1.1-5.5,4.9-7.8c3.9-2.4,9.3-2.7,12.2-2.9c-0.9-1.1-1.9-2.4-1.9-4.3c0-1.1,0.3-1.7,0.6-2.5
					c-0.7,0.1-1.4,0.1-2,0.1c-6.7,0-10.6-5-10.6-10c0-2.9,1.3-6.2,4.1-8.5c3.6-3,8-3.5,11.4-3.5h13.1l-4.1,2.3H1104z M1099.4,64.2
					c-0.5-0.1-0.8-0.1-1.5-0.1c-0.6,0-4,0.1-6.7,1c-1.4,0.5-5.5,2-5.5,6.6c0,4.5,4.4,7.8,11.2,7.8c6.1,0,9.4-2.9,9.4-6.9
					C1106.4,69.4,1104.3,67.7,1099.4,64.2 M1101.3,52.1c1.5-1.5,1.6-3.5,1.6-4.6c0-4.6-2.7-11.7-8-11.7c-1.7,0-3.4,0.8-4.5,2.1
					c-1.1,1.3-1.4,3.1-1.4,4.7c0,4.3,2.5,11.3,8,11.3C1098.5,53.9,1100.3,53.2,1101.3,52.1"/>
				<path clip-path="url(#SVGID_77_)" fill-rule="evenodd" clip-rule="evenodd" fill="#646464" d="M1064.5,63.3
					c-10.1,0-15.5-7.9-15.5-15c0-8.3,6.8-15.5,16.5-15.5c9.4,0,15.2,7.3,15.2,15C1080.7,55.4,1074.9,63.3,1064.5,63.3 M1072.4,58.2
					c1.5-2,1.9-4.6,1.9-7.1c0-5.6-2.7-16.3-10.6-16.3c-2.1,0-4.2,0.8-5.7,2.2c-2.5,2.2-2.9,5-2.9,7.8c0,6.3,3.1,16.7,10.8,16.7
					C1068.4,61.4,1071,60.2,1072.4,58.2"/>
				<path clip-path="url(#SVGID_77_)" fill-rule="evenodd" clip-rule="evenodd" fill="#646464" d="M1030.6,63.3
					c-10.1,0-15.5-7.9-15.5-15c0-8.3,6.8-15.5,16.5-15.5c9.4,0,15.2,7.3,15.2,15C1046.8,55.4,1041,63.3,1030.6,63.3 M1038.6,58.2
					c1.5-2,1.9-4.6,1.9-7.1c0-5.6-2.7-16.3-10.6-16.3c-2.1,0-4.2,0.8-5.7,2.2c-2.5,2.2-2.9,5-2.9,7.8c0,6.3,3.1,16.7,10.8,16.7
					C1034.6,61.4,1037.1,60.2,1038.6,58.2"/>
				<path clip-path="url(#SVGID_77_)" fill-rule="evenodd" clip-rule="evenodd" fill="#646464" d="M1011.1,61.1l-8.5,2
					c-3.5,0.5-6.6,1-9.8,1C976.2,64.1,970,52,970,42.5c0-11.6,8.9-22.3,24.1-22.3c3.2,0,6.3,0.5,9.1,1.3c4.5,1.2,6.6,2.8,7.9,3.7
					l-5,4.7l-2.1,0.5l1.5-2.4c-2-2-5.7-5.6-12.8-5.6c-9.4,0-16.5,7.2-16.5,17.6c0,11.2,8.1,21.8,21.1,21.8c3.8,0,5.8-0.8,7.6-1.5
					v-9.6l-9,0.5l4.8-2.6h12.6l-1.6,1.5c-0.4,0.4-0.5,0.5-0.6,1c-0.1,0.5-0.1,2.3-0.1,2.9V61.1z"/>
				
					<rect x="1037.9" y="83" transform="matrix(0.9744 0.2247 -0.2247 0.9744 60.7464 -230.1385)" clip-path="url(#SVGID_77_)" fill-rule="evenodd" clip-rule="evenodd" fill="#00BCD4" width="6.8" height="137.6"/>
				
					<rect x="970" y="104.3" clip-path="url(#SVGID_77_)" fill-rule="evenodd" clip-rule="evenodd" fill="#00BCD4" width="47.4" height="94.9"/>
				<path clip-path="url(#SVGID_77_)" fill="#00BCD4" d="M1105.5,107.7c24.3,0,44.1,19.8,44.1,44.1s-19.8,44.1-44.1,44.1
					c-24.3,0-44.1-19.8-44.1-44.1S1081.2,107.7,1105.5,107.7 M1105.5,100.9c-28.1,0-50.8,22.8-50.8,50.8s22.8,50.8,50.8,50.8
					c28.1,0,50.8-22.8,50.8-50.8S1133.6,100.9,1105.5,100.9"/>
				<polygon clip-path="url(#SVGID_77_)" fill="#00BCD4" points="1101.4,159.7 1098.2,159.7 1098.2,147.4 1094.4,148.6 1094.4,146 
					1101.1,143.6 1101.4,143.6 				"/>
				<path clip-path="url(#SVGID_77_)" fill="#00BCD4" d="M1105,151.8l0.9-8.2h9v2.7h-6.4l-0.4,3.5c0.1-0.1,0.2-0.1,0.4-0.2
					c0.2-0.1,0.3-0.1,0.6-0.2c0.2-0.1,0.4-0.1,0.7-0.2c0.2,0,0.5-0.1,0.8-0.1c0.8,0,1.5,0.1,2.1,0.4c0.6,0.2,1.1,0.6,1.5,1.1
					c0.4,0.5,0.7,1,1,1.7c0.2,0.7,0.3,1.4,0.3,2.3c0,0.7-0.1,1.4-0.3,2c-0.2,0.6-0.6,1.2-1,1.7c-0.4,0.5-1,0.9-1.7,1.2
					c-0.7,0.3-1.5,0.4-2.4,0.4c-0.7,0-1.4-0.1-2-0.3c-0.6-0.2-1.2-0.5-1.7-0.9c-0.5-0.4-0.9-0.9-1.2-1.5c-0.3-0.6-0.5-1.2-0.5-2h3.2
					c0.1,0.7,0.3,1.2,0.7,1.6c0.4,0.4,0.9,0.6,1.6,0.6c0.4,0,0.7-0.1,1-0.2c0.3-0.2,0.5-0.4,0.7-0.6c0.2-0.3,0.3-0.6,0.4-0.9
					c0.1-0.4,0.1-0.8,0.1-1.2s-0.1-0.8-0.2-1.2c-0.1-0.3-0.3-0.6-0.5-0.9c-0.2-0.2-0.5-0.4-0.8-0.6c-0.3-0.1-0.7-0.2-1.1-0.2
					c-0.3,0-0.6,0-0.8,0.1c-0.2,0.1-0.4,0.1-0.6,0.2c-0.2,0.1-0.3,0.2-0.4,0.3c-0.1,0.1-0.2,0.2-0.4,0.3L1105,151.8z"/>
			</g>
		</g>
	</g>
</g>
<g id="Livello_7" display="none">
	<g display="inline">
		<g>
			<defs>
				<rect id="SVGID_78_" x="936.9" y="-12" width="250.1" height="317.7"/>
			</defs>
			<clipPath id="SVGID_79_">
				<use xlink:href="#SVGID_78_"  overflow="visible"/>
			</clipPath>
			<polygon clip-path="url(#SVGID_79_)" fill="#646464" points="989.3,255.4 973.5,255.4 973.5,269.5 991.7,269.5 991.7,271.8 
				970.7,271.8 970.7,238 991.6,238 991.6,240.4 973.5,240.4 973.5,253.1 989.3,253.1 			"/>
			<polygon clip-path="url(#SVGID_79_)" fill="#646464" points="1005.7,256.9 1012.5,246.7 1015.8,246.7 1007.2,259 1016.1,271.8 
				1012.9,271.8 1005.7,261.2 998.5,271.8 995.3,271.8 1004.1,259 995.6,246.7 998.9,246.7 			"/>
			<g clip-path="url(#SVGID_79_)">
				<defs>
					<rect id="SVGID_80_" x="936.9" y="-12" width="250.1" height="317.7"/>
				</defs>
				<clipPath id="SVGID_81_">
					<use xlink:href="#SVGID_80_"  overflow="visible"/>
				</clipPath>
				<path clip-path="url(#SVGID_81_)" fill="#646464" d="M1026,240.2v6.4h5.2v2.3h-5.2v16.2c0,0.9,0.1,1.7,0.3,2.3
					c0.2,0.6,0.4,1.1,0.7,1.5c0.3,0.4,0.6,0.6,1,0.8c0.4,0.1,0.8,0.2,1.2,0.2c0.4,0,0.8,0,1.2-0.1c0.4-0.1,0.7-0.1,1-0.2l0.1,2.3
					c-0.8,0.3-1.8,0.4-3,0.4c-0.8,0-1.5-0.1-2.2-0.4c-0.7-0.3-1.2-0.7-1.7-1.2c-0.5-0.6-0.9-1.3-1.1-2.2c-0.3-0.9-0.4-2-0.4-3.3V249
					h-4.6v-2.3h4.6v-6.4H1026z"/>
				<path clip-path="url(#SVGID_81_)" fill="#646464" d="M1044.6,272.3c-1.6,0-3.2-0.3-4.5-0.9c-1.4-0.6-2.6-1.5-3.6-2.6
					c-1-1.1-1.8-2.4-2.3-3.9s-0.8-3.2-0.8-5v-1c0-1.9,0.3-3.7,0.9-5.3c0.6-1.6,1.4-2.9,2.4-4c1-1.1,2.1-2,3.4-2.6
					c1.3-0.6,2.7-0.9,4.1-0.9c1.6,0,3,0.3,4.3,0.9c1.2,0.6,2.3,1.4,3.1,2.4c0.8,1,1.5,2.2,1.9,3.6c0.4,1.4,0.7,3,0.7,4.6v1.7h-17.9
					v0.5c0,1.4,0.2,2.7,0.6,3.9c0.4,1.2,1,2.3,1.8,3.2c0.8,0.9,1.7,1.6,2.7,2.1c1.1,0.5,2.2,0.8,3.5,0.8c1.5,0,2.8-0.3,3.9-0.8
					c1.1-0.5,2.2-1.4,3.1-2.6l1.7,1.3c-0.4,0.6-0.9,1.2-1.5,1.7c-0.6,0.5-1.2,1-1.9,1.4c-0.7,0.4-1.6,0.7-2.5,1
					C1046.8,272.2,1045.8,272.3,1044.6,272.3 M1044.1,248.6c-1.1,0-2,0.2-2.9,0.6c-0.9,0.4-1.7,1-2.4,1.7c-0.7,0.7-1.3,1.6-1.7,2.7
					c-0.4,1-0.7,2.2-0.9,3.5h15.1v-0.3c0-1.1-0.2-2.1-0.5-3.1c-0.3-1-0.8-1.9-1.4-2.6c-0.6-0.8-1.3-1.4-2.2-1.8
					C1046.3,248.8,1045.3,248.6,1044.1,248.6"/>
				<path clip-path="url(#SVGID_81_)" fill="#646464" d="M1061.5,246.7l0.1,4.3c0.4-0.7,0.9-1.4,1.5-2c0.6-0.6,1.2-1.1,1.9-1.5
					c0.7-0.4,1.4-0.7,2.3-1c0.8-0.2,1.7-0.3,2.6-0.3c1.3,0,2.4,0.2,3.4,0.5c1,0.3,1.8,0.9,2.5,1.6c0.7,0.7,1.2,1.7,1.6,2.9
					c0.4,1.2,0.5,2.6,0.5,4.2v16.4h-2.8v-16.4c0-1.3-0.1-2.4-0.4-3.3c-0.3-0.9-0.7-1.6-1.2-2.1c-0.5-0.5-1.1-0.9-1.9-1.1
					c-0.7-0.2-1.6-0.3-2.5-0.3c-1,0-1.9,0.2-2.7,0.5c-0.8,0.3-1.5,0.8-2.1,1.3c-0.6,0.6-1.2,1.2-1.6,1.9c-0.4,0.7-0.8,1.5-1.1,2.2
					v17.2h-2.8v-25.1H1061.5z"/>
				<path clip-path="url(#SVGID_81_)" fill="#646464" d="M1083.1,259c0-2,0.2-3.7,0.7-5.3c0.4-1.6,1.1-2.9,1.9-4
					c0.8-1.1,1.9-2,3.1-2.6c1.2-0.6,2.6-0.9,4.1-0.9c1.8,0,3.3,0.4,4.6,1.1c1.3,0.7,2.3,1.7,3.2,3v-14.1h2.8v35.7h-2.6l-0.1-3.3
					c-0.8,1.2-1.9,2.1-3.2,2.8c-1.3,0.7-2.8,1-4.7,1c-1.5,0-2.8-0.3-4-0.9c-1.2-0.6-2.2-1.5-3-2.6c-0.8-1.1-1.5-2.5-1.9-4
					c-0.5-1.6-0.7-3.3-0.7-5.2V259z M1086,259.5c0,1.5,0.1,2.8,0.4,4.1c0.3,1.3,0.7,2.4,1.3,3.3c0.6,0.9,1.4,1.7,2.3,2.2
					c0.9,0.5,2,0.8,3.3,0.8c0.9,0,1.8-0.1,2.6-0.3c0.8-0.2,1.4-0.5,2-1c0.6-0.4,1.1-0.9,1.6-1.5c0.4-0.6,0.8-1.2,1.1-1.8v-11.8
					c-0.3-0.6-0.6-1.2-1-1.8c-0.4-0.6-0.9-1.1-1.5-1.6c-0.6-0.5-1.3-0.8-2-1.1c-0.8-0.3-1.7-0.4-2.7-0.4c-1.3,0-2.4,0.3-3.3,0.8
					c-0.9,0.5-1.7,1.3-2.3,2.2c-0.6,0.9-1.1,2-1.3,3.3c-0.3,1.3-0.4,2.6-0.4,4.1V259.5z"/>
				<path clip-path="url(#SVGID_81_)" fill="#646464" d="M1119.8,272.3c-1.6,0-3.2-0.3-4.5-0.9c-1.4-0.6-2.6-1.5-3.6-2.6
					c-1-1.1-1.8-2.4-2.3-3.9s-0.8-3.2-0.8-5v-1c0-1.9,0.3-3.7,0.9-5.3c0.6-1.6,1.4-2.9,2.4-4c1-1.1,2.1-2,3.4-2.6
					c1.3-0.6,2.7-0.9,4.1-0.9c1.6,0,3,0.3,4.3,0.9c1.2,0.6,2.3,1.4,3.1,2.4c0.8,1,1.5,2.2,1.9,3.6c0.4,1.4,0.7,3,0.7,4.6v1.7h-17.9
					v0.5c0,1.4,0.2,2.7,0.6,3.9c0.4,1.2,1,2.3,1.8,3.2c0.8,0.9,1.7,1.6,2.7,2.1c1.1,0.5,2.2,0.8,3.5,0.8c1.5,0,2.8-0.3,3.9-0.8
					c1.1-0.5,2.2-1.4,3.1-2.6l1.7,1.3c-0.4,0.6-0.9,1.2-1.5,1.7c-0.6,0.5-1.2,1-1.9,1.4c-0.7,0.4-1.6,0.7-2.5,1
					C1121.9,272.2,1120.9,272.3,1119.8,272.3 M1119.3,248.6c-1.1,0-2,0.2-2.9,0.6c-0.9,0.4-1.7,1-2.4,1.7c-0.7,0.7-1.3,1.6-1.7,2.7
					c-0.4,1-0.7,2.2-0.9,3.5h15.1v-0.3c0-1.1-0.2-2.1-0.5-3.1c-0.3-1-0.8-1.9-1.4-2.6c-0.6-0.8-1.3-1.4-2.2-1.8
					C1121.5,248.8,1120.4,248.6,1119.3,248.6"/>
				<path clip-path="url(#SVGID_81_)" fill="#646464" d="M1133,259c0-2,0.2-3.7,0.7-5.3c0.5-1.6,1.1-2.9,1.9-4
					c0.8-1.1,1.9-2,3.1-2.6c1.2-0.6,2.6-0.9,4.1-0.9c1.8,0,3.3,0.4,4.6,1.1c1.3,0.7,2.3,1.7,3.2,3v-14.1h2.8v35.7h-2.6l-0.1-3.3
					c-0.8,1.2-1.9,2.1-3.2,2.8c-1.3,0.7-2.8,1-4.7,1c-1.5,0-2.8-0.3-4-0.9c-1.2-0.6-2.2-1.5-3-2.6c-0.8-1.1-1.5-2.5-1.9-4
					c-0.4-1.6-0.7-3.3-0.7-5.2V259z M1135.8,259.5c0,1.5,0.1,2.8,0.4,4.1c0.3,1.3,0.7,2.4,1.3,3.3c0.6,0.9,1.4,1.7,2.3,2.2
					c0.9,0.5,2,0.8,3.3,0.8c0.9,0,1.8-0.1,2.6-0.3c0.8-0.2,1.4-0.5,2-1c0.6-0.4,1.1-0.9,1.6-1.5c0.4-0.6,0.8-1.2,1.1-1.8v-11.8
					c-0.3-0.6-0.6-1.2-1-1.8s-0.9-1.1-1.5-1.6c-0.6-0.5-1.3-0.8-2-1.1c-0.8-0.3-1.7-0.4-2.7-0.4c-1.3,0-2.4,0.3-3.3,0.8
					c-0.9,0.5-1.7,1.3-2.3,2.2c-0.6,0.9-1.1,2-1.3,3.3c-0.3,1.3-0.4,2.6-0.4,4.1V259.5z"/>
				<path clip-path="url(#SVGID_81_)" fill-rule="evenodd" clip-rule="evenodd" fill="#646464" d="M1149.8,60.9
					c-0.7,0.4-1.4,0.8-2.1,1.1c-2.1,1-4.3,1.2-6.2,1.2c-2,0-5.2-0.1-8.4-2.5c-4.5-3.2-6.5-8.6-6.5-13.4c0-9.8,8-14.7,14.5-14.7
					c2.3,0,4.6,0.6,6.5,1.8c3.2,2.1,4,4.8,4.4,6.3l-14.9,6l-4.9,0.4c1.6,8.1,7,12.8,13.1,12.8c3.2,0,5.6-1.1,7.7-2.2L1149.8,60.9z
					 M1143.9,42c1.2-0.4,1.8-0.8,1.8-1.7c0-2.5-2.9-5.5-6.3-5.5c-2.5,0-7.3,2-7.3,8.8c0,1.1,0.1,2.2,0.2,3.4L1143.9,42z"/>
				<path clip-path="url(#SVGID_81_)" fill-rule="evenodd" clip-rule="evenodd" fill="#646464" d="M1125.2,62.3h-11.2
					c1.5-1.9,1.7-2.1,1.7-3.4V48.6c0-5,0.1-12,0.3-18.6c0.1-3.2,0.3-7.3,0.4-10.2h-5l4.8-2.3h9.1c-2,1.1-2.6,1.5-2.9,3.7
					c-0.5,4.9-0.6,12.6-0.6,21.6v14.7c0,2.5,0.4,2.9,2.5,3c1.1,0.1,2.2,0.2,3.2,0.3L1125.2,62.3z"/>
				<path clip-path="url(#SVGID_81_)" fill-rule="evenodd" clip-rule="evenodd" fill="#646464" d="M1104.3,35.9
					c1.5,1.2,4.5,3.7,4.5,8.6c0,4.7-2.7,6.9-5.3,9c-0.8,0.8-1.8,1.7-1.8,3.1c0,1.4,1,2.2,1.7,2.7l2.3,1.8c2.8,2.4,5.3,4.5,5.3,8.9
					c0,6-5.8,12-16.7,12c-9.2,0-13.6-4.4-13.6-9.1c0-2.3,1.1-5.5,4.9-7.7c3.9-2.4,9.3-2.7,12.1-2.9c-0.9-1.1-1.9-2.3-1.9-4.3
					c0-1.1,0.3-1.7,0.6-2.5c-0.7,0.1-1.4,0.1-2,0.1c-6.7,0-10.5-5-10.5-10c0-2.9,1.3-6.2,4.1-8.5c3.6-3,7.9-3.5,11.4-3.5h13.1
					l-4.1,2.3H1104.3z M1099.8,64c-0.5-0.1-0.8-0.1-1.5-0.1c-0.6,0-4,0.1-6.7,1c-1.4,0.5-5.5,2-5.5,6.5c0,4.5,4.4,7.7,11.2,7.7
					c6.1,0,9.3-2.9,9.3-6.9C1106.7,69.2,1104.7,67.5,1099.8,64 M1101.7,52c1.5-1.5,1.6-3.5,1.6-4.6c0-4.6-2.7-11.7-8-11.7
					c-1.6,0-3.4,0.8-4.4,2.1c-1.1,1.3-1.4,3-1.4,4.7c0,4.3,2.5,11.3,7.9,11.3C1098.9,53.8,1100.7,53,1101.7,52"/>
				<path clip-path="url(#SVGID_81_)" fill-rule="evenodd" clip-rule="evenodd" fill="#646464" d="M1065,63.1
					c-10.1,0-15.5-7.9-15.5-15c0-8.3,6.8-15.4,16.4-15.4c9.3,0,15.2,7.3,15.2,15C1081.1,55.2,1075.3,63.1,1065,63.1 M1072.9,58
					c1.5-2,1.9-4.6,1.9-7c0-5.6-2.7-16.2-10.5-16.2c-2.1,0-4.2,0.8-5.7,2.2c-2.5,2.2-2.9,5-2.9,7.7c0,6.3,3.1,16.6,10.8,16.6
					C1068.9,61.2,1071.5,60,1072.9,58"/>
				<path clip-path="url(#SVGID_81_)" fill-rule="evenodd" clip-rule="evenodd" fill="#646464" d="M1031.2,63.1
					c-10.1,0-15.5-7.9-15.5-15c0-8.3,6.8-15.4,16.4-15.4c9.3,0,15.2,7.3,15.2,15C1047.3,55.2,1041.6,63.1,1031.2,63.1 M1039.2,58
					c1.5-2,1.9-4.6,1.9-7c0-5.6-2.7-16.2-10.5-16.2c-2.1,0-4.2,0.8-5.7,2.2c-2.5,2.2-2.9,5-2.9,7.7c0,6.3,3.1,16.6,10.8,16.6
					C1035.2,61.2,1037.7,60,1039.2,58"/>
				<path clip-path="url(#SVGID_81_)" fill-rule="evenodd" clip-rule="evenodd" fill="#646464" d="M1011.7,60.9l-8.5,2
					c-3.5,0.5-6.5,1-9.8,1c-16.4,0-22.7-12.1-22.7-21.5c0-11.5,8.9-22.3,24-22.3c3.2,0,6.3,0.5,9.1,1.3c4.5,1.2,6.5,2.8,7.9,3.7
					l-4.9,4.7l-2.1,0.5l1.5-2.4c-2-2-5.7-5.6-12.7-5.6c-9.4,0-16.5,7.1-16.5,17.6c0,11.2,8.1,21.7,21.1,21.7c3.8,0,5.8-0.8,7.6-1.5
					v-9.6l-9,0.5l4.8-2.6h12.6l-1.5,1.5c-0.4,0.4-0.5,0.5-0.6,1c-0.1,0.5-0.1,2.3-0.1,2.9V60.9z"/>
				
					<rect x="973.2" y="147.9" transform="matrix(0.225 -0.9744 0.9744 0.225 660.0139 1132.3956)" clip-path="url(#SVGID_81_)" fill="#00BCD4" width="137.2" height="6.8"/>
				<rect x="970.7" y="104" clip-path="url(#SVGID_81_)" fill="#00BCD4" width="47.3" height="94.6"/>
				<path clip-path="url(#SVGID_81_)" fill="#00BCD4" d="M1105.9,100.6c-28,0-50.7,22.7-50.7,50.7s22.7,50.7,50.7,50.7
					c28,0,50.7-22.7,50.7-50.7S1133.9,100.6,1105.9,100.6"/>
			</g>
		</g>
	</g>
</g>
</svg>
