<?xml version="1.0" encoding="utf-8"?>
<!-- Generator: Adobe Illustrator 15.1.0, SVG Export Plug-In . SVG Version: 6.00 Build 0)  -->
<!DOCTYPE svg PUBLIC "-//W3C//DTD SVG 1.1//EN" "http://www.w3.org/Graphics/SVG/1.1/DTD/svg11.dtd">
<svg version="1.1" xmlns="http://www.w3.org/2000/svg" xmlns:xlink="http://www.w3.org/1999/xlink" x="0px" y="0px"
	 width="829.616px" height="193.086px" viewBox="0 0 829.616 193.086" enable-background="new 0 0 829.616 193.086"
	 xml:space="preserve">
<g id="Livello_2">
	<g>
		<g>
			<path fill="#231F20" d="M504.636,140.91l-26.349-75.876h-0.497c0.704,11.27,1.057,21.833,1.057,31.692v44.184h-13.485V50.058
				h20.942l25.229,72.271h0.373l25.976-72.271h21.005v90.853h-14.293V95.981c0-4.516,0.113-10.398,0.342-17.648
				c0.227-7.25,0.424-11.642,0.59-13.175h-0.497l-27.28,75.752H504.636z"/>
			<path fill="#231F20" d="M572.752,53.973c0-2.61,0.714-4.619,2.144-6.027s3.47-2.113,6.121-2.113c2.568,0,4.567,0.705,5.997,2.113
				c1.429,1.408,2.144,3.417,2.144,6.027c0,2.485-0.715,4.443-2.144,5.872c-1.43,1.43-3.429,2.145-5.997,2.145
				c-2.651,0-4.691-0.715-6.121-2.145C573.466,58.416,572.752,56.458,572.752,53.973z M588.226,140.91h-14.604V72.181h14.604V140.91
				z"/>
			<path fill="#231F20" d="M616.073,140.91H601.47V44.217h14.604V140.91z"/>
			<path fill="#231F20" d="M672.318,140.91l-2.921-9.57H668.9c-3.314,4.186-6.648,7.033-10.005,8.545
				c-3.355,1.512-7.665,2.269-12.926,2.269c-6.753,0-12.024-1.823-15.814-5.469c-3.791-3.646-5.687-8.803-5.687-15.474
				c0-7.084,2.631-12.429,7.893-16.033c5.261-3.604,13.276-5.571,24.049-5.903l11.869-0.373v-3.666c0-4.391-1.025-7.675-3.076-9.85
				s-5.23-3.263-9.539-3.263c-3.521,0-6.897,0.519-10.129,1.554c-3.231,1.036-6.339,2.259-9.321,3.666l-4.723-10.439
				c3.729-1.947,7.809-3.428,12.242-4.443c4.432-1.015,8.616-1.522,12.553-1.522c8.74,0,15.338,1.906,19.792,5.717
				c4.453,3.812,6.681,9.799,6.681,17.96v46.296H672.318z M650.568,130.968c5.303,0,9.56-1.481,12.771-4.443
				c3.21-2.962,4.816-7.115,4.816-12.46v-5.966l-8.824,0.373c-6.878,0.249-11.88,1.398-15.008,3.449s-4.691,5.188-4.691,9.414
				c0,3.066,0.91,5.438,2.734,7.115C644.188,130.129,646.923,130.968,650.568,130.968z"/>
			<path fill="#231F20" d="M755.97,140.91h-14.665V98.653c0-5.303-1.067-9.26-3.2-11.869c-2.135-2.61-5.521-3.915-10.161-3.915
				c-6.173,0-10.688,1.823-13.547,5.469s-4.287,9.756-4.287,18.332v34.24h-14.604V72.181h11.434l2.051,9.011h0.746
				c2.071-3.272,5.012-5.8,8.824-7.582c3.811-1.78,8.036-2.672,12.677-2.672c16.488,0,24.732,8.39,24.732,25.168V140.91z"/>
			<path fill="#231F20" d="M829.616,106.421c0,11.228-2.88,19.989-8.638,26.286c-5.759,6.298-13.775,9.446-24.049,9.446
				c-6.422,0-12.098-1.45-17.027-4.351c-4.931-2.899-8.721-7.062-11.372-12.49c-2.651-5.427-3.977-11.724-3.977-18.892
				c0-11.144,2.858-19.844,8.575-26.1c5.717-6.255,13.774-9.384,24.174-9.384c9.942,0,17.813,3.2,23.614,9.602
				C826.717,86.939,829.616,95.567,829.616,106.421z M779.592,106.421c0,15.868,5.862,23.801,17.587,23.801
				c11.599,0,17.399-7.933,17.399-23.801c0-15.7-5.842-23.552-17.524-23.552c-6.132,0-10.574,2.03-13.329,6.09
				C780.969,93.02,779.592,98.84,779.592,106.421z"/>
		</g>
		<g>
			<g>
				<path fill="#231F20" d="M199.151,88.571h39.097v48.864c-10.623,3.645-22.278,5.45-35.024,5.45
					c-13.952,0-24.74-4.042-32.375-12.14c-7.635-8.094-11.429-19.665-11.429-34.676c0-14.613,4.159-25.981,12.519-34.13
					c8.349-8.152,20.035-12.17,35.078-12.17c5.708,0,11.076,0.514,16.128,1.604c5.086,1.063,9.505,2.414,13.269,4.051l-7.781,19.203
					c-6.52-3.221-13.691-4.826-21.504-4.826c-7.12,0-12.658,2.354-16.561,6.98c-3.934,4.65-5.854,11.274-5.854,19.922
					c0,8.47,1.748,14.926,5.311,19.371c3.499,4.452,8.58,6.637,15.242,6.637c3.646,0,7-0.321,10.044-1.042v-14.177h-16.158V88.571z"
					/>
				<path fill="#231F20" d="M303.12,95.294c0-8.326-1.634-14.469-4.905-18.487c-3.274-3.989-8.3-6-14.985-6h-7.121v50.756h5.458
					c7.461,0,12.913-2.157,16.36-6.489C301.399,110.796,303.12,104.163,303.12,95.294 M328.522,94.434
					c0,15.097-4.131,26.755-12.486,34.934c-8.294,8.182-20.001,12.26-35.073,12.26h-29.307V51.028h31.343
					c14.523,0,25.75,3.736,33.669,11.166C324.592,69.607,328.522,80.369,328.522,94.434"/>
				<path fill="#231F20" d="M376.062,88.571h39.127v48.864c-10.624,3.645-22.305,5.45-35.02,5.45
					c-13.953,0-24.748-4.042-32.386-12.14c-7.607-8.094-11.42-19.665-11.42-34.676c0-14.613,4.158-25.981,12.511-34.13
					c8.328-8.152,20.036-12.17,35.08-12.17c5.685,0,11.081,0.514,16.16,1.604c5.024,1.063,9.449,2.414,13.203,4.051l-7.745,19.203
					c-6.517-3.221-13.696-4.826-21.503-4.826c-7.15,0-12.656,2.354-16.589,6.98c-3.88,4.65-5.831,11.274-5.831,19.922
					c0,8.47,1.751,14.926,5.279,19.371c3.533,4.452,8.612,6.637,15.271,6.637c3.646,0,7.011-0.321,10.053-1.042v-14.177h-16.191
					V88.571z"/>
			</g>
		</g>
	</g>
	<g>
		<g>
			<radialGradient id="SVGID_1_" cx="-3.3833" cy="-3.1133" r="223.1605" gradientUnits="userSpaceOnUse">
				<stop  offset="0" style="stop-color:#FFCD4D"/>
				<stop  offset="1" style="stop-color:#F6C338"/>
			</radialGradient>
			<path fill="url(#SVGID_1_)" d="M69.48,120.734l-42.813,71.114H48.29c5.117,0,11.475-3.591,14.115-7.999l18.213-30.304
				c2.15-4.447,2.076-10.911-0.38-15.01L69.48,120.734z"/>
			<radialGradient id="SVGID_2_" cx="-3.3789" cy="-3.1133" r="223.1584" gradientUnits="userSpaceOnUse">
				<stop  offset="0" style="stop-color:#0DA960"/>
				<stop  offset="1" style="stop-color:#03914B"/>
			</radialGradient>
			<path fill="url(#SVGID_2_)" d="M49.91,88.339c2.639,4.393,2.639,11.585,0,15.994L1.826,184.726
				c-1.856,3.973,0.074,7.123,4.845,7.123h19.996l42.813-71.114L49.91,88.339z"/>
			<radialGradient id="SVGID_3_" cx="-3.3828" cy="-3.1064" r="223.1526" gradientUnits="userSpaceOnUse">
				<stop  offset="0" style="stop-color:#4387FD"/>
				<stop  offset="1" style="stop-color:#4683EA"/>
			</radialGradient>
			<path fill="url(#SVGID_3_)" d="M6.671,0.809c-5.137,0-7.177,3.604-4.537,7.995l78.104,129.732
				c2.456,4.099,2.53,10.562,0.38,15.01l18.989-31.604L26.679,0.809H6.671z"/>
			<radialGradient id="SVGID_4_" cx="-3.376" cy="-3.1074" r="223.1391" gradientUnits="userSpaceOnUse">
				<stop  offset="0" style="stop-color:#E04A3F"/>
				<stop  offset="1" style="stop-color:#CD372D"/>
			</radialGradient>
			<path fill="url(#SVGID_4_)" d="M110.175,88.339L62.405,8.804c-2.641-4.392-8.999-7.995-14.115-7.995H26.679l72.928,121.134
				l10.569-17.609C112.819,99.924,112.819,92.731,110.175,88.339z"/>
			<linearGradient id="SVGID_5_" gradientUnits="userSpaceOnUse" x1="91.832" y1="120.9424" x2="38.0738" y2="120.9424">
				<stop  offset="0" style="stop-color:#231F20;stop-opacity:0.2"/>
				<stop  offset="1" style="stop-color:#F1F2F2;stop-opacity:0.25"/>
			</linearGradient>
			<path fill="url(#SVGID_5_)" d="M80.238,138.536L49.91,88.339c2.639,4.393,2.639,11.585,0,15.994l-10.675,17.776l41.383,31.437
				C82.768,149.099,82.693,142.635,80.238,138.536z"/>
		</g>
		<radialGradient id="SVGID_6_" cx="56.5684" cy="96.3281" r="78.1486" gradientUnits="userSpaceOnUse">
			<stop  offset="0" style="stop-color:#FFFFFF;stop-opacity:0.1"/>
			<stop  offset="0.0896" style="stop-color:#FFFFFF;stop-opacity:0.091"/>
			<stop  offset="1" style="stop-color:#FFFFFF;stop-opacity:0"/>
		</radialGradient>
		<path fill="url(#SVGID_6_)" d="M110.175,88.339L62.405,8.804c-2.641-4.392-8.999-7.995-14.115-7.995H26.679H6.671
			c-5.137,0-7.177,3.604-4.537,7.995L49.91,88.339c2.639,4.393,2.639,11.585,0,15.994L1.826,184.726
			c-1.856,3.973,0.074,7.123,4.845,7.123h19.996H48.29c5.117,0,11.475-3.591,14.115-7.999l37.202-61.907l10.569-17.609
			C112.819,99.924,112.819,92.731,110.175,88.339z"/>
	</g>
</g>
<g id="Layer_1" display="none">
	<g display="inline">
		<path fill="#FFFFFF" d="M69.231,121.211l-43.268,71.875h21.853c5.173,0,11.595-3.627,14.264-8.082l18.412-30.632
			c2.17-4.489,2.099-11.024-0.389-15.168L69.231,121.211z"/>
		<radialGradient id="SVGID_7_" cx="34.6904" cy="140.7783" r="44.3234" gradientUnits="userSpaceOnUse">
			<stop  offset="0" style="stop-color:#DEDEDE"/>
			<stop  offset="1" style="stop-color:#D1D1D1"/>
		</radialGradient>
		<path fill="url(#SVGID_7_)" d="M49.455,88.471c2.668,4.437,2.668,11.708,0,16.163L0.856,185.888
			c-1.88,4.016,0.072,7.198,4.894,7.198h20.214l43.268-71.875L49.455,88.471z"/>
		<path fill="#FFFFFF" d="M5.75,0C0.56,0-1.5,3.645,1.168,8.084l78.934,131.12c2.488,4.144,2.559,10.679,0.389,15.168l19.189-31.938
			L25.974,0H5.75z"/>
		<radialGradient id="SVGID_8_" cx="69.1709" cy="61.2168" r="52.9788" gradientUnits="userSpaceOnUse">
			<stop  offset="0" style="stop-color:#DEDEDE"/>
			<stop  offset="1" style="stop-color:#D1D1D1"/>
		</radialGradient>
		<path fill="url(#SVGID_8_)" d="M110.367,88.471L62.08,8.084C59.412,3.645,52.989,0,47.816,0H25.974l73.708,122.434l10.686-17.8
			C113.035,100.179,113.035,92.907,110.367,88.471z"/>
		<linearGradient id="SVGID_9_" gradientUnits="userSpaceOnUse" x1="91.8242" y1="121.4209" x2="37.4918" y2="121.4209">
			<stop  offset="0" style="stop-color:#231F20;stop-opacity:0.2"/>
			<stop  offset="1" style="stop-color:#F1F2F2;stop-opacity:0.25"/>
		</linearGradient>
		<path fill="url(#SVGID_9_)" d="M80.103,139.204L49.455,88.471c2.668,4.437,2.668,11.708,0,16.163l-10.79,17.968l41.826,31.771
			C82.662,149.883,82.59,143.348,80.103,139.204z"/>
	</g>
</g>
</svg>
