<?xml version="1.0" encoding="utf-8"?>
<!-- Generator: Adobe Illustrator 18.0.0, SVG Export Plug-In . SVG Version: 6.00 Build 0)  -->
<!DOCTYPE svg PUBLIC "-//W3C//DTD SVG 1.1//EN" "http://www.w3.org/Graphics/SVG/1.1/DTD/svg11.dtd">
<svg version="1.1" id="Livello_1" xmlns="http://www.w3.org/2000/svg" xmlns:xlink="http://www.w3.org/1999/xlink" x="0px" y="0px"
	 viewBox="205 -67.5 360 360" enable-background="new 205 -67.5 360 360" xml:space="preserve">
<rect x="205" y="-67.5" fill="#FFFFFF" width="360" height="360"/>
<g id="Livello_2">
	<g>
		<g>
			<path fill="#231F20" d="M421.7,126.8l-10.8-31.2h-0.2c0.3,4.6,0.4,9,0.4,13v18.2h-5.5V89.5h8.6l10.4,29.7h0.2l10.7-29.7h8.6v37.3
				h-5.9v-18.5c0-1.9,0-4.3,0.1-7.3c0.1-3,0.2-4.8,0.2-5.4h-0.2l-11.2,31.1H421.7z"/>
			<path fill="#231F20" d="M449.7,91.1c0-1.1,0.3-1.9,0.9-2.5c0.6-0.6,1.4-0.9,2.5-0.9c1.1,0,1.9,0.3,2.5,0.9
				c0.6,0.6,0.9,1.4,0.9,2.5c0,1-0.3,1.8-0.9,2.4c-0.6,0.6-1.4,0.9-2.5,0.9c-1.1,0-1.9-0.3-2.5-0.9C450,92.9,449.7,92.1,449.7,91.1z
				 M456.1,126.8h-6V98.6h6V126.8z"/>
			<path fill="#231F20" d="M467.5,126.8h-6V87.1h6L467.5,126.8L467.5,126.8z"/>
			<path fill="#231F20" d="M490.6,126.8l-1.2-3.9h-0.2c-1.4,1.7-2.7,2.9-4.1,3.5c-1.4,0.6-3.1,0.9-5.3,0.9c-2.8,0-4.9-0.7-6.5-2.2
				c-1.6-1.5-2.3-3.6-2.3-6.4c0-2.9,1.1-5.1,3.2-6.6c2.2-1.5,5.5-2.3,9.9-2.4l4.9-0.2v-1.5c0-1.8-0.4-3.2-1.3-4s-2.1-1.3-3.9-1.3
				c-1.4,0-2.8,0.2-4.2,0.6c-1.3,0.4-2.6,0.9-3.8,1.5l-1.9-4.3c1.5-0.8,3.2-1.4,5-1.8c1.8-0.4,3.5-0.6,5.2-0.6
				c3.6,0,6.3,0.8,8.1,2.3c1.8,1.6,2.7,4,2.7,7.4v19L490.6,126.8L490.6,126.8z M481.7,122.8c2.2,0,3.9-0.6,5.2-1.8
				c1.3-1.2,2-2.9,2-5.1v-2.5l-3.6,0.2c-2.8,0.1-4.9,0.6-6.2,1.4c-1.3,0.8-1.9,2.1-1.9,3.9c0,1.3,0.4,2.2,1.1,2.9
				C479.1,122.4,480.2,122.8,481.7,122.8z"/>
			<path fill="#231F20" d="M525,126.8h-6v-17.4c0-2.2-0.4-3.8-1.3-4.9c-0.9-1.1-2.3-1.6-4.2-1.6c-2.5,0-4.4,0.7-5.6,2.2
				c-1.2,1.5-1.8,4-1.8,7.5v14.1h-6V98.6h4.7l0.8,3.7h0.3c0.9-1.3,2.1-2.4,3.6-3.1c1.6-0.7,3.3-1.1,5.2-1.1
				c6.8,0,10.2,3.4,10.2,10.3V126.8z"/>
			<path fill="#231F20" d="M555.3,112.7c0,4.6-1.2,8.2-3.5,10.8c-2.4,2.6-5.7,3.9-9.9,3.9c-2.6,0-5-0.6-7-1.8
				c-2-1.2-3.6-2.9-4.7-5.1c-1.1-2.2-1.6-4.8-1.6-7.8c0-4.6,1.2-8.2,3.5-10.7c2.3-2.6,5.7-3.9,9.9-3.9c4.1,0,7.3,1.3,9.7,3.9
				C554.1,104.7,555.3,108.2,555.3,112.7z M534.7,112.7c0,6.5,2.4,9.8,7.2,9.8c4.8,0,7.1-3.3,7.1-9.8c0-6.5-2.4-9.7-7.2-9.7
				c-2.5,0-4.3,0.8-5.5,2.5C535.3,107.2,534.7,109.6,534.7,112.7z"/>
		</g>
		<g>
			<g>
				<path fill="#231F20" d="M296.2,105.3h16.1v20.1c-4.4,1.5-9.2,2.2-14.4,2.2c-5.7,0-10.2-1.7-13.3-5c-3.1-3.3-4.7-8.1-4.7-14.2
					c0-6,1.7-10.7,5.1-14c3.4-3.3,8.2-5,14.4-5c2.3,0,4.6,0.2,6.6,0.7c2.1,0.4,3.9,1,5.5,1.7l-3.2,7.9c-2.7-1.3-5.6-2-8.8-2
					c-2.9,0-5.2,1-6.8,2.9c-1.6,1.9-2.4,4.6-2.4,8.2c0,3.5,0.7,6.1,2.2,8c1.4,1.8,3.5,2.7,6.3,2.7c1.5,0,2.9-0.1,4.1-0.4v-5.8h-6.6
					L296.2,105.3L296.2,105.3z"/>
				<path fill="#231F20" d="M338.9,108.1c0-3.4-0.7-5.9-2-7.6c-1.3-1.6-3.4-2.5-6.2-2.5h-2.9v20.9h2.2c3.1,0,5.3-0.9,6.7-2.7
					C338.2,114.5,338.9,111.7,338.9,108.1 M349.3,107.7c0,6.2-1.7,11-5.1,14.4c-3.4,3.4-8.2,5-14.4,5h-12V89.9h12.9
					c6,0,10.6,1.5,13.8,4.6C347.7,97.5,349.3,102,349.3,107.7"/>
				<path fill="#231F20" d="M368.9,105.3H385v20.1c-4.4,1.5-9.2,2.2-14.4,2.2c-5.7,0-10.2-1.7-13.3-5c-3.1-3.3-4.7-8.1-4.7-14.2
					c0-6,1.7-10.7,5.1-14c3.4-3.3,8.2-5,14.4-5c2.3,0,4.6,0.2,6.6,0.7c2.1,0.4,3.9,1,5.4,1.7l-3.2,7.9c-2.7-1.3-5.6-2-8.8-2
					c-2.9,0-5.2,1-6.8,2.9c-1.6,1.9-2.4,4.6-2.4,8.2c0,3.5,0.7,6.1,2.2,8c1.5,1.8,3.5,2.7,6.3,2.7c1.5,0,2.9-0.1,4.1-0.4v-5.8h-6.7
					L368.9,105.3L368.9,105.3z"/>
			</g>
		</g>
	</g>
	<g>
		<g>
			
				<radialGradient id="SVGID_1_" cx="212.9515" cy="128.3383" r="91.7034" gradientTransform="matrix(1 0 0 -1 0 196)" gradientUnits="userSpaceOnUse">
				<stop  offset="0" style="stop-color:#FFCD4D"/>
				<stop  offset="1" style="stop-color:#F6C338"/>
			</radialGradient>
			<path fill="url(#SVGID_1_)" d="M242.9,118.6l-17.6,29.2h8.9c2.1,0,4.7-1.5,5.8-3.3l7.5-12.5c0.9-1.8,0.9-4.5-0.2-6.2L242.9,118.6
				z"/>
			
				<radialGradient id="SVGID_2_" cx="212.9533" cy="128.3383" r="91.7025" gradientTransform="matrix(1 0 0 -1 0 196)" gradientUnits="userSpaceOnUse">
				<stop  offset="0" style="stop-color:#0DA960"/>
				<stop  offset="1" style="stop-color:#03914B"/>
			</radialGradient>
			<path fill="url(#SVGID_2_)" d="M234.9,105.2c1.1,1.8,1.1,4.8,0,6.6l-19.8,33c-0.8,1.6,0,2.9,2,2.9h8.2l17.6-29.2L234.9,105.2z"/>
			
				<radialGradient id="SVGID_3_" cx="212.9517" cy="128.3354" r="91.7001" gradientTransform="matrix(1 0 0 -1 0 196)" gradientUnits="userSpaceOnUse">
				<stop  offset="0" style="stop-color:#4387FD"/>
				<stop  offset="1" style="stop-color:#4683EA"/>
			</radialGradient>
			<path fill="url(#SVGID_3_)" d="M217.1,69.3c-2.1,0-2.9,1.5-1.9,3.3l32.1,53.3c1,1.7,1,4.3,0.2,6.2l7.8-13l-30-49.8H217.1z"/>
			
				<radialGradient id="SVGID_4_" cx="212.9545" cy="128.3358" r="91.6946" gradientTransform="matrix(1 0 0 -1 0 196)" gradientUnits="userSpaceOnUse">
				<stop  offset="0" style="stop-color:#E04A3F"/>
				<stop  offset="1" style="stop-color:#CD372D"/>
			</radialGradient>
			<path fill="url(#SVGID_4_)" d="M259.6,105.2L240,72.6c-1.1-1.8-3.7-3.3-5.8-3.3h-8.9l30,49.8l4.3-7.2
				C260.7,110,260.7,107,259.6,105.2z"/>
			
				<linearGradient id="SVGID_5_" gradientUnits="userSpaceOnUse" x1="252.0783" y1="77.36" x2="229.9874" y2="77.36" gradientTransform="matrix(1 0 0 -1 0 196)">
				<stop  offset="0" style="stop-color:#231F20;stop-opacity:0.2"/>
				<stop  offset="1" style="stop-color:#F1F2F2;stop-opacity:0.25"/>
			</linearGradient>
			<path fill="url(#SVGID_5_)" d="M247.3,125.9l-12.5-20.6c1.1,1.8,1.1,4.8,0,6.6l-4.4,7.3l17,12.9
				C248.4,130.2,248.3,127.6,247.3,125.9z"/>
		</g>
		
			<radialGradient id="SVGID_6_" cx="237.5874" cy="87.4744" r="32.1135" gradientTransform="matrix(1 0 0 -1 0 196)" gradientUnits="userSpaceOnUse">
			<stop  offset="0" style="stop-color:#FFFFFF;stop-opacity:0.1"/>
			<stop  offset="8.960000e-02" style="stop-color:#FFFFFF;stop-opacity:9.100000e-02"/>
			<stop  offset="1" style="stop-color:#FFFFFF;stop-opacity:0"/>
		</radialGradient>
		<path fill="url(#SVGID_6_)" d="M259.6,105.2L240,72.6c-1.1-1.8-3.7-3.3-5.8-3.3h-8.9h-8.2c-2.1,0-2.9,1.5-1.9,3.3l19.6,32.7
			c1.1,1.8,1.1,4.8,0,6.6l-19.8,33c-0.8,1.6,0,2.9,2,2.9h8.2h8.9c2.1,0,4.7-1.5,5.8-3.3l15.3-25.4l4.3-7.2
			C260.7,110,260.7,107,259.6,105.2z"/>
	</g>
</g>
<g id="Layer_1" display="none">
	<g display="inline">
		<path fill="#FFFFFF" d="M69.2,121.2L26,193.1h21.9c5.2,0,11.6-3.6,14.3-8.1l18.4-30.6c2.2-4.5,2.1-11-0.4-15.2L69.2,121.2z"/>
		
			<radialGradient id="SVGID_7_" cx="34.6907" cy="55.2215" r="44.3237" gradientTransform="matrix(1 0 0 -1 0 196)" gradientUnits="userSpaceOnUse">
			<stop  offset="0" style="stop-color:#DEDEDE"/>
			<stop  offset="1" style="stop-color:#D1D1D1"/>
		</radialGradient>
		<path fill="url(#SVGID_7_)" d="M49.5,88.5c2.7,4.4,2.7,11.7,0,16.2L0.9,185.9c-1.9,4,0.1,7.2,4.9,7.2H26l43.3-71.9L49.5,88.5z"/>
		<path fill="#FFFFFF" d="M5.8,0C0.6,0-1.5,3.6,1.2,8.1l78.9,131.1c2.5,4.1,2.6,10.7,0.4,15.2l19.2-31.9L26,0H5.8z"/>
		
			<radialGradient id="SVGID_8_" cx="69.1711" cy="134.783" r="52.9788" gradientTransform="matrix(1 0 0 -1 0 196)" gradientUnits="userSpaceOnUse">
			<stop  offset="0" style="stop-color:#DEDEDE"/>
			<stop  offset="1" style="stop-color:#D1D1D1"/>
		</radialGradient>
		<path fill="url(#SVGID_8_)" d="M110.4,88.5L62.1,8.1C59.4,3.6,53,0,47.8,0H26l73.7,122.4l10.7-17.8C113,100.2,113,92.9,110.4,88.5
			z"/>
		
			<linearGradient id="SVGID_9_" gradientUnits="userSpaceOnUse" x1="91.8242" y1="74.578" x2="37.4918" y2="74.578" gradientTransform="matrix(1 0 0 -1 0 196)">
			<stop  offset="0" style="stop-color:#231F20;stop-opacity:0.2"/>
			<stop  offset="1" style="stop-color:#F1F2F2;stop-opacity:0.25"/>
		</linearGradient>
		<path fill="url(#SVGID_9_)" d="M80.1,139.2L49.5,88.5c2.7,4.4,2.7,11.7,0,16.2l-10.8,18l41.8,31.8
			C82.7,149.9,82.6,143.3,80.1,139.2z"/>
	</g>
</g>
<text transform="matrix(1 0 0 1 303.1852 147.7774)" font-family="'OpenSans-Light'" font-size="20">Google Developer Group</text>
</svg>
