<?xml version="1.0" encoding="utf-8"?>
<!-- Generator: Adobe Illustrator 15.1.0, SVG Export Plug-In . SVG Version: 6.00 Build 0)  -->
<!DOCTYPE svg PUBLIC "-//W3C//DTD SVG 1.1//EN" "http://www.w3.org/Graphics/SVG/1.1/DTD/svg11.dtd">
<svg version="1.1" id="Livello_1" xmlns="http://www.w3.org/2000/svg" xmlns:xlink="http://www.w3.org/1999/xlink" x="0px" y="0px"
	 width="412px" height="412px" viewBox="50 50 412 412" enable-background="new 50 50 412 412" xml:space="preserve">
<path id="github-4-icon" fill="#FFFFFF" d="M256,50C142.229,50,50,142.229,50,256c0,113.771,92.229,206,206,206
	c113.771,0,206-92.229,206-206C462,142.229,369.771,50,256,50z M297.104,382.34c-6.578,1.268-8.658-2.777-8.658-6.231
	c0-4.267,0-18.25,0-35.613c0-12.104-4.258-20.014-8.905-24.037c28.897-3.211,59.262-14.185,59.262-64.035
	c0-14.174-5.038-25.749-13.36-34.832c1.341-3.274,5.787-16.477-1.278-34.346c0,0-10.877-3.485-35.655,13.308
	c-10.359-2.873-21.48-4.319-32.507-4.373c-11.027,0.054-22.128,1.5-32.488,4.373c-24.797-16.793-35.697-13.308-35.697-13.308
	c-7.035,17.869-2.599,31.071-1.246,34.346c-8.303,9.083-13.372,20.658-13.372,34.832c0,49.734,30.291,60.867,59.124,64.142
	c-3.718,3.241-7.077,8.966-8.237,17.353c-7.416,3.317-26.193,9.051-37.769-10.784c0,0-6.864-12.461-19.898-13.381
	c0,0-12.663-0.158-0.888,7.889c0,0,8.514,3.994,14.405,19.001c0,0,7.522,23.161,43.62,15.305v24.164
	c0,3.434-2.092,7.445-8.576,6.241c-51.572-17.151-88.757-65.809-88.757-123.146c0-71.671,58.107-129.78,129.779-129.78
	c71.669,0,129.779,58.109,129.779,129.78C385.779,316.53,348.646,365.156,297.104,382.34z"/>
</svg>
