<?xml version="1.0" encoding="utf-8"?>
<!-- Generator: Adobe Illustrator 18.0.0, SVG Export Plug-In . SVG Version: 6.00 Build 0)  -->
<!DOCTYPE svg PUBLIC "-//W3C//DTD SVG 1.1//EN" "http://www.w3.org/Graphics/SVG/1.1/DTD/svg11.dtd">
<svg version="1.1" xmlns="http://www.w3.org/2000/svg" xmlns:xlink="http://www.w3.org/1999/xlink" x="0px" y="0px"
	 viewBox="0 0 1200 300" enable-background="new 0 0 1200 300" xml:space="preserve">
<g id="Sfondo">
	<rect y="-0.5" fill="#29ABE2" width="1200" height="300"/>
	<polyline display="none" opacity="5.000000e-02" points="1197,0.1 1200,-0.5 1200,298.5 696,300 514,-1 	"/>
	<polyline opacity="0.1" points="1197.5,0.1 1199,-0.5 1199,298.5 937.2,300 842.6,-1 	"/>
</g>
<g id="Content">
	<text transform="matrix(1 0 0 1 404.0127 60.7778)" display="none" fill="#FFFFFF" font-family="'Charter-Roman'" font-size="42">20 Maggio 2015</text>
	<text transform="matrix(1 0 0 1 331.0127 195.5381)" display="none" fill="#FFFFFF" font-family="'Cabin-Regular'" font-size="44">Start with a Google Cloud </text>
	<text transform="matrix(1 0 0 1 249.0127 141.9023)" display="none" fill="#FFFFFF" font-family="'Cabin-Bold'" font-size="64">App Engine take-off</text>
	<g display="none">
		<g display="inline">
			<defs>
				<rect id="SVGID_1_" x="297.3" y="228" width="29" height="49.9"/>
			</defs>
			<clipPath id="SVGID_2_">
				<use xlink:href="#SVGID_1_"  overflow="visible"/>
			</clipPath>
			<g clip-path="url(#SVGID_2_)">
				<defs>
					<rect id="SVGID_3_" x="297.3" y="228" width="29" height="49.9"/>
				</defs>
				<clipPath id="SVGID_4_">
					<use xlink:href="#SVGID_3_"  overflow="visible"/>
				</clipPath>
				<g clip-path="url(#SVGID_4_)">
					<defs>
						<rect id="SVGID_5_" x="297.3" y="228" width="29" height="49.9"/>
					</defs>
					<clipPath id="SVGID_6_">
						<use xlink:href="#SVGID_5_"  overflow="visible"/>
					</clipPath>
					<path clip-path="url(#SVGID_6_)" fill="#FFFFFF" d="M315.1,259.3L304,277.9h5.6c1.3,0,3-0.9,3.7-2.1l4.8-7.9
						c0.6-1.2,0.5-2.8-0.1-3.9L315.1,259.3z"/>
				</g>
				<g clip-path="url(#SVGID_4_)">
					<defs>
						<path id="SVGID_7_" d="M310,255l-12.6,21c-0.5,1,0,1.9,1.3,1.9h5.2l11.2-18.6l-5.1-8.5C310.7,252,310.7,253.9,310,255"/>
					</defs>
					<clipPath id="SVGID_8_">
						<use xlink:href="#SVGID_7_"  overflow="visible"/>
					</clipPath>
					
						<radialGradient id="SVGID_9_" cx="130.7366" cy="29.324" r="9.853655e-02" gradientTransform="matrix(116.1371 0 0 -116.1371 -14877.1309 3669.9714)" gradientUnits="userSpaceOnUse">
						<stop  offset="0" style="stop-color:#E0E1E2"/>
						<stop  offset="1" style="stop-color:#D5D7D8"/>
					</radialGradient>
					<rect x="297" y="250.9" clip-path="url(#SVGID_8_)" fill="url(#SVGID_9_)" width="18.1" height="27"/>
				</g>
				<g clip-path="url(#SVGID_4_)">
					<defs>
						<rect id="SVGID_10_" x="297.3" y="228" width="29" height="49.9"/>
					</defs>
					<clipPath id="SVGID_11_">
						<use xlink:href="#SVGID_10_"  overflow="visible"/>
					</clipPath>
					<path clip-path="url(#SVGID_11_)" fill="#FFFFFF" d="M298.8,228c-1.3,0-1.9,0.9-1.2,2.1L318,264c0.6,1.1,0.7,2.8,0.1,3.9l5-8.2
						L304,228H298.8z"/>
				</g>
				<g clip-path="url(#SVGID_4_)">
					<defs>
						<path id="SVGID_12_" d="M304,228l19,31.6l2.8-4.6c0.7-1.2,0.7-3,0-4.2l-12.5-20.8c-0.7-1.1-2.3-2.1-3.7-2.1H304z"/>
					</defs>
					<clipPath id="SVGID_13_">
						<use xlink:href="#SVGID_12_"  overflow="visible"/>
					</clipPath>
					
						<radialGradient id="SVGID_14_" cx="130.0292" cy="28.4891" r="9.856121e-02" gradientTransform="matrix(138.8162 0 0 -138.8162 -17735.0371 4198.5635)" gradientUnits="userSpaceOnUse">
						<stop  offset="0" style="stop-color:#E0E1E2"/>
						<stop  offset="1" style="stop-color:#D5D7D8"/>
					</radialGradient>
					<rect x="304" y="228" clip-path="url(#SVGID_13_)" fill="url(#SVGID_14_)" width="22.5" height="31.6"/>
				</g>
				<g clip-path="url(#SVGID_4_)">
					<defs>
						<rect id="SVGID_15_" x="297.3" y="228" width="29" height="49.9"/>
					</defs>
					<clipPath id="SVGID_16_">
						<use xlink:href="#SVGID_15_"  overflow="visible"/>
					</clipPath>
					<g clip-path="url(#SVGID_16_)">
						<g>
							<defs>
								<rect id="SVGID_17_" x="307.3" y="250.9" width="11.2" height="17"/>
							</defs>
							<clipPath id="SVGID_18_">
								<use xlink:href="#SVGID_17_"  overflow="visible"/>
							</clipPath>
							<g clip-path="url(#SVGID_18_)">
								<defs>
									<path id="SVGID_19_" d="M318,264l-7.9-13.1c0.7,1.1,0.7,3,0,4.2l-2.8,4.6l10.8,8.2C318.6,266.7,318.6,265,318,264"/>
								</defs>
								<clipPath id="SVGID_20_">
									<use xlink:href="#SVGID_19_"  overflow="visible"/>
								</clipPath>
								<defs>
									<filter id="Adobe_OpacityMaskFilter" filterUnits="userSpaceOnUse" x="307.3" y="250.9" width="11.4" height="17">
										<feColorMatrix  type="matrix" values="1 0 0 0 0  0 1 0 0 0  0 0 1 0 0  0 0 0 1 0"/>
									</filter>
								</defs>
								<mask maskUnits="userSpaceOnUse" x="307.3" y="250.9" width="11.4" height="17" id="SVGID_21_">
									<g filter="url(#Adobe_OpacityMaskFilter)">
										
											<linearGradient id="SVGID_22_" gradientUnits="userSpaceOnUse" x1="130.347" y1="35.4131" x2="130.4456" y2="35.4131" gradientTransform="matrix(-142.3638 0 0 142.3638 18877.6797 -4782.1831)">
											<stop  offset="0" style="stop-color:#333333"/>
											<stop  offset="1" style="stop-color:#404040"/>
										</linearGradient>
										<rect x="307.3" y="250.9" clip-path="url(#SVGID_20_)" fill="url(#SVGID_22_)" width="11.4" height="17"/>
									</g>
								</mask>
								
									<linearGradient id="SVGID_23_" gradientUnits="userSpaceOnUse" x1="130.347" y1="35.4131" x2="130.4456" y2="35.4131" gradientTransform="matrix(-142.3638 0 0 142.3638 18877.6797 -4782.1831)">
									<stop  offset="0" style="stop-color:#231F20"/>
									<stop  offset="1" style="stop-color:#F1F2F2"/>
								</linearGradient>
								
									<rect x="307.3" y="250.9" clip-path="url(#SVGID_20_)" mask="url(#SVGID_21_)" fill="url(#SVGID_23_)" width="11.4" height="17"/>
							</g>
						</g>
					</g>
					<g clip-path="url(#SVGID_16_)">
						<g>
							<defs>
								<rect id="SVGID_24_" x="297.3" y="228" width="29" height="49.9"/>
							</defs>
							<clipPath id="SVGID_25_">
								<use xlink:href="#SVGID_24_"  overflow="visible"/>
							</clipPath>
							<g clip-path="url(#SVGID_25_)">
								<defs>
									<path id="SVGID_26_" d="M325.8,250.9l-12.5-20.8c-0.7-1.1-2.3-2.1-3.7-2.1H304h-5.2c-1.3,0-1.9,0.9-1.2,2.1l12.5,20.8
										c0.7,1.1,0.7,3,0,4.2l-12.6,21c-0.5,1,0,1.9,1.3,1.9h5.2h5.6c1.3,0,3-0.9,3.7-2.1l9.7-16.2l2.8-4.6
										C326.5,253.9,326.5,252,325.8,250.9"/>
								</defs>
								<clipPath id="SVGID_27_">
									<use xlink:href="#SVGID_26_"  overflow="visible"/>
								</clipPath>
								<defs>
									<filter id="Adobe_OpacityMaskFilter_1_" filterUnits="userSpaceOnUse" x="296.9" y="228" width="29.6" height="49.9">
										<feColorMatrix  type="matrix" values="1 0 0 0 0  0 1 0 0 0  0 0 1 0 0  0 0 0 1 0"/>
									</filter>
								</defs>
								<mask maskUnits="userSpaceOnUse" x="296.9" y="228" width="29.6" height="49.9" id="SVGID_28_">
									<g filter="url(#Adobe_OpacityMaskFilter_1_)">
										
											<radialGradient id="SVGID_29_" cx="130.1666" cy="30.212" r="9.853049e-02" gradientTransform="matrix(206.9571 0 0 -206.9571 -26627.1211 6505.5352)" gradientUnits="userSpaceOnUse">
											<stop  offset="0" style="stop-color:#1A1A1A"/>
											<stop  offset="0.2395" style="stop-color:#0D0D0D"/>
											<stop  offset="0.5779" style="stop-color:#030303"/>
											<stop  offset="1" style="stop-color:#000000"/>
										</radialGradient>
										<rect x="296.9" y="228" clip-path="url(#SVGID_27_)" fill="url(#SVGID_29_)" width="29.6" height="49.9"/>
									</g>
								</mask>
								
									<radialGradient id="SVGID_30_" cx="130.169" cy="30.2147" r="9.855983e-02" gradientTransform="matrix(206.957 0 0 -206.957 -26627.5918 6506.0894)" gradientUnits="userSpaceOnUse">
									<stop  offset="0" style="stop-color:#FFFFFF"/>
									<stop  offset="8.962709e-02" style="stop-color:#FFFFFF"/>
									<stop  offset="1" style="stop-color:#FFFFFF"/>
								</radialGradient>
								
									<rect x="296.9" y="228" clip-path="url(#SVGID_27_)" mask="url(#SVGID_28_)" fill="url(#SVGID_30_)" width="29.6" height="49.9"/>
							</g>
						</g>
					</g>
				</g>
			</g>
		</g>
	</g>
	<text transform="matrix(1 0 0 1 226.9648 34.4717)" display="none" fill="#FFFFFF" font-family="'Bitter-Regular'" font-size="21">GDG Milano / workshop</text>
	<g display="none">
		<g display="inline">
			<defs>
				<rect id="SVGID_31_" x="971.8" y="241.5" width="182.2" height="41.9"/>
			</defs>
			<clipPath id="SVGID_32_">
				<use xlink:href="#SVGID_31_"  overflow="visible"/>
			</clipPath>
			<g clip-path="url(#SVGID_32_)">
				<defs>
					<rect id="SVGID_33_" x="971.8" y="241.5" width="182.2" height="41.9"/>
				</defs>
				<clipPath id="SVGID_34_">
					<use xlink:href="#SVGID_33_"  overflow="visible"/>
				</clipPath>
				<g clip-path="url(#SVGID_34_)">
					<text transform="matrix(1 0 0 1 1071.0034 272.225)"><tspan x="0" y="0" fill="#231F20" font-family="'OpenSans-Semibold'" font-size="27.9142" letter-spacing="-1">Mil</tspan><tspan x="36.4" y="0" fill="#231F20" font-family="'OpenSans-Semibold'" font-size="27.9142" letter-spacing="-1">a</tspan><tspan x="50.9" y="0" fill="#231F20" font-family="'OpenSans-Semibold'" font-size="27.9142" letter-spacing="-1">n</tspan><tspan x="67" y="0" fill="#231F20" font-family="'OpenSans-Semibold'" font-size="27.9142">o</tspan></text>
				</g>
				<g clip-path="url(#SVGID_34_)">
					<defs>
						<rect id="SVGID_35_" x="971.8" y="241.5" width="182.2" height="41.9"/>
					</defs>
					<clipPath id="SVGID_36_">
						<use xlink:href="#SVGID_35_"  overflow="visible"/>
					</clipPath>
					<path clip-path="url(#SVGID_36_)" fill="#231F20" d="M1015.2,260.7h8.6v10.7c-2.3,0.8-4.9,1.2-7.7,1.2c-3.1,0-5.4-0.9-7.1-2.7
						c-1.7-1.8-2.5-4.3-2.5-7.6c0-3.2,0.9-5.7,2.7-7.5c1.8-1.8,4.4-2.7,7.7-2.7c1.3,0,2.4,0.1,3.5,0.4c1.1,0.2,2.1,0.5,2.9,0.9
						l-1.7,4.2c-1.4-0.7-3-1.1-4.7-1.1c-1.6,0-2.8,0.5-3.6,1.5c-0.9,1-1.3,2.5-1.3,4.4c0,1.9,0.4,3.3,1.2,4.2c0.8,1,1.9,1.5,3.3,1.5
						c0.8,0,1.5-0.1,2.2-0.2v-3.1h-3.5V260.7z"/>
					<path clip-path="url(#SVGID_36_)" fill="#231F20" d="M1038,262.2c0-1.8-0.4-3.2-1.1-4.1c-0.7-0.9-1.8-1.3-3.3-1.3h-1.6V268h1.2
						c1.6,0,2.8-0.5,3.6-1.4C1037.7,265.6,1038,264.2,1038,262.2 M1043.6,262c0,3.3-0.9,5.9-2.7,7.7c-1.8,1.8-4.4,2.7-7.7,2.7h-6.4
						v-19.9h6.9c3.2,0,5.6,0.8,7.4,2.4C1042.8,256.6,1043.6,258.9,1043.6,262"/>
					<path clip-path="url(#SVGID_36_)" fill="#231F20" d="M1054,260.7h8.6v10.7c-2.3,0.8-4.9,1.2-7.7,1.2c-3.1,0-5.4-0.9-7.1-2.7
						c-1.7-1.8-2.5-4.3-2.5-7.6c0-3.2,0.9-5.7,2.7-7.5c1.8-1.8,4.4-2.7,7.7-2.7c1.2,0,2.4,0.1,3.5,0.4c1.1,0.2,2.1,0.5,2.9,0.9
						l-1.7,4.2c-1.4-0.7-3-1.1-4.7-1.1c-1.6,0-2.8,0.5-3.6,1.5c-0.9,1-1.3,2.5-1.3,4.4c0,1.9,0.4,3.3,1.2,4.2c0.8,1,1.9,1.5,3.3,1.5
						c0.8,0,1.5-0.1,2.2-0.2v-3.1h-3.6V260.7z"/>
				</g>
				<g clip-path="url(#SVGID_34_)">
					<defs>
						<path id="SVGID_37_" d="M977.4,283.4h4.7c1.1,0,2.5-0.8,3.1-1.8l4-6.6c0.5-1,0.5-2.4-0.1-3.3l-2.4-3.9L977.4,283.4z"/>
					</defs>
					<clipPath id="SVGID_38_">
						<use xlink:href="#SVGID_37_"  overflow="visible"/>
					</clipPath>
					
						<radialGradient id="SVGID_39_" cx="133.338" cy="34.9077" r="0.2147" gradientTransform="matrix(108.6747 200.4074 200.4074 -108.6747 -20515.4102 -22687.707)" gradientUnits="userSpaceOnUse">
						<stop  offset="0" style="stop-color:#FFCD4D"/>
						<stop  offset="1" style="stop-color:#F6C338"/>
					</radialGradient>
					<polygon clip-path="url(#SVGID_38_)" fill="url(#SVGID_39_)" points="986.9,262.6 996.3,279.9 980.2,288.6 970.9,271.3 					
						"/>
				</g>
				<g clip-path="url(#SVGID_34_)">
					<defs>
						<path id="SVGID_40_" d="M982.5,264.2L972,281.8c-0.4,0.9,0,1.6,1.1,1.6h4.4l9.4-15.6l-4.3-7.1
							C983.1,261.7,983.1,263.2,982.5,264.2"/>
					</defs>
					<clipPath id="SVGID_41_">
						<use xlink:href="#SVGID_40_"  overflow="visible"/>
					</clipPath>
					
						<radialGradient id="SVGID_42_" cx="133.338" cy="34.9077" r="0.2147" gradientTransform="matrix(108.674 200.4061 200.4061 -108.674 -20515.2637 -22687.5527)" gradientUnits="userSpaceOnUse">
						<stop  offset="0" style="stop-color:#0DA960"/>
						<stop  offset="1" style="stop-color:#03914B"/>
					</radialGradient>
					<polygon clip-path="url(#SVGID_41_)" fill="url(#SVGID_42_)" points="983.3,254.3 996.3,278.2 975,289.8 962,265.9 					"/>
				</g>
				<g clip-path="url(#SVGID_34_)">
					<defs>
						<path id="SVGID_43_" d="M973,241.5c-0.8,0-1.2,0.4-1.2,1v0c0,0.2,0.1,0.5,0.3,0.8l17.1,28.5c0.5,0.9,0.6,2.3,0.1,3.3l4.2-6.9
							l-16-26.6H973z"/>
					</defs>
					<clipPath id="SVGID_44_">
						<use xlink:href="#SVGID_43_"  overflow="visible"/>
					</clipPath>
					
						<radialGradient id="SVGID_45_" cx="133.3381" cy="34.9078" r="0.2147" gradientTransform="matrix(108.6723 200.403 200.403 -108.6723 -20514.9531 -22687.2051)" gradientUnits="userSpaceOnUse">
						<stop  offset="0" style="stop-color:#4387FD"/>
						<stop  offset="1" style="stop-color:#4683EA"/>
					</radialGradient>
					<polygon clip-path="url(#SVGID_44_)" fill="url(#SVGID_45_)" points="988.5,232.4 1007.4,267.4 976.7,284.1 957.7,249.1 					
						"/>
				</g>
				<g clip-path="url(#SVGID_34_)">
					<defs>
						<path id="SVGID_46_" d="M977.4,241.5l16,26.6l2.3-3.9c0.6-1,0.6-2.5,0-3.5l-10.5-17.4c-0.6-1-2-1.8-3.1-1.8H977.4z"/>
					</defs>
					<clipPath id="SVGID_47_">
						<use xlink:href="#SVGID_46_"  overflow="visible"/>
					</clipPath>
					
						<radialGradient id="SVGID_48_" cx="133.3383" cy="34.9079" r="0.2147" gradientTransform="matrix(108.6655 200.3905 200.3905 -108.6655 -20513.6543 -22685.7949)" gradientUnits="userSpaceOnUse">
						<stop  offset="0" style="stop-color:#E04A3F"/>
						<stop  offset="1" style="stop-color:#CD372D"/>
					</radialGradient>
					<polygon clip-path="url(#SVGID_47_)" fill="url(#SVGID_48_)" points="992,233.6 1007.4,262 981.7,276 966.3,247.5 					"/>
				</g>
				<g clip-path="url(#SVGID_34_)">
					<defs>
						<rect id="SVGID_49_" x="971.8" y="241.5" width="182.2" height="41.9"/>
					</defs>
					<clipPath id="SVGID_50_">
						<use xlink:href="#SVGID_49_"  overflow="visible"/>
					</clipPath>
					<g clip-path="url(#SVGID_50_)">
						<g>
							<defs>
								<rect id="SVGID_51_" x="980.2" y="260.7" width="9.4" height="14.3"/>
							</defs>
							<clipPath id="SVGID_52_">
								<use xlink:href="#SVGID_51_"  overflow="visible"/>
							</clipPath>
							<g clip-path="url(#SVGID_52_)">
								<defs>
									<path id="SVGID_53_" d="M989.2,271.7l-6.7-11c0.6,1,0.6,2.5,0,3.5l-2.3,3.9l9.1,6.9C989.7,274,989.7,272.6,989.2,271.7"/>
								</defs>
								<clipPath id="SVGID_54_">
									<use xlink:href="#SVGID_53_"  overflow="visible"/>
								</clipPath>
								<defs>
									<filter id="Adobe_OpacityMaskFilter_2_" filterUnits="userSpaceOnUse" x="980.2" y="260.7" width="9.5" height="14.3">
										<feColorMatrix  type="matrix" values="1 0 0 0 0  0 1 0 0 0  0 0 1 0 0  0 0 0 1 0"/>
									</filter>
								</defs>
								<mask maskUnits="userSpaceOnUse" x="980.2" y="260.7" width="9.5" height="14.3" id="SVGID_55_">
									<g filter="url(#Adobe_OpacityMaskFilter_2_)">
										
											<linearGradient id="SVGID_56_" gradientUnits="userSpaceOnUse" x1="115.9998" y1="38.1042" x2="116.2145" y2="38.1042" gradientTransform="matrix(-54.9201 0 0 54.9201 7362.4346 -1824.8412)">
											<stop  offset="0" style="stop-color:#333333"/>
											<stop  offset="1" style="stop-color:#404040"/>
										</linearGradient>
										<rect x="980.2" y="260.7" clip-path="url(#SVGID_54_)" fill="url(#SVGID_56_)" width="9.5" height="14.3"/>
									</g>
								</mask>
								
									<linearGradient id="SVGID_57_" gradientUnits="userSpaceOnUse" x1="115.9998" y1="38.1042" x2="116.2145" y2="38.1042" gradientTransform="matrix(-54.9201 0 0 54.9201 7362.4336 -1824.8409)">
									<stop  offset="0" style="stop-color:#231F20"/>
									<stop  offset="1" style="stop-color:#F1F2F2"/>
								</linearGradient>
								
									<rect x="980.2" y="260.7" clip-path="url(#SVGID_54_)" mask="url(#SVGID_55_)" fill="url(#SVGID_57_)" width="9.5" height="14.3"/>
							</g>
						</g>
					</g>
					<g clip-path="url(#SVGID_50_)">
						<g>
							<defs>
								<rect id="SVGID_58_" x="971.8" y="241.5" width="24.4" height="41.9"/>
							</defs>
							<clipPath id="SVGID_59_">
								<use xlink:href="#SVGID_58_"  overflow="visible"/>
							</clipPath>
							<g clip-path="url(#SVGID_59_)">
								<defs>
									<path id="SVGID_60_" d="M995.7,260.7l-10.5-17.4c-0.6-1-2-1.8-3.1-1.8h-4.7H973c-1.1,0-1.6,0.8-1,1.8l10.5,17.4
										c0.6,1,0.6,2.5,0,3.5L972,281.8c-0.4,0.9,0,1.6,1.1,1.6h4.4h4.7c1.1,0,2.5-0.8,3.1-1.8l8.2-13.6l2.3-3.9
										C996.3,263.2,996.3,261.7,995.7,260.7"/>
								</defs>
								<clipPath id="SVGID_61_">
									<use xlink:href="#SVGID_60_"  overflow="visible"/>
								</clipPath>
								<defs>
									<filter id="Adobe_OpacityMaskFilter_3_" filterUnits="userSpaceOnUse" x="971.5" y="241.5" width="24.9" height="41.9">
										<feColorMatrix  type="matrix" values="1 0 0 0 0  0 1 0 0 0  0 0 1 0 0  0 0 0 1 0"/>
									</filter>
								</defs>
								<mask maskUnits="userSpaceOnUse" x="971.5" y="241.5" width="24.9" height="41.9" id="SVGID_62_">
									<g filter="url(#Adobe_OpacityMaskFilter_3_)">
										
											<radialGradient id="SVGID_63_" cx="139.9853" cy="28.3974" r="0.2147" gradientTransform="matrix(79.8353 0 0 -79.8353 -10191.8047 2529.5662)" gradientUnits="userSpaceOnUse">
											<stop  offset="0" style="stop-color:#1A1A1A"/>
											<stop  offset="0.2395" style="stop-color:#0D0D0D"/>
											<stop  offset="0.5779" style="stop-color:#030303"/>
											<stop  offset="1" style="stop-color:#000000"/>
										</radialGradient>
										<rect x="971.5" y="241.5" clip-path="url(#SVGID_61_)" fill="url(#SVGID_63_)" width="24.9" height="41.9"/>
									</g>
								</mask>
								
									<radialGradient id="SVGID_64_" cx="139.9853" cy="28.3974" r="0.2147" gradientTransform="matrix(79.8353 0 0 -79.8353 -10191.8047 2529.5662)" gradientUnits="userSpaceOnUse">
									<stop  offset="0" style="stop-color:#FFFFFF"/>
									<stop  offset="1" style="stop-color:#FFFFFF"/>
								</radialGradient>
								
									<rect x="971.5" y="241.5" clip-path="url(#SVGID_61_)" mask="url(#SVGID_62_)" fill="url(#SVGID_64_)" width="24.9" height="41.9"/>
							</g>
						</g>
					</g>
				</g>
			</g>
		</g>
	</g>
	<g display="none">
		<line display="inline" fill="#FFFFFF" x1="825" y1="90.5" x2="825" y2="197.5"/>
		<path display="inline" fill="#FFFFFF" d="M825.5,90.5c0.6,8.9,0.9,17.8,1.2,26.8c0.1,4.5,0.2,8.9,0.2,13.4L827,144l-0.1,13.4
			c-0.1,4.5-0.1,8.9-0.2,13.4c-0.2,8.9-0.5,17.8-1.2,26.8c-0.6-8.9-1-17.8-1.2-26.8c-0.1-4.5-0.2-8.9-0.2-13.4L824,144l0.1-13.4
			c0.1-4.5,0.1-8.9,0.2-13.4C824.6,108.3,824.9,99.4,825.5,90.5z"/>
	</g>
	<text transform="matrix(1 0 0 1 335 264.6113)" display="none"><tspan x="0" y="0" display="inline" fill="#FFFFFF" font-family="'OpenSans-Extrabold'" font-size="33">GDG </tspan><tspan x="81.6" y="0" display="inline" fill="#FFFFFF" font-family="'OpenSans-Semibold'" font-size="33" letter-spacing="-2">Milano</tspan></text>
	<circle fill="#0071BC" cx="886.5" cy="140.8" r="42.5"/>
	<text transform="matrix(0.98 0 0 1 848.0127 162.374)" fill="#FFFFFF" font-family="'Cabin-Bold'" font-size="60">04</text>
</g>
<g id="Reticolo">
	<polygon display="none" fill="#0A9749" points="1132.7,158.5 1048.7,175.6 1060.8,143.5 	"/>
	<polygon display="none" fill="#6088CB" points="991,61.9 944,121.8 978.1,33 	"/>
	<polygon display="none" fill="#DD3629" points="943.9,121.8 991,61.9 1088.3,65.5 	"/>
	<polygon display="none" fill="#F8C728" points="1048.7,175.6 1185.7,300.2 1132.7,158.5 	"/>
	<polygon fill="#FFFFFF" points="1061.5,514.7 1024,493.3 1023.7,493.9 1061.5,515.5 	"/>
	<polyline fill="#FFFFFF" points="1023.7,493.4 972.6,531.1 973,531.7 1024.1,493.9 	"/>
	<polygon fill="#FFFFFF" points="1061.5,521.1 1061.5,520.4 972.8,531 972.8,531.7 	"/>
	<polygon fill="#FFFFFF" points="1061.5,580.3 973,531.1 972.6,531.7 1061.5,581.1 	"/>
	<polygon fill="#FFFFFF" points="1061.5,585.7 993.7,578.1 993.6,578.8 1061.5,586.4 	"/>
	<polyline fill="#FFFFFF" points="972.5,531.5 993.3,578.6 994,578.3 973.1,531.2 	"/>
	<polygon fill="#FFFFFF" points="1061.5,481.7 1061.5,481 1023.8,493.3 1024,494 	"/>
	<polyline fill="#FFFFFF" points="1023.9,493.3 949.4,485.2 949.3,485.8 1023.8,494 	"/>
	<polyline fill="#FFFFFF" points="973.1,531.2 949.6,485.3 949,485.6 972.5,531.5 	"/>
	<polyline fill="#FFFFFF" points="972.6,531.1 921.6,563.3 922,563.8 973,531.7 	"/>
	<polyline fill="#FFFFFF" points="993.7,578.2 921.8,563.2 921.7,563.9 993.6,578.8 	"/>
	<polyline fill="#FFFFFF" points="921.5,563.4 909.4,595.5 910,595.7 922.1,563.7 	"/>
	<polyline fill="#FFFFFF" points="993.6,578.2 909.7,595.3 909.8,596 993.7,578.8 	"/>
	<polygon fill="#FFFFFF" points="1061.5,648.3 993.9,578.3 993.4,578.7 1061.5,649.3 	"/>
	<polyline fill="#FFFFFF" points="949.1,485.2 879.5,539.6 879.9,540.2 949.6,485.8 	"/>
	<polyline fill="#FFFFFF" points="879.5,540.2 921.6,563.8 921.9,563.2 879.9,539.6 	"/>
	<polyline fill="#FFFFFF" points="910,595.5 880,539.7 879.4,540.1 909.4,595.8 	"/>
	<polyline fill="#FFFFFF" points="949.2,485.2 804.8,541.5 805,542.1 949.5,485.8 	"/>
	<polyline fill="#FFFFFF" points="909.9,595.3 805.1,541.5 804.8,542.1 909.6,595.9 	"/>
	<polygon fill="#FFFFFF" points="879.7,540.2 879.7,539.6 805,541.5 805,542.2 	"/>
	<polyline fill="#FFFFFF" points="949.4,485.2 839.2,452.6 839,453.3 949.2,485.8 	"/>
	<polyline fill="#FFFFFF" points="805.2,542 839.4,453.1 838.8,452.8 804.6,541.7 	"/>
	<polyline fill="#FFFFFF" points="805.2,541.7 764.3,419.6 763.6,419.8 804.6,541.9 	"/>
	<polyline fill="#FFFFFF" points="839.3,452.7 764.1,419.4 763.8,420 839,453.3 	"/>
	<polyline fill="#FFFFFF" points="949.4,485.1 852,481.5 852,482.2 949.3,485.8 	"/>
	<polyline fill="#FFFFFF" points="852.3,481.8 839.4,452.8 838.8,453.1 851.7,482 	"/>
	<polyline fill="#FFFFFF" points="805.2,542 852.3,482.1 851.8,481.7 804.7,541.6 	"/>
	<polyline fill="#FFFFFF" points="949.6,485.8 1032.9,420.6 1032.5,420.1 949.1,485.2 	"/>
	<polyline fill="#FFFFFF" points="1024.2,493.7 1033,420.4 1032.4,420.3 1023.5,493.6 	"/>
	<polyline fill="#FFFFFF" points="909.5,595.9 1046.5,720.5 1046.9,720 909.9,595.4 	"/>
	<polyline fill="#FFFFFF" points="839.3,453.2 883.9,420.4 883.5,419.9 838.9,452.7 	"/>
	<line fill="#FFFFFF" stroke="#FFFFFF" stroke-miterlimit="10" x1="993.7" y1="578.5" x2="1046.7" y2="720.4"/>
	<polygon display="none" fill="#0A9749" points="647.7,154.4 563.7,137.3 575.8,169.3 	"/>
	<polygon display="none" fill="#6088CB" points="506,251 459,191.1 493.1,279.9 	"/>
	<polygon display="none" fill="#DD3629" points="458.9,191 506,251 603.3,247.4 	"/>
	<polygon display="none" fill="#F8C728" points="563.7,137.3 700.7,12.7 647.7,154.4 	"/>
	<polygon fill="#FFFFFF" points="-0.4,205.2 37,226.5 37.4,226 -0.4,204.4 	"/>
	<polyline fill="#FFFFFF" points="37.4,226.5 88.5,188.8 88.1,188.2 37,226 	"/>
	<polygon fill="#FFFFFF" points="-0.4,198.8 -0.4,199.5 88.3,188.8 88.2,188.2 	"/>
	<polygon fill="#FFFFFF" points="-0.4,139.5 88.1,188.8 88.4,188.2 -0.4,138.8 	"/>
	<polygon fill="#FFFFFF" points="-0.4,134.2 67.4,141.7 67.5,141.1 -0.4,133.5 	"/>
	<polyline fill="#FFFFFF" points="88.5,188.4 67.7,141.3 67.1,141.5 87.9,188.6 	"/>
	<polygon fill="#FFFFFF" points="-0.4,238.2 -0.4,238.9 37.3,226.6 37.1,225.9 	"/>
	<polyline fill="#FFFFFF" points="37.2,226.6 111.7,234.7 111.8,234 37.2,225.9 	"/>
	<polyline fill="#FFFFFF" points="88,188.6 111.4,234.5 112,234.2 88.6,188.3 	"/>
	<polyline fill="#FFFFFF" points="88.5,188.8 139.5,156.6 139.1,156.1 88.1,188.2 	"/>
	<polyline fill="#FFFFFF" points="67.4,141.7 139.2,156.7 139.4,156 67.5,141.1 	"/>
	<polyline fill="#FFFFFF" points="139.6,156.5 151.7,124.4 151,124.1 139,156.2 	"/>
	<polyline fill="#FFFFFF" points="67.5,141.7 151.4,124.6 151.3,123.9 67.4,141.1 	"/>
	<polygon fill="#FFFFFF" points="-0.4,71.6 67.2,141.6 67.7,141.2 -0.4,70.6 	"/>
	<polyline fill="#FFFFFF" points="111.9,234.7 181.6,180.2 181.2,179.7 111.5,234.1 	"/>
	<polyline fill="#FFFFFF" points="181.5,179.7 139.5,156 139.1,156.6 181.2,180.3 	"/>
	<polyline fill="#FFFFFF" points="151.1,124.4 181.1,180.1 181.7,179.8 151.7,124.1 	"/>
	<polyline fill="#FFFFFF" points="111.9,234.7 256.3,178.4 256,177.7 111.6,234.1 	"/>
	<polyline fill="#FFFFFF" points="151.2,124.6 256,178.4 256.3,177.8 151.5,123.9 	"/>
	<polygon fill="#FFFFFF" points="181.4,179.6 181.4,180.3 256.1,178.4 256.1,177.7 	"/>
	<polyline fill="#FFFFFF" points="111.6,234.7 221.9,267.2 222,266.6 111.8,234.1 	"/>
	<polyline fill="#FFFFFF" points="255.8,177.9 221.6,266.8 222.3,267 256.5,178.2 	"/>
	<polyline fill="#FFFFFF" points="255.8,178.2 296.8,300.3 297.5,300 256.5,177.9 	"/>
	<polyline fill="#FFFFFF" points="221.8,267.2 297,300.5 297.3,299.8 222.1,266.6 	"/>
	<polyline fill="#FFFFFF" points="111.7,234.7 209,238.3 209.1,237.7 111.7,234 	"/>
	<polyline fill="#FFFFFF" points="208.7,238.1 221.6,267.1 222.3,266.8 209.4,237.9 	"/>
	<polyline fill="#FFFFFF" points="255.9,177.8 208.8,237.8 209.3,238.2 256.4,178.2 	"/>
	<polyline fill="#FFFFFF" points="111.5,234.1 28.2,299.3 28.6,299.8 111.9,234.7 	"/>
	<polyline fill="#FFFFFF" points="36.9,226.2 28,299.5 28.7,299.6 37.5,226.3 	"/>
	<polyline fill="#FFFFFF" points="151.6,124 14.6,-0.6 14.1,-0.1 151.1,124.5 	"/>
	<polyline fill="#FFFFFF" points="221.8,266.6 177.2,299.4 177.6,300 222.2,267.2 	"/>
	<line fill="#FFFFFF" stroke="#FFFFFF" stroke-miterlimit="10" x1="67.4" y1="141.4" x2="14.3" y2="-0.6"/>
</g>
</svg>
