<?xml version="1.0" encoding="utf-8"?>
<!-- Generator: Adobe Illustrator 18.0.0, SVG Export Plug-In . SVG Version: 6.00 Build 0)  -->
<!DOCTYPE svg PUBLIC "-//W3C//DTD SVG 1.1//EN" "http://www.w3.org/Graphics/SVG/1.1/DTD/svg11.dtd">
<svg version="1.1" xmlns="http://www.w3.org/2000/svg" xmlns:xlink="http://www.w3.org/1999/xlink" x="0px" y="0px"
	 viewBox="0 0 1200 300" enable-background="new 0 0 1200 300" xml:space="preserve">
<g id="Sfondo">
	<rect y="-0.5" fill="#29ABE2" width="1200" height="300"/>
	<polyline display="none" opacity="0.05" points="1197.041,0.147 1200,-0.5 1200,298.5 696,300 513.9619,-1 	"/>
	<polyline opacity="0.1" points="1197.4629,0.147 1199,-0.5 1199,298.5 937.1886,300 842.6258,-1 	"/>
</g>
<g id="Content">
	<text transform="matrix(1 0 0 1 404.0127 60.7778)" display="none" fill="#FFFFFF" font-family="'Charter-Roman'" font-size="42">26 Marzo 2015</text>
	<text transform="matrix(1 0 0 1 331.0127 195.5381)" display="none" fill="#FFFFFF" font-family="'Cabin-Regular'" font-size="44">Start with a Google Cloud </text>
	<text transform="matrix(1 0 0 1 249.0127 141.9023)" display="none" fill="#FFFFFF" font-family="'Cabin-Bold'" font-size="64">App Engine take-off</text>
	<g display="none">
		<g display="inline">
			<defs>
				<rect id="SVGID_1_" x="297.2715" y="228.0107" width="29.0176" height="49.8604"/>
			</defs>
			<clipPath id="SVGID_2_">
				<use xlink:href="#SVGID_1_"  overflow="visible"/>
			</clipPath>
			<g clip-path="url(#SVGID_2_)">
				<defs>
					<rect id="SVGID_3_" x="297.2715" y="228.0107" width="29.0176" height="49.8604"/>
				</defs>
				<clipPath id="SVGID_4_">
					<use xlink:href="#SVGID_3_"  overflow="visible"/>
				</clipPath>
				<g clip-path="url(#SVGID_4_)">
					<defs>
						<rect id="SVGID_5_" x="297.2715" y="228.0107" width="29.0176" height="49.8604"/>
					</defs>
					<clipPath id="SVGID_6_">
						<use xlink:href="#SVGID_5_"  overflow="visible"/>
					</clipPath>
					<path clip-path="url(#SVGID_6_)" fill="#FFFFFF" d="M315.1499,259.3105l-11.1733,18.5606h5.6435
						c1.335,0,2.9932-0.9365,3.6826-2.0879l4.7544-7.9082c0.5611-1.1602,0.542-2.8477-0.1001-3.918L315.1499,259.3105z"/>
				</g>
				<g clip-path="url(#SVGID_4_)">
					<defs>
						<path id="SVGID_7_" d="M310.043,255.0303l-12.5508,20.9824c-0.4844,1.0361,0.02,1.8584,1.2641,1.8584h5.2203l11.1733-18.5606
							l-5.1069-8.4541C310.7314,252.002,310.7314,253.8799,310.043,255.0303"/>
					</defs>
					<clipPath id="SVGID_8_">
						<use xlink:href="#SVGID_7_"  overflow="visible"/>
					</clipPath>
					
						<radialGradient id="SVGID_9_" cx="130.7366" cy="29.324" r="0.0985" gradientTransform="matrix(116.1371 0 0 -116.1371 -14877.1309 3669.9714)" gradientUnits="userSpaceOnUse">
						<stop  offset="0" style="stop-color:#E0E1E2"/>
						<stop  offset="1" style="stop-color:#D5D7D8"/>
					</radialGradient>
					<rect x="297.0078" y="250.8564" clip-path="url(#SVGID_8_)" fill="url(#SVGID_9_)" width="18.1421" height="27.0147"/>
				</g>
				<g clip-path="url(#SVGID_4_)">
					<defs>
						<rect id="SVGID_10_" x="297.2715" y="228.0107" width="29.0176" height="49.8604"/>
					</defs>
					<clipPath id="SVGID_11_">
						<use xlink:href="#SVGID_10_"  overflow="visible"/>
					</clipPath>
					<path clip-path="url(#SVGID_11_)" fill="#FFFFFF" d="M298.7563,228.0107c-1.3398,0-1.872,0.9405-1.1826,2.087l20.3833,33.8593
						c0.6421,1.0703,0.6612,2.7578,0.1001,3.918l4.9561-8.248l-19.0342-31.6163H298.7563z"/>
				</g>
				<g clip-path="url(#SVGID_4_)">
					<defs>
						<path id="SVGID_12_" d="M303.979,228.0107l19.0342,31.6163l2.7588-4.5967c0.6889-1.1504,0.6889-3.0283,0-4.1739
							l-12.4693-20.7587c-0.6894-1.1465-2.3476-2.087-3.6826-2.087H303.979z"/>
					</defs>
					<clipPath id="SVGID_13_">
						<use xlink:href="#SVGID_12_"  overflow="visible"/>
					</clipPath>
					
						<radialGradient id="SVGID_14_" cx="130.0292" cy="28.4891" r="0.0986" gradientTransform="matrix(138.8162 0 0 -138.8162 -17735.0371 4198.5635)" gradientUnits="userSpaceOnUse">
						<stop  offset="0" style="stop-color:#E0E1E2"/>
						<stop  offset="1" style="stop-color:#D5D7D8"/>
					</radialGradient>
					<rect x="303.979" y="228.0107" clip-path="url(#SVGID_13_)" fill="url(#SVGID_14_)" width="22.4819" height="31.6163"/>
				</g>
				<g clip-path="url(#SVGID_4_)">
					<defs>
						<rect id="SVGID_15_" x="297.2715" y="228.0107" width="29.0176" height="49.8604"/>
					</defs>
					<clipPath id="SVGID_16_">
						<use xlink:href="#SVGID_15_"  overflow="visible"/>
					</clipPath>
					<g clip-path="url(#SVGID_16_)">
						<g>
							<defs>
								<rect id="SVGID_17_" x="307.2563" y="250.8564" width="11.2027" height="17.0186"/>
							</defs>
							<clipPath id="SVGID_18_">
								<use xlink:href="#SVGID_17_"  overflow="visible"/>
							</clipPath>
							<g clip-path="url(#SVGID_18_)">
								<defs>
									<path id="SVGID_19_" d="M317.957,263.957l-7.914-13.1006c0.6884,1.1456,0.6884,3.0235,0,4.1739l-2.7867,4.6386
										l10.8008,8.2061C318.6182,266.7148,318.5991,265.0273,317.957,263.957"/>
								</defs>
								<clipPath id="SVGID_20_">
									<use xlink:href="#SVGID_19_"  overflow="visible"/>
								</clipPath>
								<defs>
									
										<filter id="Adobe_OpacityMaskFilter" filterUnits="userSpaceOnUse" x="307.2563" y="250.8564" width="11.3619" height="17.0186">
										<feColorMatrix  type="matrix" values="1 0 0 0 0  0 1 0 0 0  0 0 1 0 0  0 0 0 1 0"/>
									</filter>
								</defs>
								<mask maskUnits="userSpaceOnUse" x="307.2563" y="250.8564" width="11.3619" height="17.0186" id="SVGID_21_">
									<g filter="url(#Adobe_OpacityMaskFilter)">
										
											<linearGradient id="SVGID_22_" gradientUnits="userSpaceOnUse" x1="130.347" y1="35.4131" x2="130.4456" y2="35.4131" gradientTransform="matrix(-142.3638 0 0 142.3638 18877.6797 -4782.1831)">
											<stop  offset="0" style="stop-color:#333333"/>
											<stop  offset="1" style="stop-color:#404040"/>
										</linearGradient>
										<rect x="307.2563" y="250.8564" clip-path="url(#SVGID_20_)" fill="url(#SVGID_22_)" width="11.3619" height="17.0186"/>
									</g>
								</mask>
								
									<linearGradient id="SVGID_23_" gradientUnits="userSpaceOnUse" x1="130.347" y1="35.4131" x2="130.4456" y2="35.4131" gradientTransform="matrix(-142.3638 0 0 142.3638 18877.6797 -4782.1831)">
									<stop  offset="0" style="stop-color:#231F20"/>
									<stop  offset="1" style="stop-color:#F1F2F2"/>
								</linearGradient>
								
									<rect x="307.2563" y="250.8564" clip-path="url(#SVGID_20_)" mask="url(#SVGID_21_)" fill="url(#SVGID_23_)" width="11.3619" height="17.0186"/>
							</g>
						</g>
					</g>
					<g clip-path="url(#SVGID_16_)">
						<g>
							<defs>
								<rect id="SVGID_24_" x="297.2715" y="228.0107" width="29.0176" height="49.8604"/>
							</defs>
							<clipPath id="SVGID_25_">
								<use xlink:href="#SVGID_24_"  overflow="visible"/>
							</clipPath>
							<g clip-path="url(#SVGID_25_)">
								<defs>
									<path id="SVGID_26_" d="M325.772,250.8564l-12.4693-20.7587c-0.6894-1.1465-2.3476-2.087-3.6826-2.087h-5.6411h-5.2227
										c-1.3398,0-1.872,0.9405-1.1826,2.087l12.4693,20.7587c0.6884,1.1456,0.6884,3.0235,0,4.1739l-12.5508,20.9824
										c-0.4844,1.0361,0.02,1.8584,1.2641,1.8584h5.2203h5.6435c1.335,0,2.9932-0.9365,3.6826-2.0879l9.7105-16.1562
										l2.7588-4.5967C326.4619,253.8799,326.4619,252.002,325.772,250.8564"/>
								</defs>
								<clipPath id="SVGID_27_">
									<use xlink:href="#SVGID_26_"  overflow="visible"/>
								</clipPath>
								<defs>
									
										<filter id="Adobe_OpacityMaskFilter_1_" filterUnits="userSpaceOnUse" x="296.8843" y="228.0107" width="29.5776" height="49.8604">
										<feColorMatrix  type="matrix" values="1 0 0 0 0  0 1 0 0 0  0 0 1 0 0  0 0 0 1 0"/>
									</filter>
								</defs>
								<mask maskUnits="userSpaceOnUse" x="296.8843" y="228.0107" width="29.5776" height="49.8604" id="SVGID_28_">
									<g filter="url(#Adobe_OpacityMaskFilter_1_)">
										
											<radialGradient id="SVGID_29_" cx="130.1666" cy="30.212" r="0.0985" gradientTransform="matrix(206.9571 0 0 -206.9571 -26627.1211 6505.5352)" gradientUnits="userSpaceOnUse">
											<stop  offset="0" style="stop-color:#1A1A1A"/>
											<stop  offset="0.2395" style="stop-color:#0D0D0D"/>
											<stop  offset="0.5779" style="stop-color:#030303"/>
											<stop  offset="1" style="stop-color:#000000"/>
										</radialGradient>
										<rect x="296.8843" y="228.0107" clip-path="url(#SVGID_27_)" fill="url(#SVGID_29_)" width="29.5776" height="49.8604"/>
									</g>
								</mask>
								
									<radialGradient id="SVGID_30_" cx="130.169" cy="30.2147" r="0.0986" gradientTransform="matrix(206.957 0 0 -206.957 -26627.5918 6506.0894)" gradientUnits="userSpaceOnUse">
									<stop  offset="0" style="stop-color:#FFFFFF"/>
									<stop  offset="0.0896" style="stop-color:#FFFFFF"/>
									<stop  offset="1" style="stop-color:#FFFFFF"/>
								</radialGradient>
								
									<rect x="296.8843" y="228.0107" clip-path="url(#SVGID_27_)" mask="url(#SVGID_28_)" fill="url(#SVGID_30_)" width="29.5776" height="49.8604"/>
							</g>
						</g>
					</g>
				</g>
			</g>
		</g>
	</g>
	<text transform="matrix(1 0 0 1 226.9648 34.4717)" display="none" fill="#FFFFFF" font-family="'Bitter-Regular'" font-size="21">GDG Milano / workshop</text>
	<g display="none">
		<g display="inline">
			<defs>
				<rect id="SVGID_31_" x="971.7791" y="241.4963" width="182.1818" height="41.9013"/>
			</defs>
			<clipPath id="SVGID_32_">
				<use xlink:href="#SVGID_31_"  overflow="visible"/>
			</clipPath>
			<g clip-path="url(#SVGID_32_)">
				<defs>
					<rect id="SVGID_33_" x="971.7791" y="241.4963" width="182.1818" height="41.9013"/>
				</defs>
				<clipPath id="SVGID_34_">
					<use xlink:href="#SVGID_33_"  overflow="visible"/>
				</clipPath>
				<g clip-path="url(#SVGID_34_)">
					<text transform="matrix(1 0 0 1 1071.0034 272.225)"><tspan x="0" y="0" fill="#231F20" font-family="'OpenSans-Semibold'" font-size="27.9142" letter-spacing="-1">Mil</tspan><tspan x="36.3848" y="0" fill="#231F20" font-family="'OpenSans-Semibold'" font-size="27.9142" letter-spacing="-1">a</tspan><tspan x="50.9023" y="0" fill="#231F20" font-family="'OpenSans-Semibold'" font-size="27.9142" letter-spacing="-1">n</tspan><tspan x="66.9746" y="0" fill="#231F20" font-family="'OpenSans-Semibold'" font-size="27.9142">o</tspan></text>
				</g>
				<g clip-path="url(#SVGID_34_)">
					<defs>
						<rect id="SVGID_35_" x="971.7791" y="241.4963" width="182.1818" height="41.9013"/>
					</defs>
					<clipPath id="SVGID_36_">
						<use xlink:href="#SVGID_35_"  overflow="visible"/>
					</clipPath>
					<path clip-path="url(#SVGID_36_)" fill="#231F20" d="M1015.2449,260.7457h8.5753v10.7177
						c-2.3297,0.7993-4.8863,1.1952-7.6821,1.1952c-3.0601,0-5.4263-0.8867-7.1007-2.6624c-1.6749-1.7755-2.507-4.3133-2.507-7.6059
						c0-3.205,0.9125-5.6985,2.7458-7.4856c1.8314-1.788,4.3944-2.6696,7.6938-2.6696c1.2521,0,2.4297,0.1129,3.5374,0.3519
						c1.1156,0.2334,2.085,0.5296,2.9105,0.8884l-1.7068,4.2119c-1.4299-0.7061-3.0027-1.0584-4.7165-1.0584
						c-1.5615,0-2.7762,0.5161-3.6322,1.531c-0.8629,1.02-1.2844,2.4731-1.2844,4.3697c0,1.8573,0.3837,3.2737,1.165,4.2486
						c0.7675,0.9764,1.8818,1.4559,3.343,1.4559c0.7997,0,1.5355-0.0706,2.203-0.2289v-3.1093h-3.544V260.7457z"/>
					<path clip-path="url(#SVGID_36_)" fill="#231F20" d="M1038.049,262.2203c0-1.8264-0.3585-3.1737-1.076-4.055
						c-0.7184-0.8751-1.8202-1.3163-3.2869-1.3163h-1.5616v11.1329h1.1969c1.6365,0,2.8323-0.4734,3.5883-1.4234
						C1037.6715,265.6202,1038.049,264.1654,1038.049,262.2203 M1043.6204,262.0313c0,3.3115-0.906,5.8683-2.7385,7.6623
						c-1.8193,1.7944-4.3868,2.6891-7.693,2.6891h-6.4277V252.511h6.8745c3.1854,0,5.6481,0.8197,7.3848,2.4492
						C1042.7583,256.5864,1043.6204,258.9466,1043.6204,262.0313"/>
					<path clip-path="url(#SVGID_36_)" fill="#231F20" d="M1054.0474,260.7457h8.5822v10.7177
						c-2.3303,0.7993-4.8921,1.1952-7.6813,1.1952c-3.0603,0-5.428-0.8867-7.103-2.6624c-1.6683-1.7755-2.5049-4.3133-2.5049-7.6059
						c0-3.205,0.9121-5.6985,2.7443-7.4856c1.8263-1.788,4.3943-2.6696,7.694-2.6696c1.2469,0,2.4305,0.1129,3.5446,0.3519
						c1.1021,0.2334,2.0728,0.5296,2.8961,0.8884l-1.699,4.2119c-1.4294-0.7061-3.0043-1.0584-4.7162-1.0584
						c-1.5684,0-2.776,0.5161-3.6387,1.531c-0.8508,1.02-1.2789,2.4731-1.2789,4.3697c0,1.8573,0.384,3.2737,1.1581,4.2486
						c0.7748,0.9764,1.8888,1.4559,3.3492,1.4559c0.7997,0,1.5378-0.0706,2.205-0.2289v-3.1093h-3.5514V260.7457z"/>
				</g>
				<g clip-path="url(#SVGID_34_)">
					<defs>
						<path id="SVGID_37_" d="M977.4133,283.3977h4.7427c1.1222,0,2.5164-0.7875,3.0959-1.7541l3.9944-6.647
							c0.4717-0.9754,0.4556-2.393-0.0833-3.2917l-2.3596-3.9049L977.4133,283.3977z"/>
					</defs>
					<clipPath id="SVGID_38_">
						<use xlink:href="#SVGID_37_"  overflow="visible"/>
					</clipPath>
					
						<radialGradient id="SVGID_39_" cx="133.338" cy="34.9077" r="0.2147" gradientTransform="matrix(108.6747 200.4074 200.4074 -108.6747 -20515.4102 -22687.707)" gradientUnits="userSpaceOnUse">
						<stop  offset="0" style="stop-color:#FFCD4D"/>
						<stop  offset="1" style="stop-color:#F6C338"/>
					</radialGradient>
					<polygon clip-path="url(#SVGID_38_)" fill="url(#SVGID_39_)" points="986.922,262.6437 996.2542,279.8533 980.2094,288.5539 
						970.8771,271.3443 					"/>
				</g>
				<g clip-path="url(#SVGID_34_)">
					<defs>
						<path id="SVGID_40_" d="M982.5111,264.2027l-10.5463,17.6326c-0.4071,0.8715,0.0163,1.5623,1.0627,1.5623h4.3858
							l9.3902-15.5977l-4.2924-7.1052C983.0899,261.6579,983.0899,263.2355,982.5111,264.2027"/>
					</defs>
					<clipPath id="SVGID_41_">
						<use xlink:href="#SVGID_40_"  overflow="visible"/>
					</clipPath>
					
						<radialGradient id="SVGID_42_" cx="133.338" cy="34.9077" r="0.2147" gradientTransform="matrix(108.674 200.4061 200.4061 -108.674 -20515.2637 -22687.5527)" gradientUnits="userSpaceOnUse">
						<stop  offset="0" style="stop-color:#0DA960"/>
						<stop  offset="1" style="stop-color:#03914B"/>
					</radialGradient>
					<polygon clip-path="url(#SVGID_41_)" fill="url(#SVGID_42_)" points="983.3391,254.306 996.3171,278.2388 975.0221,289.7864 
						962.0441,265.8537 					"/>
				</g>
				<g clip-path="url(#SVGID_34_)">
					<defs>
						<path id="SVGID_43_" d="M973.0275,241.4963c-0.7897,0-1.2457,0.3884-1.2485,0.9522v0.0101
							c0.001,0.2383,0.0826,0.5073,0.2535,0.7914l17.1305,28.4548c0.5389,0.8987,0.5549,2.3164,0.0833,3.2917l4.1652-6.9315
							l-15.9956-26.5688H973.0275z"/>
					</defs>
					<clipPath id="SVGID_44_">
						<use xlink:href="#SVGID_43_"  overflow="visible"/>
					</clipPath>
					
						<radialGradient id="SVGID_45_" cx="133.3381" cy="34.9078" r="0.2147" gradientTransform="matrix(108.6723 200.403 200.403 -108.6723 -20514.9531 -22687.2051)" gradientUnits="userSpaceOnUse">
						<stop  offset="0" style="stop-color:#4387FD"/>
						<stop  offset="1" style="stop-color:#4683EA"/>
					</radialGradient>
					<polygon clip-path="url(#SVGID_44_)" fill="url(#SVGID_45_)" points="988.4958,232.4314 1007.4496,267.3841 976.6947,284.0616 
						957.7409,249.1088 					"/>
				</g>
				<g clip-path="url(#SVGID_34_)">
					<defs>
						<path id="SVGID_46_" d="M977.4159,241.4963l15.9956,26.5688l2.3181-3.8624c0.5797-0.9672,0.5797-2.5448,0-3.5079
							L985.2519,243.25c-0.5795-0.9631-1.9737-1.7536-3.0959-1.7536H977.4159z"/>
					</defs>
					<clipPath id="SVGID_47_">
						<use xlink:href="#SVGID_46_"  overflow="visible"/>
					</clipPath>
					
						<radialGradient id="SVGID_48_" cx="133.3383" cy="34.9079" r="0.2147" gradientTransform="matrix(108.6655 200.3905 200.3905 -108.6655 -20513.6543 -22685.7949)" gradientUnits="userSpaceOnUse">
						<stop  offset="0" style="stop-color:#E04A3F"/>
						<stop  offset="1" style="stop-color:#CD372D"/>
					</radialGradient>
					<polygon clip-path="url(#SVGID_47_)" fill="url(#SVGID_48_)" points="992.016,233.5792 1007.4427,262.0277 981.7092,275.9823 
						966.2823,247.5337 					"/>
				</g>
				<g clip-path="url(#SVGID_34_)">
					<defs>
						<rect id="SVGID_49_" x="971.7791" y="241.4963" width="182.1818" height="41.9013"/>
					</defs>
					<clipPath id="SVGID_50_">
						<use xlink:href="#SVGID_49_"  overflow="visible"/>
					</clipPath>
					<g clip-path="url(#SVGID_50_)">
						<g>
							<defs>
								<rect id="SVGID_51_" x="980.1699" y="260.6948" width="9.4148" height="14.3018"/>
							</defs>
							<clipPath id="SVGID_52_">
								<use xlink:href="#SVGID_51_"  overflow="visible"/>
							</clipPath>
							<g clip-path="url(#SVGID_52_)">
								<defs>
									<path id="SVGID_53_" d="M989.1633,271.7048l-6.6522-11.0101c0.579,0.9631,0.579,2.5409,0,3.5079l-2.3413,3.8989
										l9.0765,6.895C989.718,274.0212,989.7017,272.6038,989.1633,271.7048"/>
								</defs>
								<clipPath id="SVGID_54_">
									<use xlink:href="#SVGID_53_"  overflow="visible"/>
								</clipPath>
								<defs>
									
										<filter id="Adobe_OpacityMaskFilter_2_" filterUnits="userSpaceOnUse" x="980.1698" y="260.6948" width="9.5482" height="14.3018">
										<feColorMatrix  type="matrix" values="1 0 0 0 0  0 1 0 0 0  0 0 1 0 0  0 0 0 1 0"/>
									</filter>
								</defs>
								<mask maskUnits="userSpaceOnUse" x="980.1698" y="260.6948" width="9.5482" height="14.3018" id="SVGID_55_">
									<g filter="url(#Adobe_OpacityMaskFilter_2_)">
										
											<linearGradient id="SVGID_56_" gradientUnits="userSpaceOnUse" x1="115.9998" y1="38.1042" x2="116.2145" y2="38.1042" gradientTransform="matrix(-54.9201 0 0 54.9201 7362.4346 -1824.8412)">
											<stop  offset="0" style="stop-color:#333333"/>
											<stop  offset="1" style="stop-color:#404040"/>
										</linearGradient>
										<rect x="980.1698" y="260.6948" clip-path="url(#SVGID_54_)" fill="url(#SVGID_56_)" width="9.5482" height="14.3018"/>
									</g>
								</mask>
								
									<linearGradient id="SVGID_57_" gradientUnits="userSpaceOnUse" x1="115.9998" y1="38.1042" x2="116.2145" y2="38.1042" gradientTransform="matrix(-54.9201 0 0 54.9201 7362.4336 -1824.8409)">
									<stop  offset="0" style="stop-color:#231F20"/>
									<stop  offset="1" style="stop-color:#F1F2F2"/>
								</linearGradient>
								
									<rect x="980.1698" y="260.6948" clip-path="url(#SVGID_54_)" mask="url(#SVGID_55_)" fill="url(#SVGID_57_)" width="9.5482" height="14.3018"/>
							</g>
						</g>
					</g>
					<g clip-path="url(#SVGID_50_)">
						<g>
							<defs>
								<rect id="SVGID_58_" x="971.7791" y="241.4963" width="24.3853" height="41.9013"/>
							</defs>
							<clipPath id="SVGID_59_">
								<use xlink:href="#SVGID_58_"  overflow="visible"/>
							</clipPath>
							<g clip-path="url(#SVGID_59_)">
								<defs>
									<path id="SVGID_60_" d="M995.7296,260.6948L985.2517,243.25c-0.579-0.9631-1.9735-1.7536-3.0957-1.7536h-4.7401h-4.3884
										c-1.1268,0-1.5742,0.7905-0.9949,1.7536l10.4785,17.4448c0.579,0.9631,0.579,2.5409,0,3.5079l-10.5463,17.6328
										c-0.4071,0.871,0.0163,1.5621,1.0627,1.5621h4.3858h4.7427c1.1222,0,2.5167-0.7875,3.0957-1.7541l8.1595-13.5785
										l2.3183-3.8624C996.3093,263.2357,996.3093,261.6579,995.7296,260.6948"/>
								</defs>
								<clipPath id="SVGID_61_">
									<use xlink:href="#SVGID_60_"  overflow="visible"/>
								</clipPath>
								<defs>
									
										<filter id="Adobe_OpacityMaskFilter_3_" filterUnits="userSpaceOnUse" x="971.4534" y="241.4963" width="24.8559" height="41.9013">
										<feColorMatrix  type="matrix" values="1 0 0 0 0  0 1 0 0 0  0 0 1 0 0  0 0 0 1 0"/>
									</filter>
								</defs>
								<mask maskUnits="userSpaceOnUse" x="971.4534" y="241.4963" width="24.8559" height="41.9013" id="SVGID_62_">
									<g filter="url(#Adobe_OpacityMaskFilter_3_)">
										
											<radialGradient id="SVGID_63_" cx="139.9853" cy="28.3974" r="0.2147" gradientTransform="matrix(79.8353 0 0 -79.8353 -10191.8047 2529.5662)" gradientUnits="userSpaceOnUse">
											<stop  offset="0" style="stop-color:#1A1A1A"/>
											<stop  offset="0.2395" style="stop-color:#0D0D0D"/>
											<stop  offset="0.5779" style="stop-color:#030303"/>
											<stop  offset="1" style="stop-color:#000000"/>
										</radialGradient>
										<rect x="971.4533" y="241.4963" clip-path="url(#SVGID_61_)" fill="url(#SVGID_63_)" width="24.8559" height="41.9013"/>
									</g>
								</mask>
								
									<radialGradient id="SVGID_64_" cx="139.9853" cy="28.3974" r="0.2147" gradientTransform="matrix(79.8353 0 0 -79.8353 -10191.8047 2529.5662)" gradientUnits="userSpaceOnUse">
									<stop  offset="0" style="stop-color:#FFFFFF"/>
									<stop  offset="1" style="stop-color:#FFFFFF"/>
								</radialGradient>
								
									<rect x="971.4533" y="241.4963" clip-path="url(#SVGID_61_)" mask="url(#SVGID_62_)" fill="url(#SVGID_64_)" width="24.8559" height="41.9013"/>
							</g>
						</g>
					</g>
				</g>
			</g>
		</g>
	</g>
	<g display="none">
		<line display="inline" fill="#FFFFFF" x1="825" y1="90.5" x2="825" y2="197.5"/>
		<path display="inline" fill="#FFFFFF" d="M825.5,90.5c0.6211,8.9165,0.9453,17.8335,1.166,26.75
			c0.1387,4.4585,0.169,8.9165,0.25,13.375L826.999,144l-0.0792,13.375c-0.083,4.458-0.1094,8.917-0.249,13.375
			c-0.2197,8.917-0.5469,17.833-1.1709,26.75c-0.624-8.917-0.9512-17.833-1.1709-26.75c-0.1396-4.458-0.166-8.917-0.249-13.375
			L824.001,144l0.083-13.375c0.081-4.4585,0.1113-8.9165,0.25-13.375C824.5547,108.3335,824.8789,99.4165,825.5,90.5z"/>
	</g>
	<text transform="matrix(1 0 0 1 335 264.6113)" display="none"><tspan x="0" y="0" display="inline" fill="#FFFFFF" font-family="'OpenSans-Extrabold'" font-size="33">GDG </tspan><tspan x="81.646" y="0" display="inline" fill="#FFFFFF" font-family="'OpenSans-Semibold'" font-size="33" letter-spacing="-2">Milano</tspan></text>
	<circle fill="#0071BC" cx="886.5" cy="140.8223" r="42.5"/>
	<text transform="matrix(0.98 0 0 1 848.0127 162.374)" fill="#FFFFFF" font-family="'Cabin-Bold'" font-size="60">02</text>
</g>
<g id="Reticolo">
	<polygon display="none" fill="#0A9749" points="1132.6514,158.4844 1048.7147,175.6279 1060.7764,143.542 	"/>
	<polygon display="none" fill="#6088CB" points="991.0293,61.8877 943.9727,121.8193 978.1182,32.9668 	"/>
	<polygon display="none" fill="#DD3629" points="943.9189,121.832 991.0293,61.8877 1088.3438,65.4941 	"/>
	<polygon display="none" fill="#F8C728" points="1048.7147,175.6279 1185.7031,300.2139 1132.6514,158.4844 	"/>
	<polygon fill="#FFFFFF" points="1061.4551,514.6699 1024.0303,493.3369 1023.6953,493.9229 1061.4551,515.459 	"/>
	<polyline fill="#FFFFFF" points="1023.6611,493.3613 972.6006,531.1162 973.0049,531.665 1024.0654,493.9033 	"/>
	<polygon fill="#FFFFFF" points="1061.4551,521.0557 1061.4551,520.374 972.7637,531.0459 972.8438,531.7217 	"/>
	<polygon fill="#FFFFFF" points="1061.4551,580.333 972.9717,531.0967 972.6387,531.6807 1061.4551,581.0957 	"/>
	<polygon fill="#FFFFFF" points="1061.4551,585.6797 993.6875,578.1475 993.6152,578.8232 1061.4551,586.3555 	"/>
	<polyline fill="#FFFFFF" points="972.5273,531.5225 993.335,578.6182 993.96,578.3457 973.1455,531.249 	"/>
	<polygon fill="#FFFFFF" points="1061.4551,481.7002 1061.4551,480.9824 1023.7568,493.3076 1023.9688,493.9541 	"/>
	<polyline fill="#FFFFFF" points="1023.9043,493.2949 949.376,485.1514 949.3125,485.8291 1023.8281,493.9609 	"/>
	<polyline fill="#FFFFFF" points="973.1016,531.2354 949.6475,485.3428 949.0469,485.6426 972.499,531.5381 	"/>
	<polyline fill="#FFFFFF" points="972.6221,531.1006 921.5986,563.2568 921.958,563.8281 972.9834,531.6768 	"/>
	<polyline fill="#FFFFFF" points="993.7168,578.1504 921.8486,563.208 921.71,563.876 993.5781,578.8193 	"/>
	<polyline fill="#FFFFFF" points="921.459,563.417 909.3965,595.5078 910.0283,595.7461 922.0908,563.6602 	"/>
	<polyline fill="#FFFFFF" points="993.5781,578.1504 909.6533,595.2949 909.7891,595.959 993.7168,578.8193 	"/>
	<polygon fill="#FFFFFF" points="1061.4551,648.2969 993.8936,578.251 993.4102,578.7197 1061.4551,649.2705 	"/>
	<polyline fill="#FFFFFF" points="949.1357,485.2256 879.4912,539.6318 879.9111,540.1641 949.5518,485.7568 	"/>
	<polyline fill="#FFFFFF" points="879.5391,540.1943 921.6143,563.8408 921.9443,563.249 879.8662,539.6064 	"/>
	<polyline fill="#FFFFFF" points="910.0176,595.4668 879.999,539.7305 879.4033,540.0586 909.415,595.7891 	"/>
	<polyline fill="#FFFFFF" points="949.2236,485.1777 804.7998,541.5186 805.0449,542.1445 949.4678,485.8057 	"/>
	<polyline fill="#FFFFFF" points="909.873,595.3223 805.126,541.5186 804.8174,542.1211 909.5615,595.9297 	"/>
	<polygon fill="#FFFFFF" points="879.7129,540.2412 879.6904,539.5664 804.9629,541.4863 804.9795,542.1621 	"/>
	<polyline fill="#FFFFFF" points="949.4414,485.166 839.2119,452.6396 839.0264,453.2861 949.248,485.8193 	"/>
	<polyline fill="#FFFFFF" points="805.2363,541.9551 839.4346,453.085 838.8018,452.8389 804.6074,541.7148 	"/>
	<polyline fill="#FFFFFF" points="805.2441,541.7246 764.2588,419.6182 763.6211,419.835 804.6016,541.9375 	"/>
	<polyline fill="#FFFFFF" points="839.2578,452.6523 764.0752,419.416 763.8047,420.041 838.9854,453.2676 	"/>
	<polyline fill="#FFFFFF" points="949.3633,485.1475 852.04,481.542 852.0098,482.2178 949.333,485.8291 	"/>
	<polyline fill="#FFFFFF" points="852.3389,481.751 839.4307,452.8232 838.8154,453.0947 851.7168,482.0225 	"/>
	<polyline fill="#FFFFFF" points="805.1846,542.0391 852.2949,482.0928 851.7578,481.6738 804.6543,541.6289 	"/>
	<polyline fill="#FFFFFF" points="949.5518,485.7568 1032.9102,420.625 1032.4971,420.0947 949.1357,485.2256 	"/>
	<polyline fill="#FFFFFF" points="1024.1973,493.667 1033.042,420.3994 1032.3643,420.3154 1023.5273,493.5879 	"/>
	<polyline fill="#FFFFFF" points="909.4873,595.8711 1046.4756,720.4629 1046.9268,719.9629 909.9424,595.3789 	"/>
	<polyline fill="#FFFFFF" points="839.3242,453.2305 883.8994,420.4434 883.5029,419.9014 838.9189,452.6875 	"/>
	<line fill="#FFFFFF" stroke="#FFFFFF" stroke-miterlimit="10" x1="993.6514" y1="578.4844" x2="1046.7324" y2="720.4404"/>
	<polygon display="none" fill="#0A9749" points="647.6514,154.3945 563.7148,137.251 575.7764,169.3369 	"/>
	<polygon display="none" fill="#6088CB" points="506.0293,250.9912 458.9727,191.0596 493.1182,279.9121 	"/>
	<polygon display="none" fill="#DD3629" points="458.9189,191.0469 506.0293,250.9912 603.3438,247.3848 	"/>
	<polygon display="none" fill="#F8C728" points="563.7148,137.251 700.7031,12.665 647.6514,154.3945 	"/>
	<polygon fill="#FFFFFF" points="-0.3789,205.209 37.0459,226.542 37.3809,225.9561 -0.3789,204.4199 	"/>
	<polyline fill="#FFFFFF" points="37.415,226.5176 88.4756,188.7627 88.0713,188.2139 37.0107,225.9756 	"/>
	<polygon fill="#FFFFFF" points="-0.3789,198.8232 -0.3789,199.5049 88.3125,188.833 88.2324,188.1572 	"/>
	<polygon fill="#FFFFFF" points="-0.3789,139.5459 88.1045,188.7822 88.4375,188.1982 -0.3789,138.7832 	"/>
	<polygon fill="#FFFFFF" points="-0.3789,134.1992 67.3887,141.7314 67.4609,141.0557 -0.3789,133.5234 	"/>
	<polyline fill="#FFFFFF" points="88.5488,188.3564 67.7412,141.2607 67.1162,141.5332 87.9307,188.6299 	"/>
	<polygon fill="#FFFFFF" points="-0.3789,238.1787 -0.3789,238.8965 37.3193,226.5713 37.1074,225.9248 	"/>
	<polyline fill="#FFFFFF" points="37.1719,226.584 111.7002,234.7275 111.7637,234.0498 37.248,225.918 	"/>
	<polyline fill="#FFFFFF" points="87.9746,188.6436 111.4287,234.5361 112.0293,234.2363 88.5771,188.3408 	"/>
	<polyline fill="#FFFFFF" points="88.4541,188.7783 139.4775,156.6221 139.1182,156.0508 88.0928,188.2021 	"/>
	<polyline fill="#FFFFFF" points="67.3594,141.7285 139.2275,156.6709 139.3662,156.0029 67.498,141.0596 	"/>
	<polyline fill="#FFFFFF" points="139.6172,156.4619 151.6797,124.3711 151.0479,124.1328 138.9854,156.2188 	"/>
	<polyline fill="#FFFFFF" points="67.498,141.7285 151.4229,124.584 151.2871,123.9199 67.3594,141.0596 	"/>
	<polygon fill="#FFFFFF" points="-0.3789,71.582 67.1826,141.6279 67.666,141.1592 -0.3789,70.6084 	"/>
	<polyline fill="#FFFFFF" points="111.9404,234.6533 181.585,180.2471 181.165,179.7148 111.5244,234.1221 	"/>
	<polyline fill="#FFFFFF" points="181.5371,179.6846 139.4619,156.0381 139.1318,156.6299 181.21,180.2725 	"/>
	<polyline fill="#FFFFFF" points="151.0586,124.4121 181.0771,180.1484 181.6729,179.8203 151.6611,124.0898 	"/>
	<polyline fill="#FFFFFF" points="111.8525,234.7012 256.2764,178.3604 256.0313,177.7344 111.6084,234.0732 	"/>
	<polyline fill="#FFFFFF" points="151.2031,124.5566 255.9502,178.3604 256.2588,177.7578 151.5146,123.9492 	"/>
	<polygon fill="#FFFFFF" points="181.3633,179.6377 181.3857,180.3125 256.1133,178.3926 256.0967,177.7168 	"/>
	<polyline fill="#FFFFFF" points="111.6348,234.7129 221.8643,267.2393 222.0498,266.5928 111.8281,234.0596 	"/>
	<polyline fill="#FFFFFF" points="255.8398,177.9238 221.6416,266.7939 222.2744,267.04 256.4688,178.1641 	"/>
	<polyline fill="#FFFFFF" points="255.832,178.1543 296.8174,300.2607 297.4551,300.0439 256.4746,177.9414 	"/>
	<polyline fill="#FFFFFF" points="221.8184,267.2266 297.001,300.4629 297.2715,299.8379 222.0908,266.6113 	"/>
	<polyline fill="#FFFFFF" points="111.7129,234.7314 209.0361,238.3369 209.0664,237.6611 111.7432,234.0498 	"/>
	<polyline fill="#FFFFFF" points="208.7373,238.1279 221.6455,267.0557 222.2607,266.7842 209.3594,237.8564 	"/>
	<polyline fill="#FFFFFF" points="255.8916,177.8398 208.7813,237.7861 209.3184,238.2051 256.4219,178.25 	"/>
	<polyline fill="#FFFFFF" points="111.5244,234.1221 28.166,299.2539 28.5791,299.7842 111.9404,234.6533 	"/>
	<polyline fill="#FFFFFF" points="36.8789,226.2119 28.0342,299.4795 28.7119,299.5635 37.5488,226.291 	"/>
	<polyline fill="#FFFFFF" points="151.5889,124.0078 14.6006,-0.584 14.1494,-0.084 151.1338,124.5 	"/>
	<polyline fill="#FFFFFF" points="221.752,266.6484 177.1768,299.4355 177.5732,299.9775 222.1572,267.1914 	"/>
	<line fill="#FFFFFF" stroke="#FFFFFF" stroke-miterlimit="10" x1="67.4248" y1="141.3945" x2="14.3437" y2="-0.5615"/>
</g>
</svg>
